Pacifico.ufo
<glyph name="exclam" format="1">
  <advance width="1011"/>
  <unicode hex="0021"/>
  <outline>
    <contour>
      <point x="638" y="191" type="curve" smooth="yes"/>
      <point x="638" y="81"/>
      <point x="573" y="-2"/>
      <point x="457" y="-2" type="curve" smooth="yes"/>
      <point x="351" y="-2"/>
      <point x="293" y="55"/>
      <point x="293" y="162" type="curve" smooth="yes"/>
      <point x="293" y="277"/>
      <point x="359" y="353"/>
      <point x="476" y="353" type="curve" smooth="yes"/>
      <point x="580" y="353"/>
      <point x="638" y="295"/>
    </contour>
    <contour>
      <point x="928" y="1862" type="curve" smooth="yes"/>
      <point x="1006" y="1862"/>
      <point x="1051" y="1821"/>
      <point x="1051" y="1762" type="curve" smooth="yes"/>
      <point x="1051" y="1683"/>
      <point x="989" y="1580"/>
      <point x="974" y="1540" type="curve" smooth="yes"/>
      <point x="595" y="532" type="line" smooth="yes"/>
      <point x="585" y="507"/>
      <point x="554" y="492"/>
      <point x="521" y="492" type="curve" smooth="yes"/>
      <point x="496" y="492"/>
      <point x="475" y="505"/>
      <point x="475" y="537" type="curve" smooth="yes"/>
      <point x="475" y="540"/>
      <point x="475" y="545"/>
      <point x="477" y="552" type="curve" smooth="yes"/>
      <point x="755" y="1704" type="line" smooth="yes"/>
      <point x="776" y="1790"/>
      <point x="836" y="1862"/>
    </contour>
  </outline>
</glyph>
<glyph name="numbersign" format="1">
  <advance width="1248"/>
  <unicode hex="0023"/>
  <outline>
    <contour>
      <point x="800" y="960" type="line"/>
      <point x="759" y="863"/>
      <point x="719" y="768"/>
      <point x="676" y="669" type="curve"/>
      <point x="828" y="669" type="line" smooth="yes"/>
      <point x="878" y="669"/>
      <point x="929" y="669"/>
      <point x="980" y="670" type="curve"/>
      <point x="997" y="717"/>
      <point x="1014" y="765"/>
      <point x="1031" y="814" type="curve" smooth="yes"/>
      <point x="1083" y="960" type="line"/>
    </contour>
    <contour>
      <point x="166" y="556" type="curve" smooth="yes"/>
      <point x="166" y="658"/>
      <point x="272" y="672"/>
      <point x="378" y="672" type="curve" smooth="yes"/>
      <point x="416" y="672" type="line"/>
      <point x="545" y="960" type="line"/>
      <point x="483" y="960" type="line" smooth="yes"/>
      <point x="410" y="960"/>
      <point x="349" y="994"/>
      <point x="349" y="1068" type="curve" smooth="yes"/>
      <point x="349" y="1178"/>
      <point x="479" y="1184"/>
      <point x="591" y="1184" type="curve" smooth="yes"/>
      <point x="644" y="1184" type="line"/>
      <point x="782" y="1490" type="line"/>
      <point x="812" y="1562"/>
      <point x="885" y="1631"/>
      <point x="987" y="1631" type="curve" smooth="yes"/>
      <point x="1036" y="1631"/>
      <point x="1044" y="1594"/>
      <point x="1044" y="1546" type="curve" smooth="yes"/>
      <point x="1044" y="1529"/>
      <point x="1033" y="1507"/>
      <point x="1026" y="1491" type="curve" smooth="yes"/>
      <point x="1018" y="1473"/>
      <point x="1020" y="1473"/>
      <point x="1012" y="1455" type="curve" smooth="yes"/>
      <point x="975" y="1366"/>
      <point x="934" y="1279"/>
      <point x="894" y="1184" type="curve"/>
      <point x="982" y="1184"/>
      <point x="1074" y="1185"/>
      <point x="1163" y="1185" type="curve"/>
      <point x="1222" y="1352"/>
      <point x="1250" y="1635"/>
      <point x="1468" y="1635" type="curve" smooth="yes"/>
      <point x="1521" y="1635"/>
      <point x="1533" y="1596"/>
      <point x="1533" y="1550" type="curve" smooth="yes"/>
      <point x="1533" y="1467"/>
      <point x="1483" y="1391"/>
      <point x="1457" y="1317" type="curve" smooth="yes"/>
      <point x="1443" y="1276"/>
      <point x="1428" y="1232"/>
      <point x="1413" y="1185" type="curve"/>
      <point x="1539" y="1185" type="line" smooth="yes"/>
      <point x="1588" y="1185"/>
      <point x="1621" y="1170"/>
      <point x="1621" y="1123" type="curve" smooth="yes"/>
      <point x="1621" y="993"/>
      <point x="1511" y="960"/>
      <point x="1375" y="960" type="curve" smooth="yes"/>
      <point x="1339" y="960" type="line"/>
      <point x="1308" y="864"/>
      <point x="1275" y="769"/>
      <point x="1241" y="673" type="curve"/>
      <point x="1328" y="673" type="line"/>
      <point x="1373" y="669"/>
      <point x="1410" y="655"/>
      <point x="1410" y="609" type="curve" smooth="yes"/>
      <point x="1410" y="481"/>
      <point x="1298" y="448"/>
      <point x="1164" y="448" type="curve" smooth="yes"/>
      <point x="1161" y="448" type="line"/>
      <point x="1112" y="316"/>
      <point x="1061" y="186"/>
      <point x="1007" y="55" type="curve" smooth="yes"/>
      <point x="986" y="3"/>
      <point x="954" y="-31"/>
      <point x="885" y="-31" type="curve" smooth="yes"/>
      <point x="819" y="-31"/>
      <point x="779" y="-8"/>
      <point x="779" y="60" type="curve" smooth="yes"/>
      <point x="779" y="89"/>
      <point x="787" y="126"/>
      <point x="803" y="172" type="curve" smooth="yes"/>
      <point x="900" y="447" type="line"/>
      <point x="795" y="446"/>
      <point x="685" y="445"/>
      <point x="576" y="445" type="curve"/>
      <point x="515" y="313"/>
      <point x="453" y="182"/>
      <point x="387" y="51" type="curve" smooth="yes"/>
      <point x="361" y="1"/>
      <point x="329" y="-35"/>
      <point x="257" y="-35" type="curve" smooth="yes"/>
      <point x="198" y="-35"/>
      <point x="159" y="-17"/>
      <point x="159" y="43" type="curve" smooth="yes"/>
      <point x="159" y="89"/>
      <point x="175" y="128"/>
      <point x="193" y="168" type="curve" smooth="yes"/>
      <point x="317" y="447" type="line"/>
      <point x="311" y="447"/>
      <point x="306" y="448"/>
      <point x="300" y="448" type="curve" smooth="yes"/>
      <point x="227" y="448"/>
      <point x="166" y="482"/>
    </contour>
  </outline>
</glyph>
<glyph name="ampersand" format="1">
  <advance width="1523"/>
  <unicode hex="0026"/>
  <outline>
    <contour>
      <point x="928" y="1332" type="curve" smooth="yes"/>
      <point x="928" y="1414"/>
      <point x="878" y="1440"/>
      <point x="794" y="1440" type="curve" smooth="yes"/>
      <point x="680" y="1440"/>
      <point x="630" y="1361"/>
      <point x="630" y="1256" type="curve" smooth="yes"/>
      <point x="630" y="1176"/>
      <point x="659" y="1080"/>
      <point x="711" y="993" type="curve"/>
      <point x="801" y="1075"/>
      <point x="928" y="1172"/>
    </contour>
    <contour>
      <point x="322" y="381" type="curve" smooth="yes"/>
      <point x="322" y="252"/>
      <point x="433" y="202"/>
      <point x="566" y="202" type="curve" smooth="yes"/>
      <point x="675" y="202"/>
      <point x="768" y="226"/>
      <point x="839" y="252" type="curve"/>
      <point x="718" y="405"/>
      <point x="631" y="547"/>
      <point x="535" y="734" type="curve"/>
      <point x="440" y="660"/>
      <point x="322" y="544"/>
    </contour>
    <contour>
      <point x="1600" y="-132" type="curve" smooth="yes"/>
      <point x="1600" y="-169"/>
      <point x="1510" y="-238"/>
      <point x="1370" y="-238" type="curve" smooth="yes"/>
      <point x="1308" y="-238"/>
      <point x="1233" y="-232"/>
      <point x="1180" y="-179" type="curve" smooth="yes"/>
      <point x="1025" y="-24"/>
      <point x="958" y="66"/>
      <point x="958" y="78" type="curve"/>
      <point x="863" y="34"/>
      <point x="729" y="0"/>
      <point x="558" y="0" type="curve" smooth="yes"/>
      <point x="301" y="0"/>
      <point x="64" y="97"/>
      <point x="64" y="345" type="curve" smooth="yes"/>
      <point x="64" y="602"/>
      <point x="295" y="762"/>
      <point x="471" y="857" type="curve"/>
      <point x="417" y="957"/>
      <point x="353" y="1095"/>
      <point x="353" y="1242" type="curve" smooth="yes"/>
      <point x="353" y="1473"/>
      <point x="550" y="1652"/>
      <point x="782" y="1652" type="curve" smooth="yes"/>
      <point x="970" y="1652"/>
      <point x="1115" y="1541"/>
      <point x="1115" y="1355" type="curve" smooth="yes"/>
      <point x="1115" y="1112"/>
      <point x="921" y="963"/>
      <point x="758" y="864" type="curve"/>
      <point x="838" y="698"/>
      <point x="966" y="495"/>
      <point x="1058" y="365" type="curve"/>
      <point x="1196" y="426"/>
      <point x="1269" y="495"/>
      <point x="1269" y="636" type="curve" smooth="yes"/>
      <point x="1269" y="657"/>
      <point x="1291" y="667"/>
      <point x="1321" y="667" type="curve" smooth="yes"/>
      <point x="1384" y="667"/>
      <point x="1481" y="625"/>
      <point x="1481" y="563" type="curve" smooth="yes"/>
      <point x="1481" y="397"/>
      <point x="1339" y="287"/>
      <point x="1174" y="196" type="curve"/>
      <point x="1263" y="111"/>
      <point x="1321" y="58"/>
      <point x="1364" y="24" type="curve" smooth="yes"/>
      <point x="1433" y="-31"/>
      <point x="1600" y="-72"/>
    </contour>
  </outline>
</glyph>
<glyph name="quotesingle" format="1">
  <advance width="524"/>
  <unicode hex="0027"/>
  <outline>
    <contour>
      <point x="434" y="1861" type="curve" smooth="yes"/>
      <point x="539" y="1861"/>
      <point x="577" y="1815"/>
      <point x="577" y="1749" type="curve" smooth="yes"/>
      <point x="577" y="1576"/>
      <point x="346" y="1279"/>
      <point x="306" y="1219" type="curve"/>
      <point x="249" y="1129"/>
      <point x="242" y="1108"/>
      <point x="176" y="1108" type="curve" smooth="yes"/>
      <point x="164" y="1108"/>
      <point x="118" y="1135"/>
      <point x="118" y="1170" type="curve" smooth="yes"/>
      <point x="118" y="1188"/>
      <point x="121" y="1209"/>
      <point x="128" y="1228" type="curve"/>
      <point x="194" y="1362"/>
      <point x="302" y="1861"/>
    </contour>
  </outline>
</glyph>
<glyph name="asterisk" format="1">
  <advance width="1024"/>
  <unicode hex="002A"/>
  <outline>
    <contour>
      <point x="601" y="1824" type="curve" smooth="yes"/>
      <point x="651" y="1824"/>
      <point x="694" y="1797"/>
      <point x="694" y="1745" type="curve" smooth="yes"/>
      <point x="694" y="1732"/>
      <point x="693" y="1720"/>
      <point x="689" y="1708" type="curve" smooth="yes"/>
      <point x="658" y="1616"/>
      <point x="622" y="1516"/>
      <point x="586" y="1429" type="curve"/>
      <point x="667" y="1472"/>
      <point x="755" y="1521"/>
      <point x="835" y="1566" type="curve" smooth="yes"/>
      <point x="846" y="1572"/>
      <point x="856" y="1576"/>
      <point x="873" y="1576" type="curve" smooth="yes"/>
      <point x="936" y="1576"/>
      <point x="993" y="1515"/>
      <point x="993" y="1452" type="curve" smooth="yes"/>
      <point x="993" y="1349"/>
      <point x="738" y="1339"/>
      <point x="642" y="1326" type="curve"/>
      <point x="725" y="1289"/>
      <point x="816" y="1248"/>
      <point x="897" y="1208" type="curve" smooth="yes"/>
      <point x="927" y="1193"/>
      <point x="951" y="1170"/>
      <point x="951" y="1133" type="curve" smooth="yes"/>
      <point x="951" y="1072"/>
      <point x="885" y="1022"/>
      <point x="823" y="1022" type="curve" smooth="yes"/>
      <point x="800" y="1022"/>
      <point x="780" y="1030"/>
      <point x="765" y="1045" type="curve" smooth="yes"/>
      <point x="695" y="1110"/>
      <point x="618" y="1180"/>
      <point x="553" y="1248" type="curve"/>
      <point x="550" y="1154"/>
      <point x="548" y="1052"/>
      <point x="548" y="957" type="curve" smooth="yes"/>
      <point x="548" y="897"/>
      <point x="485" y="864"/>
      <point x="424" y="864" type="curve" smooth="yes"/>
      <point x="372" y="864"/>
      <point x="331" y="890"/>
      <point x="331" y="943" type="curve" smooth="yes"/>
      <point x="331" y="1050"/>
      <point x="402" y="1168"/>
      <point x="438" y="1255" type="curve"/>
      <point x="359" y="1210"/>
      <point x="272" y="1163"/>
      <point x="191" y="1120" type="curve"/>
      <point x="180" y="1113"/>
      <point x="167" y="1110"/>
      <point x="153" y="1110" type="curve" smooth="yes"/>
      <point x="90" y="1110"/>
      <point x="32" y="1172"/>
      <point x="32" y="1235" type="curve" smooth="yes"/>
      <point x="32" y="1340"/>
      <point x="286" y="1344"/>
      <point x="381" y="1360" type="curve"/>
      <point x="298" y="1397"/>
      <point x="208" y="1436"/>
      <point x="128" y="1477" type="curve" smooth="yes"/>
      <point x="91" y="1496"/>
      <point x="74" y="1522"/>
      <point x="74" y="1551" type="curve" smooth="yes"/>
      <point x="74" y="1613"/>
      <point x="141" y="1663"/>
      <point x="203" y="1663" type="curve" smooth="yes"/>
      <point x="226" y="1663"/>
      <point x="245" y="1655"/>
      <point x="260" y="1640" type="curve" smooth="yes"/>
      <point x="329" y="1574"/>
      <point x="405" y="1502"/>
      <point x="473" y="1437" type="curve"/>
      <point x="473" y="1532"/>
      <point x="478" y="1635"/>
      <point x="478" y="1731" type="curve" smooth="yes"/>
      <point x="478" y="1793"/>
      <point x="539" y="1824"/>
    </contour>
  </outline>
</glyph>
<glyph name="plus" format="1">
  <advance width="1503"/>
  <unicode hex="002B"/>
  <outline>
    <contour>
      <point x="768" y="60" type="curve" smooth="yes"/>
      <point x="703" y="60"/>
      <point x="673" y="121"/>
      <point x="673" y="189" type="curve" smooth="yes"/>
      <point x="673" y="416" type="line"/>
      <point x="449" y="416" type="line" smooth="yes"/>
      <point x="381" y="416"/>
      <point x="320" y="446"/>
      <point x="320" y="511" type="curve" smooth="yes"/>
      <point x="320" y="577"/>
      <point x="384" y="608"/>
      <point x="453" y="608" type="curve" smooth="yes"/>
      <point x="673" y="608" type="line"/>
      <point x="673" y="836" type="line" smooth="yes"/>
      <point x="673" y="902"/>
      <point x="717" y="955"/>
      <point x="782" y="955" type="curve" smooth="yes"/>
      <point x="834" y="955"/>
      <point x="865" y="914"/>
      <point x="865" y="855" type="curve" smooth="yes"/>
      <point x="865" y="608" type="line"/>
      <point x="1115" y="608" type="line" smooth="yes"/>
      <point x="1174" y="608"/>
      <point x="1215" y="577"/>
      <point x="1215" y="525" type="curve" smooth="yes"/>
      <point x="1215" y="460"/>
      <point x="1162" y="416"/>
      <point x="1096" y="416" type="curve" smooth="yes"/>
      <point x="865" y="416" type="line"/>
      <point x="865" y="193" type="line" smooth="yes"/>
      <point x="865" y="124"/>
      <point x="834" y="60"/>
    </contour>
  </outline>
</glyph>
<glyph name="one" format="1">
  <advance width="682"/>
  <unicode hex="0031"/>
  <outline>
    <contour>
      <point x="515" y="1442" type="curve" smooth="yes"/>
      <point x="581" y="1442"/>
      <point x="649" y="1429"/>
      <point x="649" y="1346" type="curve" smooth="yes"/>
      <point x="649" y="1337"/>
      <point x="649" y="1327"/>
      <point x="647" y="1316" type="curve" smooth="yes"/>
      <point x="583" y="891"/>
      <point x="484" y="476"/>
      <point x="403" y="56" type="curve" smooth="yes"/>
      <point x="396" y="24"/>
      <point x="358" y="0"/>
      <point x="317" y="0" type="curve" smooth="yes"/>
      <point x="235" y="0"/>
      <point x="121" y="8"/>
      <point x="121" y="71" type="curve" smooth="yes"/>
      <point x="121" y="87"/>
      <point x="122" y="94"/>
      <point x="130" y="107" type="curve"/>
      <point x="198" y="414"/>
      <point x="298" y="838"/>
      <point x="375" y="1218" type="curve"/>
      <point x="349" y="1194"/>
      <point x="250" y="1115"/>
      <point x="199" y="1115" type="curve" smooth="yes"/>
      <point x="164" y="1115"/>
      <point x="144" y="1153"/>
      <point x="144" y="1182" type="curve" smooth="yes"/>
      <point x="144" y="1220"/>
      <point x="181" y="1241"/>
      <point x="195" y="1258" type="curve"/>
      <point x="274" y="1316"/>
      <point x="390" y="1442"/>
    </contour>
  </outline>
</glyph>
<glyph name="three" format="1">
  <advance width="1129"/>
  <unicode hex="0033"/>
  <outline>
    <contour>
      <point x="306" y="392" type="curve" smooth="yes"/>
      <point x="306" y="353"/>
      <point x="272" y="310"/>
      <point x="272" y="269" type="curve" smooth="yes"/>
      <point x="272" y="212"/>
      <point x="387" y="167"/>
      <point x="479" y="167" type="curve" smooth="yes"/>
      <point x="647" y="167"/>
      <point x="757" y="295"/>
      <point x="757" y="456" type="curve" smooth="yes"/>
      <point x="757" y="607"/>
      <point x="686" y="751"/>
      <point x="510" y="751" type="curve" smooth="yes"/>
      <point x="479" y="751"/>
      <point x="440" y="755"/>
      <point x="402" y="755" type="curve" smooth="yes"/>
      <point x="359" y="755"/>
      <point x="325" y="778"/>
      <point x="325" y="812" type="curve" smooth="yes"/>
      <point x="325" y="862"/>
      <point x="360" y="914"/>
      <point x="444" y="914" type="curve" smooth="yes"/>
      <point x="601" y="914"/>
      <point x="732" y="1003"/>
      <point x="732" y="1119" type="curve" smooth="yes"/>
      <point x="732" y="1185"/>
      <point x="701" y="1259"/>
      <point x="572" y="1259" type="curve" smooth="yes"/>
      <point x="441" y="1259"/>
      <point x="345" y="1148"/>
      <point x="293" y="1148" type="curve" smooth="yes"/>
      <point x="245" y="1148"/>
      <point x="210" y="1206"/>
      <point x="210" y="1247" type="curve" smooth="yes"/>
      <point x="210" y="1372"/>
      <point x="440" y="1464"/>
      <point x="669" y="1464" type="curve" smooth="yes"/>
      <point x="846" y="1464"/>
      <point x="1064" y="1382"/>
      <point x="1064" y="1165" type="curve" smooth="yes"/>
      <point x="1064" y="988"/>
      <point x="966" y="892"/>
      <point x="818" y="845" type="curve"/>
      <point x="989" y="753"/>
      <point x="1088" y="637"/>
      <point x="1088" y="452" type="curve" smooth="yes"/>
      <point x="1088" y="146"/>
      <point x="851" y="-18"/>
      <point x="500" y="-18" type="curve" smooth="yes"/>
      <point x="209" y="-18"/>
      <point x="-1" y="138"/>
      <point x="-1" y="321" type="curve" smooth="yes"/>
      <point x="-1" y="438"/>
      <point x="58" y="531"/>
      <point x="147" y="531" type="curve" smooth="yes"/>
      <point x="253" y="531"/>
      <point x="306" y="464"/>
    </contour>
  </outline>
</glyph>
<glyph name="five" format="1">
  <advance width="1157"/>
  <unicode hex="0035"/>
  <outline>
    <contour>
      <point x="489" y="-22" type="curve" smooth="yes"/>
      <point x="291" y="-22"/>
      <point x="70" y="119"/>
      <point x="70" y="409" type="curve" smooth="yes"/>
      <point x="70" y="484"/>
      <point x="121" y="539"/>
      <point x="239" y="539" type="curve" smooth="yes"/>
      <point x="276" y="539"/>
      <point x="369" y="510"/>
      <point x="369" y="459" type="curve" smooth="yes"/>
      <point x="369" y="414"/>
      <point x="300" y="413"/>
      <point x="300" y="317" type="curve" smooth="yes"/>
      <point x="300" y="199"/>
      <point x="374" y="147"/>
      <point x="460" y="147" type="curve" smooth="yes"/>
      <point x="576" y="147"/>
      <point x="713" y="243"/>
      <point x="713" y="399" type="curve" smooth="yes"/>
      <point x="713" y="622"/>
      <point x="561" y="663"/>
      <point x="343" y="690" type="curve" smooth="yes"/>
      <point x="258" y="700"/>
      <point x="238" y="720"/>
      <point x="238" y="840" type="curve" smooth="yes"/>
      <point x="238" y="873"/>
      <point x="237" y="916"/>
      <point x="237" y="965" type="curve" smooth="yes"/>
      <point x="237" y="1145"/>
      <point x="248" y="1393"/>
      <point x="354" y="1393" type="curve" smooth="yes"/>
      <point x="388" y="1393" type="line" smooth="yes"/>
      <point x="537" y="1393"/>
      <point x="643" y="1345"/>
      <point x="795" y="1345" type="curve" smooth="yes"/>
      <point x="862" y="1345"/>
      <point x="965" y="1364"/>
      <point x="987" y="1398" type="curve" smooth="yes"/>
      <point x="988" y="1401"/>
      <point x="993" y="1401"/>
      <point x="1003" y="1401" type="curve" smooth="yes"/>
      <point x="1070" y="1401"/>
      <point x="1087" y="1336"/>
      <point x="1087" y="1263" type="curve" smooth="yes"/>
      <point x="1087" y="1137"/>
      <point x="889" y="1110"/>
      <point x="756" y="1087" type="curve"/>
      <point x="627" y="1097"/>
      <point x="542" y="1128"/>
      <point x="419" y="1128" type="curve" smooth="yes"/>
      <point x="405" y="1128"/>
      <point x="392" y="1126"/>
      <point x="380" y="1125" type="curve"/>
      <point x="387" y="1042"/>
      <point x="392" y="954"/>
      <point x="403" y="869" type="curve"/>
      <point x="457" y="874"/>
      <point x="508" y="877"/>
      <point x="556" y="877" type="curve" smooth="yes"/>
      <point x="860" y="877"/>
      <point x="1029" y="762"/>
      <point x="1029" y="465" type="curve" smooth="yes"/>
      <point x="1029" y="155"/>
      <point x="769" y="-22"/>
    </contour>
  </outline>
</glyph>
<glyph name="seven" format="1">
  <advance width="926"/>
  <unicode hex="0037"/>
  <outline>
    <contour>
      <point x="335" y="1159" type="line" smooth="yes"/>
      <point x="262" y="1159"/>
      <point x="291" y="1024"/>
      <point x="214" y="1024" type="curve" smooth="yes"/>
      <point x="172" y="1024"/>
      <point x="146" y="1083"/>
      <point x="146" y="1155" type="curve" smooth="yes"/>
      <point x="146" y="1273"/>
      <point x="191" y="1379"/>
      <point x="272" y="1379" type="curve" smooth="yes"/>
      <point x="464" y="1379"/>
      <point x="573" y="1333"/>
      <point x="787" y="1333" type="curve" smooth="yes"/>
      <point x="818" y="1333" type="line" smooth="yes"/>
      <point x="870" y="1333"/>
      <point x="907" y="1343"/>
      <point x="944" y="1343" type="curve" smooth="yes"/>
      <point x="994" y="1343"/>
      <point x="1010" y="1304"/>
      <point x="1010" y="1252" type="curve" smooth="yes"/>
      <point x="1010" y="1181"/>
      <point x="955" y="1159"/>
      <point x="913" y="1131" type="curve"/>
      <point x="705" y="800"/>
      <point x="538" y="446"/>
      <point x="400" y="26" type="curve" smooth="yes"/>
      <point x="379" y="-37"/>
      <point x="311" y="-56"/>
      <point x="231" y="-56" type="curve" smooth="yes"/>
      <point x="168" y="-56"/>
      <point x="107" y="-18"/>
      <point x="107" y="49" type="curve" smooth="yes"/>
      <point x="107" y="56" type="line" smooth="yes"/>
      <point x="107" y="191"/>
      <point x="192" y="336"/>
      <point x="248" y="439" type="curve"/>
      <point x="369" y="688"/>
      <point x="516" y="926"/>
      <point x="667" y="1159" type="curve"/>
    </contour>
  </outline>
</glyph>
<glyph name="colon" format="1">
  <advance width="704"/>
  <unicode hex="003A"/>
  <outline>
    <contour>
      <point x="503" y="353" type="curve" smooth="yes"/>
      <point x="611" y="353"/>
      <point x="672" y="297"/>
      <point x="672" y="191" type="curve" smooth="yes"/>
      <point x="672" y="76"/>
      <point x="603" y="0"/>
      <point x="484" y="0" type="curve" smooth="yes"/>
      <point x="378" y="0"/>
      <point x="320" y="55"/>
      <point x="320" y="162" type="curve" smooth="yes"/>
      <point x="320" y="277"/>
      <point x="386" y="353"/>
    </contour>
    <contour>
      <point x="563" y="1025" type="curve" smooth="yes"/>
      <point x="671" y="1025"/>
      <point x="732" y="969"/>
      <point x="732" y="863" type="curve" smooth="yes"/>
      <point x="732" y="748"/>
      <point x="663" y="672"/>
      <point x="544" y="672" type="curve" smooth="yes"/>
      <point x="438" y="672"/>
      <point x="380" y="727"/>
      <point x="380" y="834" type="curve" smooth="yes"/>
      <point x="380" y="949"/>
      <point x="446" y="1025"/>
    </contour>
  </outline>
</glyph>
<glyph name="less" format="1">
  <advance width="1184"/>
  <unicode hex="003C"/>
  <outline>
    <contour>
      <point x="1039" y="205" type="curve" smooth="yes"/>
      <point x="1039" y="153"/>
      <point x="992" y="126"/>
      <point x="936" y="126" type="curve" smooth="yes"/>
      <point x="771" y="126"/>
      <point x="629" y="229"/>
      <point x="493" y="275" type="curve" smooth="yes"/>
      <point x="300" y="340"/>
      <point x="58" y="388"/>
      <point x="58" y="626" type="curve" smooth="yes"/>
      <point x="58" y="798"/>
      <point x="274" y="827"/>
      <point x="394" y="880" type="curve" smooth="yes"/>
      <point x="576" y="960"/>
      <point x="785" y="1055"/>
      <point x="980" y="1118" type="curve" smooth="yes"/>
      <point x="995" y="1123"/>
      <point x="1009" y="1125"/>
      <point x="1024" y="1125" type="curve" smooth="yes"/>
      <point x="1104" y="1125"/>
      <point x="1134" y="1040"/>
      <point x="1134" y="962" type="curve" smooth="yes"/>
      <point x="1134" y="907"/>
      <point x="1100" y="885"/>
      <point x="1056" y="872" type="curve"/>
      <point x="254" y="613" type="line"/>
      <point x="909" y="373" type="line" smooth="yes"/>
      <point x="969" y="351"/>
      <point x="1039" y="287"/>
    </contour>
  </outline>
</glyph>
<glyph name="question" format="1">
  <advance width="1292"/>
  <unicode hex="003F"/>
  <outline>
    <contour>
      <point x="577" y="353" type="curve" smooth="yes"/>
      <point x="685" y="353"/>
      <point x="746" y="297"/>
      <point x="746" y="191" type="curve" smooth="yes"/>
      <point x="746" y="76"/>
      <point x="677" y="0"/>
      <point x="558" y="0" type="curve" smooth="yes"/>
      <point x="452" y="0"/>
      <point x="394" y="55"/>
      <point x="394" y="162" type="curve" smooth="yes"/>
      <point x="394" y="277"/>
      <point x="460" y="353"/>
    </contour>
    <contour>
      <point x="783" y="1602" type="curve" smooth="yes"/>
      <point x="991" y="1602"/>
      <point x="1161" y="1476"/>
      <point x="1161" y="1264" type="curve" smooth="yes"/>
      <point x="1161" y="933"/>
      <point x="951" y="848"/>
      <point x="785" y="686" type="curve" smooth="yes"/>
      <point x="755" y="657"/>
      <point x="727" y="624"/>
      <point x="711" y="584" type="curve" smooth="yes"/>
      <point x="692" y="536"/>
      <point x="664" y="486"/>
      <point x="608" y="486" type="curve" smooth="yes"/>
      <point x="562" y="486"/>
      <point x="520" y="504"/>
      <point x="520" y="550" type="curve" smooth="yes"/>
      <point x="520" y="854"/>
      <point x="782" y="917"/>
      <point x="888" y="1116" type="curve" smooth="yes"/>
      <point x="908" y="1153"/>
      <point x="917" y="1196"/>
      <point x="917" y="1245" type="curve" smooth="yes"/>
      <point x="917" y="1344"/>
      <point x="845" y="1399"/>
      <point x="747" y="1399" type="curve" smooth="yes"/>
      <point x="626" y="1399"/>
      <point x="625" y="1240"/>
      <point x="511" y="1240" type="curve" smooth="yes"/>
      <point x="448" y="1240"/>
      <point x="409" y="1306"/>
      <point x="409" y="1370" type="curve" smooth="yes"/>
      <point x="409" y="1512"/>
      <point x="642" y="1602"/>
    </contour>
  </outline>
</glyph>
<glyph name="H" format="1">
  <advance width="1926"/>
  <unicode hex="0048"/>
  <outline>
    <contour>
      <point x="387" y="1543" type="curve" smooth="yes"/>
      <point x="362" y="1543"/>
      <point x="251" y="1345"/>
      <point x="192" y="1345" type="curve" smooth="yes"/>
      <point x="169" y="1345"/>
      <point x="153" y="1374"/>
      <point x="153" y="1455" type="curve" smooth="yes"/>
      <point x="153" y="1637"/>
      <point x="298" y="1733"/>
      <point x="459" y="1733" type="curve" smooth="yes"/>
      <point x="661" y="1733"/>
      <point x="891" y="1580"/>
      <point x="891" y="1267" type="curve" smooth="yes"/>
      <point x="891" y="1144"/>
      <point x="848" y="1014"/>
      <point x="809" y="906" type="curve"/>
      <point x="958" y="905"/>
      <point x="1143" y="905"/>
      <point x="1300" y="904" type="curve"/>
      <point x="1370" y="1134"/>
      <point x="1455" y="1381"/>
      <point x="1543" y="1600" type="curve" smooth="yes"/>
      <point x="1568" y="1662"/>
      <point x="1613" y="1725"/>
      <point x="1692" y="1725" type="curve" smooth="yes"/>
      <point x="1757" y="1725"/>
      <point x="1799" y="1689"/>
      <point x="1799" y="1623" type="curve" smooth="yes"/>
      <point x="1799" y="1472"/>
      <point x="1722" y="1351"/>
      <point x="1678" y="1226" type="curve" smooth="yes"/>
      <point x="1643" y="1127"/>
      <point x="1607" y="1021"/>
      <point x="1575" y="919" type="curve"/>
      <point x="1658" y="931"/>
      <point x="1731" y="954"/>
      <point x="1804" y="954" type="curve" smooth="yes"/>
      <point x="1861" y="954"/>
      <point x="1890" y="928"/>
      <point x="1890" y="851" type="curve" smooth="yes"/>
      <point x="1890" y="741"/>
      <point x="1628" y="759"/>
      <point x="1525" y="750" type="curve"/>
      <point x="1463" y="532"/>
      <point x="1422" y="371"/>
      <point x="1422" y="275" type="curve" smooth="yes"/>
      <point x="1422" y="207"/>
      <point x="1443" y="171"/>
      <point x="1491" y="171" type="curve" smooth="yes"/>
      <point x="1742" y="171"/>
      <point x="1891" y="352"/>
      <point x="2025" y="488" type="curve" smooth="yes"/>
      <point x="2037" y="500"/>
      <point x="2052" y="506"/>
      <point x="2068" y="506" type="curve" smooth="yes"/>
      <point x="2104" y="506"/>
      <point x="2141" y="476"/>
      <point x="2141" y="420" type="curve" smooth="yes"/>
      <point x="2141" y="378"/>
      <point x="2126" y="315"/>
      <point x="2060" y="249" type="curve" smooth="yes"/>
      <point x="1927" y="115"/>
      <point x="1707" y="-64"/>
      <point x="1455" y="-64" type="curve" smooth="yes"/>
      <point x="1282" y="-64"/>
      <point x="1152" y="41"/>
      <point x="1152" y="217" type="curve" smooth="yes"/>
      <point x="1152" y="399"/>
      <point x="1207" y="591"/>
      <point x="1247" y="744" type="curve"/>
      <point x="1074" y="733"/>
      <point x="916" y="724"/>
      <point x="745" y="715" type="curve"/>
      <point x="664" y="527"/>
      <point x="581" y="339"/>
      <point x="493" y="161" type="curve" smooth="yes"/>
      <point x="437" y="46"/>
      <point x="353" y="-93"/>
      <point x="224" y="-93" type="curve" smooth="yes"/>
      <point x="165" y="-93"/>
      <point x="89" y="-54"/>
      <point x="89" y="-6" type="curve" smooth="yes"/>
      <point x="89" y="3"/>
      <point x="91" y="12"/>
      <point x="97" y="21" type="curve" smooth="yes"/>
      <point x="217" y="193"/>
      <point x="359" y="401"/>
      <point x="463" y="705" type="curve"/>
      <point x="273" y="705"/>
      <point x="103" y="772"/>
      <point x="103" y="935" type="curve" smooth="yes"/>
      <point x="103" y="964"/>
      <point x="113" y="979"/>
      <point x="134" y="979" type="curve" smooth="yes"/>
      <point x="176" y="979"/>
      <point x="206" y="929"/>
      <point x="235" y="893" type="curve"/>
      <point x="301" y="896"/>
      <point x="360" y="897"/>
      <point x="430" y="897" type="curve" smooth="yes"/>
      <point x="526" y="897" type="line"/>
      <point x="578" y="986"/>
      <point x="619" y="1117"/>
      <point x="619" y="1235" type="curve" smooth="yes"/>
      <point x="619" y="1400"/>
      <point x="560" y="1543"/>
    </contour>
  </outline>
</glyph>
<glyph name="I" format="1">
  <advance width="983"/>
  <unicode hex="0049"/>
  <outline>
    <contour>
      <point x="659" y="1484" type="curve"/>
      <point x="538" y="1471"/>
      <point x="446" y="1448"/>
      <point x="355" y="1402" type="curve"/>
      <point x="347" y="1402"/>
      <point x="347" y="1504"/>
      <point x="347" y="1533" type="curve" smooth="yes"/>
      <point x="347" y="1702"/>
      <point x="740" y="1730"/>
      <point x="925" y="1730" type="curve" smooth="yes"/>
      <point x="940" y="1730" type="line" smooth="yes"/>
      <point x="1065" y="1730"/>
      <point x="1204" y="1728"/>
      <point x="1204" y="1618" type="curve" smooth="yes"/>
      <point x="1204" y="1511"/>
      <point x="1109" y="1501"/>
      <point x="995" y="1501" type="curve" smooth="yes"/>
      <point x="973" y="1501"/>
      <point x="951" y="1502"/>
      <point x="929" y="1504" type="curve"/>
      <point x="813" y="1052"/>
      <point x="723" y="606"/>
      <point x="604" y="157" type="curve"/>
      <point x="684" y="157"/>
      <point x="858" y="128"/>
      <point x="858" y="50" type="curve" smooth="yes"/>
      <point x="858" y="22"/>
      <point x="834" y="-5"/>
      <point x="786" y="-32" type="curve"/>
      <point x="473" y="-32" type="line" smooth="yes"/>
      <point x="448" y="-32"/>
      <point x="330" y="-33"/>
      <point x="213" y="-33" type="curve" smooth="yes"/>
      <point x="81" y="-33"/>
      <point x="-50" y="-32"/>
      <point x="-50" y="-27" type="curve" smooth="yes"/>
      <point x="-50" y="-18"/>
      <point x="-4" y="17"/>
      <point x="4" y="29" type="curve" smooth="yes"/>
      <point x="25" y="62"/>
      <point x="9" y="83"/>
      <point x="52" y="104" type="curve" smooth="yes"/>
      <point x="119" y="136"/>
      <point x="223" y="156"/>
      <point x="314" y="163" type="curve"/>
      <point x="419" y="608"/>
      <point x="512" y="1075"/>
    </contour>
  </outline>
</glyph>
<glyph name="K" format="1">
  <advance width="1880"/>
  <unicode hex="004B"/>
  <outline>
    <contour>
      <point x="1532" y="-64" type="curve" smooth="yes"/>
      <point x="1084" y="-64"/>
      <point x="986" y="520"/>
      <point x="907" y="762" type="curve"/>
      <point x="812" y="372"/>
      <point x="657" y="-64"/>
      <point x="214" y="-64" type="curve" smooth="yes"/>
      <point x="121" y="-64"/>
      <point x="-96" y="-49"/>
      <point x="-96" y="36" type="curve" smooth="yes"/>
      <point x="-96" y="98"/>
      <point x="-31" y="196"/>
      <point x="31" y="196" type="curve" smooth="yes"/>
      <point x="78" y="196"/>
      <point x="122" y="160"/>
      <point x="179" y="160" type="curve" smooth="yes"/>
      <point x="491" y="160"/>
      <point x="594" y="599"/>
      <point x="653" y="864" type="curve" smooth="yes"/>
      <point x="696" y="1056"/>
      <point x="727" y="1274"/>
      <point x="749" y="1485" type="curve"/>
      <point x="761" y="1568" type="line"/>
      <point x="472" y="1568"/>
      <point x="260" y="1380"/>
      <point x="260" y="1097" type="curve" smooth="yes"/>
      <point x="260" y="1043"/>
      <point x="197" y="1024"/>
      <point x="136" y="1024" type="curve" smooth="yes"/>
      <point x="56" y="1024"/>
      <point x="-28" y="1040"/>
      <point x="-28" y="1111" type="curve" smooth="yes"/>
      <point x="-28" y="1120" type="line" smooth="yes"/>
      <point x="-28" y="1563"/>
      <point x="453" y="1728"/>
      <point x="895" y="1728" type="curve" smooth="yes"/>
      <point x="968" y="1728"/>
      <point x="1021" y="1702"/>
      <point x="1021" y="1632" type="curve" smooth="yes"/>
      <point x="1021" y="1409"/>
      <point x="994" y="1195"/>
      <point x="949" y="992" type="curve"/>
      <point x="1309" y="1210"/>
      <point x="1469" y="1332"/>
      <point x="1644" y="1536" type="curve" smooth="yes"/>
      <point x="1726" y="1632"/>
      <point x="1752" y="1707"/>
      <point x="1826" y="1707" type="curve" smooth="yes"/>
      <point x="1898" y="1707"/>
      <point x="1964" y="1660"/>
      <point x="1964" y="1589" type="curve" smooth="yes"/>
      <point x="1964" y="1553"/>
      <point x="1943" y="1511"/>
      <point x="1930" y="1481" type="curve" smooth="yes"/>
      <point x="1850" y="1304"/>
      <point x="1616" y="1085"/>
      <point x="1101" y="860" type="curve"/>
      <point x="1262" y="553"/>
      <point x="1360" y="156"/>
      <point x="1583" y="156" type="curve" smooth="yes"/>
      <point x="1584" y="156" type="line" smooth="yes"/>
      <point x="1710" y="156"/>
      <point x="1822" y="245"/>
      <point x="1899" y="306" type="curve" smooth="yes"/>
      <point x="1921" y="323"/>
      <point x="1939" y="330"/>
      <point x="1955" y="330" type="curve" smooth="yes"/>
      <point x="2008" y="330"/>
      <point x="2025" y="248"/>
      <point x="2025" y="189" type="curve" smooth="yes"/>
      <point x="2025" y="160"/>
      <point x="2021" y="136"/>
      <point x="2015" y="130" type="curve" smooth="yes"/>
      <point x="1888" y="15"/>
      <point x="1733" y="-64"/>
    </contour>
  </outline>
</glyph>
<glyph name="L" format="1">
  <advance width="1122"/>
  <unicode hex="004C"/>
  <outline>
    <contour>
      <point x="1033" y="1635" type="curve" smooth="yes"/>
      <point x="1033" y="1692"/>
      <point x="1022" y="1744"/>
      <point x="975" y="1744" type="curve" smooth="yes"/>
      <point x="909" y="1744"/>
      <point x="849" y="1667"/>
      <point x="810" y="1615" type="curve" smooth="yes"/>
      <point x="652" y="1407"/>
      <point x="521" y="1016"/>
      <point x="492" y="678" type="curve"/>
      <point x="674" y="867"/>
      <point x="885" y="1175"/>
      <point x="992" y="1435" type="curve" smooth="yes"/>
      <point x="1020" y="1503"/>
      <point x="1033" y="1553"/>
    </contour>
    <contour>
      <point x="-12" y="129" type="curve" smooth="yes"/>
      <point x="-66" y="129"/>
      <point x="-101" y="204"/>
      <point x="-101" y="260" type="curve" smooth="yes"/>
      <point x="-101" y="343"/>
      <point x="-15" y="368"/>
      <point x="41" y="405" type="curve" smooth="yes"/>
      <point x="100" y="444"/>
      <point x="169" y="492"/>
      <point x="227" y="534" type="curve"/>
      <point x="288" y="1048"/>
      <point x="445" y="1556"/>
      <point x="746" y="1820" type="curve" smooth="yes"/>
      <point x="828" y="1892"/>
      <point x="929" y="1962"/>
      <point x="1056" y="1962" type="curve" smooth="yes"/>
      <point x="1219" y="1962"/>
      <point x="1284" y="1826"/>
      <point x="1284" y="1658" type="curve" smooth="yes"/>
      <point x="1284" y="1407"/>
      <point x="1164" y="1209"/>
      <point x="1053" y="1050" type="curve" smooth="yes"/>
      <point x="907" y="840"/>
      <point x="695" y="562"/>
      <point x="474" y="426" type="curve"/>
      <point x="472" y="305"/>
      <point x="468" y="233"/>
      <point x="468" y="130" type="curve" smooth="yes"/>
      <point x="468" y="90"/>
      <point x="515" y="76"/>
      <point x="577" y="76" type="curve" smooth="yes"/>
      <point x="667" y="76"/>
      <point x="787" y="96"/>
      <point x="853" y="103" type="curve" smooth="yes"/>
      <point x="1178" y="139" type="line" smooth="yes"/>
      <point x="1187" y="141"/>
      <point x="1198" y="143"/>
      <point x="1209" y="143" type="curve" smooth="yes"/>
      <point x="1274" y="143"/>
      <point x="1306" y="92"/>
      <point x="1306" y="28" type="curve" smooth="yes"/>
      <point x="1306" y="-36"/>
      <point x="1266" y="-81"/>
      <point x="1210" y="-91" type="curve" smooth="yes"/>
      <point x="987" y="-131"/>
      <point x="756" y="-170"/>
      <point x="457" y="-170" type="curve" smooth="yes"/>
      <point x="271" y="-170"/>
      <point x="211" y="11"/>
      <point x="211" y="266" type="curve"/>
      <point x="154" y="224"/>
      <point x="105" y="191"/>
      <point x="65" y="166" type="curve" smooth="yes"/>
      <point x="25" y="141"/>
      <point x="-1" y="129"/>
    </contour>
  </outline>
</glyph>
<glyph name="M" format="1">
  <advance width="2201"/>
  <unicode hex="004D"/>
  <outline>
    <contour>
      <point x="1656" y="296" type="curve" smooth="yes"/>
      <point x="1656" y="662"/>
      <point x="1808" y="967"/>
      <point x="1808" y="1324" type="curve" smooth="yes"/>
      <point x="1808" y="1400"/>
      <point x="1793" y="1472"/>
      <point x="1721" y="1472" type="curve" smooth="yes"/>
      <point x="1490" y="1472"/>
      <point x="1231" y="369"/>
      <point x="1188" y="102" type="curve" smooth="yes"/>
      <point x="1176" y="27"/>
      <point x="1119" y="-6"/>
      <point x="1062" y="-6" type="curve" smooth="yes"/>
      <point x="998" y="-6"/>
      <point x="918" y="40"/>
      <point x="918" y="121" type="curve" smooth="yes"/>
      <point x="918" y="129"/>
      <point x="919" y="136"/>
      <point x="920" y="144" type="curve" smooth="yes"/>
      <point x="968" y="413"/>
      <point x="1085" y="1015"/>
      <point x="1085" y="1247" type="curve" smooth="yes"/>
      <point x="1085" y="1346"/>
      <point x="1082" y="1474"/>
      <point x="1002" y="1474" type="curve" smooth="yes"/>
      <point x="819" y="1474"/>
      <point x="517" y="587"/>
      <point x="460" y="304" type="curve" smooth="yes"/>
      <point x="431" y="160"/>
      <point x="406" y="-1"/>
      <point x="275" y="-1" type="curve" smooth="yes"/>
      <point x="208" y="-1"/>
      <point x="128" y="22"/>
      <point x="128" y="79" type="curve" smooth="yes"/>
      <point x="128" y="187"/>
      <point x="201" y="456"/>
      <point x="230" y="640" type="curve" smooth="yes"/>
      <point x="240" y="704"/>
      <point x="302" y="1134"/>
      <point x="302" y="1368" type="curve" smooth="yes"/>
      <point x="302" y="1457"/>
      <point x="292" y="1518"/>
      <point x="268" y="1518" type="curve" smooth="yes"/>
      <point x="205" y="1518"/>
      <point x="115" y="1323"/>
      <point x="39" y="1138" type="curve"/>
      <point x="34" y="1130"/>
      <point x="26" y="1127"/>
      <point x="15" y="1127" type="curve" smooth="yes"/>
      <point x="-35" y="1127"/>
      <point x="-128" y="1203"/>
      <point x="-128" y="1266" type="curve" smooth="yes"/>
      <point x="-128" y="1279"/>
      <point x="-126" y="1293"/>
      <point x="-120" y="1308" type="curve" smooth="yes"/>
      <point x="-30" y="1536"/>
      <point x="130" y="1702"/>
      <point x="299" y="1702" type="curve" smooth="yes"/>
      <point x="475" y="1702"/>
      <point x="510" y="1555"/>
      <point x="510" y="1377" type="curve" smooth="yes"/>
      <point x="510" y="1267"/>
      <point x="508" y="1157"/>
      <point x="506" y="1051" type="curve"/>
      <point x="585" y="1294"/>
      <point x="774" y="1724"/>
      <point x="1067" y="1724" type="curve" smooth="yes"/>
      <point x="1229" y="1724"/>
      <point x="1315" y="1587"/>
      <point x="1315" y="1439" type="curve" smooth="yes"/>
      <point x="1315" y="1385"/>
      <point x="1254" y="1043"/>
      <point x="1254" y="1043" type="curve"/>
      <point x="1329" y="1336"/>
      <point x="1476" y="1730"/>
      <point x="1821" y="1730" type="curve" smooth="yes"/>
      <point x="1981" y="1730"/>
      <point x="2073" y="1564"/>
      <point x="2073" y="1376" type="curve" smooth="yes"/>
      <point x="2073" y="1344"/>
      <point x="2071" y="1311"/>
      <point x="2065" y="1278" type="curve" smooth="yes"/>
      <point x="2010" y="971"/>
      <point x="1972" y="716"/>
      <point x="1924" y="448" type="curve" smooth="yes"/>
      <point x="1916" y="405"/>
      <point x="1912" y="367"/>
      <point x="1912" y="336" type="curve" smooth="yes"/>
      <point x="1912" y="267"/>
      <point x="1933" y="224"/>
      <point x="1996" y="224" type="curve" smooth="yes"/>
      <point x="2098" y="224"/>
      <point x="2180" y="316"/>
      <point x="2233" y="371" type="curve" smooth="yes"/>
      <point x="2275" y="414"/>
      <point x="2321" y="460"/>
      <point x="2359" y="518" type="curve" smooth="yes"/>
      <point x="2385" y="556"/>
      <point x="2408" y="579"/>
      <point x="2429" y="579" type="curve" smooth="yes"/>
      <point x="2450" y="579"/>
      <point x="2466" y="558"/>
      <point x="2466" y="516" type="curve" smooth="yes"/>
      <point x="2466" y="473"/>
      <point x="2454" y="406"/>
      <point x="2406" y="321" type="curve" smooth="yes"/>
      <point x="2316" y="162"/>
      <point x="2178" y="0"/>
      <point x="1941" y="0" type="curve" smooth="yes"/>
      <point x="1769" y="0"/>
      <point x="1656" y="121"/>
    </contour>
  </outline>
</glyph>
<glyph name="N" format="1">
  <advance width="1693"/>
  <unicode hex="004E"/>
  <outline>
    <contour>
      <point x="1212" y="1327" type="curve" smooth="yes"/>
      <point x="1212" y="1394"/>
      <point x="1200" y="1474"/>
      <point x="1122" y="1474" type="curve" smooth="yes"/>
      <point x="852" y="1474"/>
      <point x="571" y="360"/>
      <point x="473" y="85" type="curve" smooth="yes"/>
      <point x="451" y="23"/>
      <point x="403" y="-14"/>
      <point x="327" y="-14" type="curve" smooth="yes"/>
      <point x="250" y="-14"/>
      <point x="189" y="53"/>
      <point x="189" y="128" type="curve" smooth="yes"/>
      <point x="189" y="137"/>
      <point x="190" y="145"/>
      <point x="192" y="154" type="curve" smooth="yes"/>
      <point x="275" y="584"/>
      <point x="358" y="930"/>
      <point x="390" y="1391" type="curve"/>
      <point x="390" y="1414" type="line" smooth="yes"/>
      <point x="390" y="1442"/>
      <point x="383" y="1471"/>
      <point x="354" y="1471" type="curve" smooth="yes"/>
      <point x="291" y="1471"/>
      <point x="237" y="1377"/>
      <point x="212" y="1339" type="curve" smooth="yes"/>
      <point x="181" y="1292"/>
      <point x="145" y="1196"/>
      <point x="79" y="1196" type="curve" smooth="yes"/>
      <point x="44" y="1196"/>
      <point x="-2" y="1241"/>
      <point x="-2" y="1275" type="curve" smooth="yes"/>
      <point x="-2" y="1456"/>
      <point x="183" y="1696"/>
      <point x="360" y="1696" type="curve" smooth="yes"/>
      <point x="543" y="1696"/>
      <point x="614" y="1585"/>
      <point x="614" y="1402" type="curve" smooth="yes"/>
      <point x="614" y="1174"/>
      <point x="531" y="734"/>
      <point x="537" y="731" type="curve"/>
      <point x="648" y="1103"/>
      <point x="783" y="1728"/>
      <point x="1223" y="1728" type="curve" smooth="yes"/>
      <point x="1398" y="1728"/>
      <point x="1473" y="1578"/>
      <point x="1473" y="1427" type="curve" smooth="yes"/>
      <point x="1473" y="1088"/>
      <point x="1312" y="815"/>
      <point x="1312" y="467" type="curve" smooth="yes"/>
      <point x="1312" y="339"/>
      <point x="1332" y="191"/>
      <point x="1460" y="191" type="curve" smooth="yes"/>
      <point x="1650" y="191"/>
      <point x="1813" y="388"/>
      <point x="1902" y="494" type="curve" smooth="yes"/>
      <point x="1916" y="510"/>
      <point x="1923" y="519"/>
      <point x="1923" y="520" type="curve" smooth="yes"/>
      <point x="1983" y="303" type="line"/>
      <point x="1865" y="144"/>
      <point x="1662" y="-41"/>
      <point x="1395" y="-41" type="curve" smooth="yes"/>
      <point x="1154" y="-41"/>
      <point x="1041" y="168"/>
      <point x="1041" y="413" type="curve" smooth="yes"/>
      <point x="1041" y="726"/>
      <point x="1149" y="956"/>
      <point x="1200" y="1208" type="curve" smooth="yes"/>
      <point x="1208" y="1249"/>
      <point x="1212" y="1289"/>
    </contour>
  </outline>
</glyph>
<glyph name="P" format="1">
  <advance width="1551"/>
  <unicode hex="0050"/>
  <outline>
    <contour>
      <point x="1567" y="1303" type="curve" smooth="yes"/>
      <point x="1567" y="1563"/>
      <point x="1304" y="1648"/>
      <point x="985" y="1648" type="curve" smooth="yes"/>
      <point x="546" y="1648"/>
      <point x="388" y="1173"/>
      <point x="388" y="753" type="curve" smooth="yes"/>
      <point x="388" y="486"/>
      <point x="374" y="-21"/>
      <point x="558" y="-21" type="curve" smooth="yes"/>
      <point x="777" y="-21"/>
      <point x="747" y="342"/>
      <point x="782" y="627" type="curve" smooth="yes"/>
      <point x="795" y="734" type="line"/>
      <point x="683" y="779"/>
      <point x="556" y="807"/>
      <point x="556" y="948" type="curve" smooth="yes"/>
      <point x="556" y="991"/>
      <point x="556" y="1045"/>
      <point x="599" y="1045" type="curve" smooth="yes"/>
      <point x="661" y="1045"/>
      <point x="726" y="983"/>
      <point x="785" y="970" type="curve"/>
      <point x="785" y="1168"/>
      <point x="814" y="1416"/>
      <point x="1012" y="1416" type="curve" smooth="yes"/>
      <point x="1071" y="1416"/>
      <point x="1120" y="1393"/>
      <point x="1120" y="1333" type="curve" smooth="yes"/>
      <point x="1120" y="1324"/>
      <point x="1119" y="1324"/>
      <point x="1119" y="1317" type="curve"/>
      <point x="1058" y="1060" type="line"/>
      <point x="1049" y="981" type="line"/>
      <point x="1306" y="1010"/>
      <point x="1567" y="1100"/>
    </contour>
    <contour>
      <point x="120" y="727" type="curve" smooth="yes"/>
      <point x="120" y="1319"/>
      <point x="412" y="1883"/>
      <point x="1008" y="1883" type="curve" smooth="yes"/>
      <point x="1450" y="1883"/>
      <point x="1802" y="1696"/>
      <point x="1802" y="1316" type="curve" smooth="yes"/>
      <point x="1802" y="973"/>
      <point x="1427" y="794"/>
      <point x="1043" y="746" type="curve"/>
      <point x="1045" y="746"/>
      <point x="1025" y="475"/>
      <point x="1013" y="373" type="curve" smooth="yes"/>
      <point x="971" y="24"/>
      <point x="853" y="-255"/>
      <point x="536" y="-255" type="curve" smooth="yes"/>
      <point x="189" y="-255"/>
      <point x="120" y="344"/>
    </contour>
  </outline>
</glyph>
<glyph name="R" format="1">
  <advance width="1820"/>
  <unicode hex="0052"/>
  <outline>
    <contour>
      <point x="809" y="976" type="curve"/>
      <point x="815" y="1108"/>
      <point x="840" y="1281"/>
      <point x="986" y="1281" type="curve" smooth="yes"/>
      <point x="1049" y="1281"/>
      <point x="1075" y="1253"/>
      <point x="1075" y="1197" type="curve" smooth="yes"/>
      <point x="1075" y="1188" type="line"/>
      <point x="1073" y="1113"/>
      <point x="1053" y="1032"/>
      <point x="1044" y="950" type="curve"/>
      <point x="1306" y="956"/>
      <point x="1586" y="1018"/>
      <point x="1586" y="1252" type="curve" smooth="yes"/>
      <point x="1586" y="1422"/>
      <point x="1409" y="1494"/>
      <point x="1224" y="1494" type="curve" smooth="yes"/>
      <point x="644" y="1494"/>
      <point x="340" y="1054"/>
      <point x="340" y="489" type="curve" smooth="yes"/>
      <point x="340" y="289"/>
      <point x="394" y="42"/>
      <point x="587" y="42" type="curve" smooth="yes"/>
      <point x="775" y="42"/>
      <point x="780" y="574"/>
      <point x="780" y="764" type="curve"/>
      <point x="711" y="796"/>
      <point x="620" y="830"/>
      <point x="620" y="909" type="curve" smooth="yes"/>
      <point x="620" y="946"/>
      <point x="629" y="992"/>
      <point x="673" y="992" type="curve" smooth="yes"/>
      <point x="717" y="992"/>
      <point x="768" y="977"/>
    </contour>
    <contour>
      <point x="2068" y="93" type="line"/>
      <point x="1937" y="8"/>
      <point x="1776" y="-96"/>
      <point x="1558" y="-96" type="curve" smooth="yes"/>
      <point x="1185" y="-96"/>
      <point x="1272" y="503"/>
      <point x="1124" y="705" type="curve" smooth="yes"/>
      <point x="1107" y="728"/>
      <point x="1087" y="739"/>
      <point x="1063" y="739" type="curve" smooth="yes"/>
      <point x="1004" y="739" type="line"/>
      <point x="973" y="404"/>
      <point x="941" y="37"/>
      <point x="747" y="-127" type="curve" smooth="yes"/>
      <point x="696" y="-171"/>
      <point x="634" y="-192"/>
      <point x="561" y="-192" type="curve" smooth="yes"/>
      <point x="210" y="-192"/>
      <point x="74" y="201"/>
      <point x="74" y="541" type="curve" smooth="yes"/>
      <point x="74" y="1141"/>
      <point x="448" y="1545"/>
      <point x="918" y="1683" type="curve" smooth="yes"/>
      <point x="1020" y="1713"/>
      <point x="1128" y="1728"/>
      <point x="1242" y="1728" type="curve" smooth="yes"/>
      <point x="1558" y="1728"/>
      <point x="1854" y="1572"/>
      <point x="1854" y="1261" type="curve" smooth="yes"/>
      <point x="1854" y="942"/>
      <point x="1527" y="798"/>
      <point x="1223" y="774" type="curve"/>
      <point x="1409" y="695"/>
      <point x="1462" y="518"/>
      <point x="1508" y="303" type="curve" smooth="yes"/>
      <point x="1524" y="228"/>
      <point x="1545" y="138"/>
      <point x="1625" y="138" type="curve" smooth="yes"/>
      <point x="1760" y="138"/>
      <point x="1873" y="228"/>
      <point x="1946" y="299" type="curve"/>
    </contour>
  </outline>
</glyph>
<glyph name="T" format="1">
  <advance width="1366"/>
  <unicode hex="0054"/>
  <outline>
    <contour>
      <point x="147" y="1232" type="curve" smooth="yes"/>
      <point x="53" y="1232"/>
      <point x="-14" y="1277"/>
      <point x="-14" y="1360" type="curve" smooth="yes"/>
      <point x="-14" y="1749"/>
      <point x="534" y="1758"/>
      <point x="933" y="1758" type="curve" smooth="yes"/>
      <point x="1251" y="1758"/>
      <point x="1545" y="1740"/>
      <point x="1835" y="1693" type="curve" smooth="yes"/>
      <point x="1887" y="1685"/>
      <point x="1922" y="1654"/>
      <point x="1922" y="1599" type="curve" smooth="yes"/>
      <point x="1922" y="1541"/>
      <point x="1871" y="1482"/>
      <point x="1812" y="1490" type="curve" smooth="yes"/>
      <point x="1536" y="1525"/>
      <point x="1268" y="1539"/>
      <point x="983" y="1551" type="curve"/>
      <point x="854" y="963"/>
      <point x="762" y="557"/>
      <point x="653" y="82" type="curve" smooth="yes"/>
      <point x="636" y="16"/>
      <point x="580" y="-74"/>
      <point x="498" y="-74" type="curve" smooth="yes"/>
      <point x="421" y="-74"/>
      <point x="367" y="-39"/>
      <point x="367" y="40" type="curve" smooth="yes"/>
      <point x="367" y="53"/>
      <point x="369" y="67"/>
      <point x="373" y="82" type="curve" smooth="yes"/>
      <point x="484" y="505"/>
      <point x="616" y="997"/>
      <point x="761" y="1551" type="curve"/>
      <point x="595" y="1538"/>
      <point x="307" y="1534"/>
      <point x="307" y="1360" type="curve" smooth="yes"/>
      <point x="307" y="1277"/>
      <point x="239" y="1232"/>
    </contour>
  </outline>
</glyph>
<glyph name="U" format="1">
  <advance width="1592"/>
  <unicode hex="0055"/>
  <outline>
    <contour>
      <point x="442" y="578" type="curve" smooth="yes"/>
      <point x="442" y="176"/>
      <point x="549" y="64"/>
      <point x="731" y="64" type="curve" smooth="yes"/>
      <point x="1212" y="64"/>
      <point x="1304" y="1124"/>
      <point x="1328" y="1568" type="curve" smooth="yes"/>
      <point x="1334" y="1677"/>
      <point x="1390" y="1728"/>
      <point x="1503" y="1728" type="curve" smooth="yes"/>
      <point x="1589" y="1728"/>
      <point x="1616" y="1681"/>
      <point x="1616" y="1593" type="curve" smooth="yes"/>
      <point x="1616" y="940"/>
      <point x="1484" y="373"/>
      <point x="1160" y="48" type="curve" smooth="yes"/>
      <point x="1048" y="-65"/>
      <point x="901" y="-160"/>
      <point x="700" y="-160" type="curve" smooth="yes"/>
      <point x="295" y="-160"/>
      <point x="176" y="183"/>
      <point x="176" y="588" type="curve" smooth="yes"/>
      <point x="176" y="923"/>
      <point x="258" y="1222"/>
      <point x="346" y="1472" type="curve" smooth="yes"/>
      <point x="375" y="1556"/>
      <point x="399" y="1632"/>
      <point x="500" y="1632" type="curve" smooth="yes"/>
      <point x="588" y="1632"/>
      <point x="657" y="1625"/>
      <point x="657" y="1537" type="curve" smooth="yes"/>
      <point x="657" y="1529" type="line"/>
      <point x="603" y="1225"/>
      <point x="442" y="948"/>
    </contour>
  </outline>
</glyph>
<glyph name="V" format="1">
  <advance width="1236"/>
  <unicode hex="0056"/>
  <outline>
    <contour>
      <point x="402" y="-33" type="curve" smooth="yes"/>
      <point x="197" y="-33"/>
      <point x="180" y="166"/>
      <point x="180" y="363" type="curve" smooth="yes"/>
      <point x="180" y="403"/>
      <point x="181" y="442"/>
      <point x="181" y="480" type="curve" smooth="yes"/>
      <point x="181" y="788"/>
      <point x="121" y="1113"/>
      <point x="121" y="1436" type="curve" smooth="yes"/>
      <point x="121" y="1544"/>
      <point x="159" y="1599"/>
      <point x="262" y="1599" type="curve" smooth="yes"/>
      <point x="358" y="1599"/>
      <point x="379" y="1544"/>
      <point x="383" y="1449" type="curve" smooth="yes"/>
      <point x="427" y="260" type="line"/>
      <point x="1078" y="1510" type="line"/>
      <point x="1098" y="1578"/>
      <point x="1169" y="1630"/>
      <point x="1256" y="1630" type="curve" smooth="yes"/>
      <point x="1310" y="1630"/>
      <point x="1333" y="1574"/>
      <point x="1333" y="1516" type="curve" smooth="yes"/>
      <point x="1333" y="1378"/>
      <point x="1244" y="1235"/>
      <point x="1190" y="1124" type="curve" smooth="yes"/>
      <point x="1106" y="952"/>
      <point x="1012" y="773"/>
      <point x="922" y="608" type="curve" smooth="yes"/>
      <point x="908" y="581"/>
      <point x="898" y="548"/>
      <point x="898" y="510" type="curve" smooth="yes"/>
      <point x="898" y="373"/>
      <point x="1013" y="311"/>
      <point x="1155" y="311" type="curve" smooth="yes"/>
      <point x="1220" y="311"/>
      <point x="1276" y="364"/>
      <point x="1317" y="393" type="curve"/>
      <point x="1349" y="417"/>
      <point x="1382" y="444"/>
      <point x="1416" y="475" type="curve"/>
      <point x="1393" y="268" type="line"/>
      <point x="1309" y="201"/>
      <point x="1199" y="123"/>
      <point x="1073" y="123" type="curve" smooth="yes"/>
      <point x="902" y="123"/>
      <point x="788" y="213"/>
      <point x="788" y="383" type="curve" smooth="yes"/>
      <point x="788" y="403"/>
      <point x="790" y="425"/>
      <point x="794" y="448" type="curve"/>
      <point x="718" y="270"/>
      <point x="642" y="69"/>
      <point x="491" y="-10" type="curve" smooth="yes"/>
      <point x="461" y="-26"/>
      <point x="431" y="-33"/>
    </contour>
  </outline>
</glyph>
<glyph name="Y" format="1">
  <advance width="1461"/>
  <unicode hex="0059"/>
  <outline>
    <contour>
      <point x="18" y="1151" type="curve" smooth="yes"/>
      <point x="12" y="1151"/>
      <point x="-101" y="1238"/>
      <point x="-101" y="1353" type="curve" smooth="yes"/>
      <point x="-101" y="1497"/>
      <point x="66" y="1642"/>
      <point x="231" y="1642" type="curve" smooth="yes"/>
      <point x="662" y="1642"/>
      <point x="808" y="1360"/>
      <point x="907" y="1110" type="curve" smooth="yes"/>
      <point x="1023" y="816" type="line"/>
      <point x="1154" y="1076"/>
      <point x="1274" y="1351"/>
      <point x="1400" y="1607" type="curve" smooth="yes"/>
      <point x="1417" y="1641"/>
      <point x="1471" y="1661"/>
      <point x="1522" y="1661" type="curve" smooth="yes"/>
      <point x="1591" y="1661"/>
      <point x="1634" y="1620"/>
      <point x="1634" y="1550" type="curve" smooth="yes"/>
      <point x="1634" y="1463"/>
      <point x="1580" y="1392"/>
      <point x="1543" y="1310" type="curve" smooth="yes"/>
      <point x="1329" y="831"/>
      <point x="1069" y="269"/>
      <point x="717" y="-60" type="curve" smooth="yes"/>
      <point x="651" y="-122"/>
      <point x="581" y="-163"/>
      <point x="463" y="-163" type="curve" smooth="yes"/>
      <point x="343" y="-163"/>
      <point x="166" y="-66"/>
      <point x="166" y="34" type="curve" smooth="yes"/>
      <point x="166" y="93"/>
      <point x="214" y="132"/>
      <point x="273" y="132" type="curve" smooth="yes"/>
      <point x="343" y="132"/>
      <point x="367" y="1"/>
      <point x="439" y="1" type="curve" smooth="yes"/>
      <point x="568" y="1"/>
      <point x="777" y="363"/>
      <point x="873" y="597" type="curve"/>
      <point x="752" y="842"/>
      <point x="503" y="1427"/>
      <point x="180" y="1427" type="curve" smooth="yes"/>
      <point x="108" y="1427"/>
      <point x="62" y="1344"/>
      <point x="62" y="1297" type="curve" smooth="yes"/>
      <point x="62" y="1288"/>
      <point x="64" y="1280"/>
      <point x="64" y="1268" type="curve" smooth="yes"/>
      <point x="64" y="1223"/>
      <point x="51" y="1151"/>
    </contour>
  </outline>
</glyph>
<glyph name="a" format="1">
  <advance width="928"/>
  <unicode hex="0061"/>
  <outline>
    <contour>
      <point x="320" y="324" type="curve" smooth="yes"/>
      <point x="320" y="260"/>
      <point x="334" y="192"/>
      <point x="398" y="192" type="curve" smooth="yes"/>
      <point x="506" y="192"/>
      <point x="551" y="380"/>
      <point x="570" y="474" type="curve" smooth="yes"/>
      <point x="631" y="768" type="line"/>
      <point x="444" y="768"/>
      <point x="320" y="508"/>
    </contour>
    <contour>
      <point x="800" y="324" type="curve" smooth="yes"/>
      <point x="800" y="275"/>
      <point x="802" y="224"/>
      <point x="845" y="224" type="curve" smooth="yes"/>
      <point x="938" y="224"/>
      <point x="1015" y="335"/>
      <point x="1062" y="399" type="curve" smooth="yes"/>
      <point x="1077" y="416"/>
      <point x="1091" y="424"/>
      <point x="1103" y="424" type="curve" smooth="yes"/>
      <point x="1144" y="424"/>
      <point x="1168" y="342"/>
      <point x="1168" y="287" type="curve" smooth="yes"/>
      <point x="1168" y="272"/>
      <point x="1166" y="258"/>
      <point x="1162" y="250" type="curve"/>
      <point x="1094" y="150"/>
      <point x="970" y="0"/>
      <point x="813" y="0" type="curve" smooth="yes"/>
      <point x="707" y="0"/>
      <point x="661" y="74"/>
      <point x="627" y="161" type="curve"/>
      <point x="563" y="86"/>
      <point x="450" y="0"/>
      <point x="315" y="0" type="curve" smooth="yes"/>
      <point x="160" y="0"/>
      <point x="64" y="123"/>
      <point x="64" y="281" type="curve" smooth="yes"/>
      <point x="64" y="583"/>
      <point x="257" y="834"/>
      <point x="468" y="928" type="curve" smooth="yes"/>
      <point x="512" y="948"/>
      <point x="557" y="958"/>
      <point x="603" y="958" type="curve" smooth="yes"/>
      <point x="676" y="958"/>
      <point x="663" y="882"/>
      <point x="747" y="882" type="curve" smooth="yes"/>
      <point x="762" y="882"/>
      <point x="777" y="883"/>
      <point x="792" y="883" type="curve" smooth="yes"/>
      <point x="849" y="883"/>
      <point x="864" y="849"/>
      <point x="864" y="790" type="curve" smooth="yes"/>
      <point x="864" y="627"/>
      <point x="800" y="490"/>
    </contour>
  </outline>
</glyph>
<glyph name="b" format="1">
  <advance width="964"/>
  <unicode hex="0062"/>
  <outline>
    <contour>
      <point x="346" y="895" type="curve"/>
      <point x="464" y="1122"/>
      <point x="666" y="1330"/>
      <point x="666" y="1648" type="curve" smooth="yes"/>
      <point x="666" y="1683"/>
      <point x="651" y="1728"/>
      <point x="615" y="1728" type="curve" smooth="yes"/>
      <point x="457" y="1728"/>
      <point x="369" y="1019"/>
    </contour>
    <contour>
      <point x="698" y="607" type="curve" smooth="yes"/>
      <point x="698" y="692"/>
      <point x="655" y="732"/>
      <point x="568" y="732" type="curve" smooth="yes"/>
      <point x="345" y="732"/>
      <point x="332" y="431"/>
      <point x="314" y="225" type="curve"/>
      <point x="369" y="208"/>
      <point x="433" y="192"/>
      <point x="502" y="192" type="curve" smooth="yes"/>
      <point x="653" y="192"/>
      <point x="698" y="450"/>
    </contour>
    <contour>
      <point x="858" y="1591" type="curve" smooth="yes"/>
      <point x="858" y="1264"/>
      <point x="618" y="1005"/>
      <point x="462" y="816" type="curve"/>
      <point x="478" y="805" type="line"/>
      <point x="527" y="867"/>
      <point x="589" y="960"/>
      <point x="673" y="960" type="curve" smooth="yes"/>
      <point x="854" y="960"/>
      <point x="924" y="799"/>
      <point x="924" y="618" type="curve" smooth="yes"/>
      <point x="924" y="482"/>
      <point x="888" y="363"/>
      <point x="826" y="288" type="curve"/>
      <point x="940" y="352"/>
      <point x="1045" y="407"/>
      <point x="1137" y="496" type="curve"/>
      <point x="1146" y="500"/>
      <point x="1155" y="503"/>
      <point x="1163" y="503" type="curve" smooth="yes"/>
      <point x="1204" y="503"/>
      <point x="1235" y="455"/>
      <point x="1235" y="406" type="curve" smooth="yes"/>
      <point x="1235" y="379"/>
      <point x="1226" y="351"/>
      <point x="1204" y="331" type="curve"/>
      <point x="1068" y="222"/>
      <point x="930" y="142"/>
      <point x="730" y="96" type="curve"/>
      <point x="668" y="37"/>
      <point x="590" y="2"/>
      <point x="482" y="2" type="curve" smooth="yes"/>
      <point x="317" y="2"/>
      <point x="176" y="69"/>
      <point x="76" y="137" type="curve" smooth="yes"/>
      <point x="64" y="145"/>
      <point x="59" y="150"/>
      <point x="58" y="152" type="curve"/>
      <point x="76" y="638"/>
      <point x="165" y="1123"/>
      <point x="300" y="1512" type="curve" smooth="yes"/>
      <point x="352" y="1661"/>
      <point x="443" y="1920"/>
      <point x="624" y="1920" type="curve" smooth="yes"/>
      <point x="818" y="1920"/>
      <point x="858" y="1784"/>
    </contour>
  </outline>
</glyph>
<glyph name="c" format="1">
  <advance width="756"/>
  <unicode hex="0063"/>
  <outline>
    <contour>
      <point x="474" y="960" type="curve" smooth="yes"/>
      <point x="633" y="960"/>
      <point x="768" y="877"/>
      <point x="768" y="739" type="curve" smooth="yes"/>
      <point x="768" y="681"/>
      <point x="725" y="649"/>
      <point x="678" y="649" type="curve" smooth="yes"/>
      <point x="578" y="649"/>
      <point x="591" y="784"/>
      <point x="464" y="784" type="curve" smooth="yes"/>
      <point x="403" y="784"/>
      <point x="320" y="682"/>
      <point x="320" y="414" type="curve" smooth="yes"/>
      <point x="320" y="296"/>
      <point x="360" y="192"/>
      <point x="480" y="192" type="curve" smooth="yes"/>
      <point x="659" y="192"/>
      <point x="771" y="343"/>
      <point x="855" y="447" type="curve" smooth="yes"/>
      <point x="873" y="469"/>
      <point x="888" y="477"/>
      <point x="901" y="477" type="curve" smooth="yes"/>
      <point x="927" y="477"/>
      <point x="952" y="418"/>
      <point x="952" y="379" type="curve" smooth="yes"/>
      <point x="952" y="353"/>
      <point x="946" y="327"/>
      <point x="934" y="310" type="curve" smooth="yes"/>
      <point x="857" y="200"/>
      <point x="685" y="0"/>
      <point x="437" y="0" type="curve" smooth="yes"/>
      <point x="199" y="0"/>
      <point x="64" y="177"/>
      <point x="64" y="413" type="curve" smooth="yes"/>
      <point x="64" y="682"/>
      <point x="209" y="960"/>
    </contour>
  </outline>
</glyph>
<glyph name="g" format="1">
  <advance width="869"/>
  <unicode hex="0067"/>
  <outline>
    <contour>
      <point x="126" y="-736" type="curve" smooth="yes"/>
      <point x="322" y="-736"/>
      <point x="402" y="-417"/>
      <point x="434" y="-256" type="curve"/>
      <point x="302" y="-344"/>
      <point x="166" y="-489"/>
      <point x="101" y="-641" type="curve" smooth="yes"/>
      <point x="91" y="-664"/>
      <point x="86" y="-684"/>
      <point x="86" y="-699" type="curve" smooth="yes"/>
      <point x="86" y="-724"/>
      <point x="99" y="-736"/>
    </contour>
    <contour>
      <point x="274" y="324" type="curve" smooth="yes"/>
      <point x="274" y="260"/>
      <point x="288" y="192"/>
      <point x="352" y="192" type="curve" smooth="yes"/>
      <point x="460" y="192"/>
      <point x="505" y="380"/>
      <point x="524" y="474" type="curve" smooth="yes"/>
      <point x="585" y="768" type="line"/>
      <point x="398" y="768"/>
      <point x="274" y="508"/>
    </contour>
    <contour>
      <point x="114" y="-928" type="curve" smooth="yes"/>
      <point x="-22" y="-928"/>
      <point x="-110" y="-870"/>
      <point x="-110" y="-729" type="curve" smooth="yes"/>
      <point x="-110" y="-588"/>
      <point x="-1" y="-466"/>
      <point x="71" y="-378" type="curve" smooth="yes"/>
      <point x="186" y="-237"/>
      <point x="326" y="-104"/>
      <point x="468" y="12" type="curve"/>
      <point x="495" y="105" type="line"/>
      <point x="439" y="55"/>
      <point x="361" y="-2"/>
      <point x="269" y="-2" type="curve" smooth="yes"/>
      <point x="115" y="-2"/>
      <point x="18" y="123"/>
      <point x="18" y="281" type="curve" smooth="yes"/>
      <point x="18" y="583"/>
      <point x="211" y="834"/>
      <point x="422" y="928" type="curve" smooth="yes"/>
      <point x="466" y="948"/>
      <point x="511" y="958"/>
      <point x="557" y="958" type="curve" smooth="yes"/>
      <point x="630" y="958"/>
      <point x="617" y="882"/>
      <point x="701" y="882" type="curve" smooth="yes"/>
      <point x="716" y="882"/>
      <point x="731" y="883"/>
      <point x="746" y="883" type="curve" smooth="yes"/>
      <point x="803" y="883"/>
      <point x="818" y="849"/>
      <point x="818" y="790" type="curve" smooth="yes"/>
      <point x="818" y="561"/>
      <point x="762" y="358"/>
      <point x="722" y="144" type="curve"/>
      <point x="857" y="221"/>
      <point x="947" y="342"/>
      <point x="1040" y="477" type="curve" smooth="yes"/>
      <point x="1044" y="482"/>
      <point x="1049" y="485"/>
      <point x="1054" y="485" type="curve" smooth="yes"/>
      <point x="1081" y="485"/>
      <point x="1119" y="422"/>
      <point x="1119" y="352" type="curve" smooth="yes"/>
      <point x="1119" y="319"/>
      <point x="1110" y="285"/>
      <point x="1088" y="255" type="curve" smooth="yes"/>
      <point x="987" y="122"/>
      <point x="834" y="9"/>
      <point x="690" y="-78" type="curve"/>
      <point x="633" y="-421"/>
      <point x="538" y="-780"/>
      <point x="271" y="-898" type="curve" smooth="yes"/>
      <point x="224" y="-918"/>
      <point x="171" y="-928"/>
    </contour>
  </outline>
</glyph>
<glyph name="h" format="1">
  <advance width="999"/>
  <unicode hex="0068"/>
  <outline>
    <contour>
      <point x="314" y="710" type="curve"/>
      <point x="431" y="983"/>
      <point x="622" y="1295"/>
      <point x="622" y="1653" type="curve" smooth="yes"/>
      <point x="622" y="1704"/>
      <point x="615" y="1729"/>
      <point x="602" y="1729" type="curve" smooth="yes"/>
      <point x="523" y="1729"/>
      <point x="470" y="1507"/>
      <point x="435" y="1397" type="curve" smooth="yes"/>
      <point x="371" y="1194"/>
      <point x="333" y="952"/>
    </contour>
    <contour>
      <point x="861" y="236" type="curve" smooth="yes"/>
      <point x="994" y="236"/>
      <point x="1066" y="407"/>
      <point x="1175" y="407" type="curve" smooth="yes"/>
      <point x="1213" y="407"/>
      <point x="1225" y="368"/>
      <point x="1225" y="325" type="curve" smooth="yes"/>
      <point x="1225" y="275"/>
      <point x="1210" y="218"/>
      <point x="1203" y="212" type="curve" smooth="yes"/>
      <point x="1103" y="133"/>
      <point x="960" y="0"/>
      <point x="791" y="0" type="curve" smooth="yes"/>
      <point x="661" y="0"/>
      <point x="577" y="100"/>
      <point x="577" y="226" type="curve" smooth="yes"/>
      <point x="577" y="384"/>
      <point x="636" y="534"/>
      <point x="687" y="648" type="curve" smooth="yes"/>
      <point x="694" y="663"/>
      <point x="698" y="672"/>
      <point x="700" y="674" type="curve"/>
      <point x="679" y="677" type="line"/>
      <point x="479" y="548"/>
      <point x="392" y="250"/>
      <point x="262" y="44" type="curve" smooth="yes"/>
      <point x="246" y="19"/>
      <point x="230" y="0"/>
      <point x="192" y="0" type="curve" smooth="yes"/>
      <point x="97" y="0"/>
      <point x="95" y="126"/>
      <point x="95" y="223" type="curve" smooth="yes"/>
      <point x="95" y="772"/>
      <point x="131" y="1357"/>
      <point x="342" y="1706" type="curve" smooth="yes"/>
      <point x="408" y="1816"/>
      <point x="505" y="1920"/>
      <point x="665" y="1920" type="curve" smooth="yes"/>
      <point x="788" y="1920"/>
      <point x="826" y="1836"/>
      <point x="826" y="1699" type="curve" smooth="yes"/>
      <point x="826" y="1267"/>
      <point x="592" y="919"/>
      <point x="431" y="636" type="curve"/>
      <point x="451" y="622" type="line"/>
      <point x="536" y="734"/>
      <point x="639" y="865"/>
      <point x="758" y="942" type="curve" smooth="yes"/>
      <point x="794" y="966"/>
      <point x="829" y="978"/>
      <point x="861" y="978" type="curve" smooth="yes"/>
      <point x="920" y="978"/>
      <point x="948" y="931"/>
      <point x="948" y="868" type="curve" smooth="yes"/>
      <point x="948" y="673"/>
      <point x="827" y="503"/>
      <point x="827" y="301" type="curve" smooth="yes"/>
      <point x="827" y="269"/>
      <point x="832" y="236"/>
    </contour>
  </outline>
</glyph>
<glyph name="m" format="1">
  <advance width="1312"/>
  <unicode hex="006D"/>
  <outline>
    <contour>
      <point x="821" y="872" type="curve" smooth="yes"/>
      <point x="821" y="817"/>
      <point x="766" y="524"/>
      <point x="766" y="522" type="curve"/>
      <point x="785" y="501" type="line"/>
      <point x="855" y="665"/>
      <point x="942" y="825"/>
      <point x="1046" y="934" type="curve" smooth="yes"/>
      <point x="1063" y="952"/>
      <point x="1086" y="960"/>
      <point x="1112" y="960" type="curve" smooth="yes"/>
      <point x="1170" y="960"/>
      <point x="1217" y="929"/>
      <point x="1217" y="872" type="curve" smooth="yes"/>
      <point x="1217" y="785"/>
      <point x="1171" y="429"/>
      <point x="1171" y="317" type="curve" smooth="yes"/>
      <point x="1171" y="265"/>
      <point x="1172" y="194"/>
      <point x="1225" y="194" type="curve" smooth="yes"/>
      <point x="1284" y="194"/>
      <point x="1374" y="284"/>
      <point x="1428" y="348" type="curve" smooth="yes"/>
      <point x="1455" y="379"/>
      <point x="1473" y="390"/>
      <point x="1483" y="390" type="curve" smooth="yes"/>
      <point x="1508" y="390"/>
      <point x="1515" y="334"/>
      <point x="1515" y="278" type="curve" smooth="yes"/>
      <point x="1515" y="253"/>
      <point x="1514" y="230"/>
      <point x="1514" y="219" type="curve"/>
      <point x="1413" y="129"/>
      <point x="1312" y="11"/>
      <point x="1135" y="11" type="curve" smooth="yes"/>
      <point x="985" y="11"/>
      <point x="963" y="112"/>
      <point x="963" y="243" type="curve" smooth="yes"/>
      <point x="963" y="399"/>
      <point x="981" y="547"/>
      <point x="1023" y="690" type="curve"/>
      <point x="922" y="501"/>
      <point x="832" y="291"/>
      <point x="765" y="79" type="curve" smooth="yes"/>
      <point x="749" y="29"/>
      <point x="712" y="12"/>
      <point x="650" y="12" type="curve" smooth="yes"/>
      <point x="572" y="12"/>
      <point x="559" y="106"/>
      <point x="559" y="193" type="curve" smooth="yes"/>
      <point x="559" y="362"/>
      <point x="602" y="515"/>
      <point x="634" y="677" type="curve"/>
      <point x="506" y="484"/>
      <point x="424" y="300"/>
      <point x="335" y="79" type="curve" smooth="yes"/>
      <point x="317" y="34"/>
      <point x="289" y="12"/>
      <point x="235" y="12" type="curve" smooth="yes"/>
      <point x="132" y="12"/>
      <point x="114" y="105"/>
      <point x="114" y="215" type="curve" smooth="yes"/>
      <point x="114" y="444"/>
      <point x="159" y="683"/>
      <point x="218" y="866" type="curve" smooth="yes"/>
      <point x="235" y="918"/>
      <point x="279" y="964"/>
      <point x="340" y="964" type="curve" smooth="yes"/>
      <point x="391" y="964"/>
      <point x="430" y="929"/>
      <point x="430" y="874" type="curve" smooth="yes"/>
      <point x="430" y="868"/>
      <point x="430" y="861"/>
      <point x="429" y="856" type="curve" smooth="yes"/>
      <point x="402" y="735"/>
      <point x="367" y="603"/>
      <point x="350" y="522" type="curve"/>
      <point x="370" y="501" type="line"/>
      <point x="439" y="655"/>
      <point x="534" y="834"/>
      <point x="654" y="934" type="curve" smooth="yes"/>
      <point x="675" y="951"/>
      <point x="698" y="960"/>
      <point x="726" y="960" type="curve" smooth="yes"/>
      <point x="780" y="960"/>
      <point x="821" y="926"/>
    </contour>
  </outline>
</glyph>
<glyph name="n" format="1">
  <advance width="947"/>
  <unicode hex="006E"/>
  <outline>
    <contour>
      <point x="1000" y="166" type="curve" smooth="yes"/>
      <point x="1000" y="68"/>
      <point x="888" y="-12"/>
      <point x="792" y="-12" type="curve" smooth="yes"/>
      <point x="647" y="-12"/>
      <point x="592" y="104"/>
      <point x="592" y="264" type="curve" smooth="yes"/>
      <point x="592" y="378"/>
      <point x="606" y="485"/>
      <point x="622" y="591" type="curve"/>
      <point x="344" y="71" type="line"/>
      <point x="322" y="27"/>
      <point x="297" y="0"/>
      <point x="241" y="0" type="curve" smooth="yes"/>
      <point x="132" y="0"/>
      <point x="114" y="100"/>
      <point x="114" y="209" type="curve" smooth="yes"/>
      <point x="114" y="417"/>
      <point x="126" y="960"/>
      <point x="326" y="960" type="curve" smooth="yes"/>
      <point x="367" y="960"/>
      <point x="396" y="926"/>
      <point x="396" y="875" type="curve" smooth="yes"/>
      <point x="396" y="748"/>
      <point x="347" y="548"/>
      <point x="332" y="464" type="curve"/>
      <point x="409" y="612"/>
      <point x="533" y="960"/>
      <point x="740" y="960" type="curve" smooth="yes"/>
      <point x="817" y="960"/>
      <point x="849" y="886"/>
      <point x="849" y="802" type="curve" smooth="yes"/>
      <point x="849" y="620"/>
      <point x="793" y="412"/>
      <point x="793" y="300" type="curve" smooth="yes"/>
      <point x="793" y="225"/>
      <point x="812" y="187"/>
      <point x="846" y="187" type="curve" smooth="yes"/>
      <point x="889" y="187"/>
      <point x="906" y="215"/>
      <point x="947" y="215" type="curve" smooth="yes"/>
      <point x="974" y="215"/>
      <point x="1000" y="201"/>
    </contour>
  </outline>
</glyph>
<glyph name="o" format="1">
  <advance width="813"/>
  <unicode hex="006F"/>
  <outline>
    <contour>
      <point x="449" y="641" type="curve" smooth="yes"/>
      <point x="449" y="696"/>
      <point x="509" y="727"/>
      <point x="509" y="762" type="curve" smooth="yes"/>
      <point x="509" y="766"/>
      <point x="504" y="768"/>
      <point x="494" y="768" type="curve" smooth="yes"/>
      <point x="354" y="768"/>
      <point x="261" y="588"/>
      <point x="261" y="446" type="curve" smooth="yes"/>
      <point x="261" y="313"/>
      <point x="304" y="192"/>
      <point x="436" y="192" type="curve" smooth="yes"/>
      <point x="545" y="192"/>
      <point x="611" y="352"/>
      <point x="611" y="461" type="curve"/>
      <point x="545" y="498"/>
      <point x="449" y="549"/>
    </contour>
    <contour>
      <point x="822" y="579" type="curve" smooth="yes"/>
      <point x="867" y="579"/>
      <point x="898" y="737"/>
      <point x="957" y="737" type="curve" smooth="yes"/>
      <point x="985" y="737"/>
      <point x="1016" y="714"/>
      <point x="1016" y="684" type="curve" smooth="yes"/>
      <point x="1016" y="556"/>
      <point x="891" y="407"/>
      <point x="788" y="407" type="curve"/>
      <point x="788" y="248"/>
      <point x="668" y="0"/>
      <point x="397" y="0" type="curve" smooth="yes"/>
      <point x="166" y="0"/>
      <point x="67" y="206"/>
      <point x="67" y="437" type="curve" smooth="yes"/>
      <point x="67" y="709"/>
      <point x="237" y="965"/>
      <point x="501" y="965" type="curve" smooth="yes"/>
      <point x="671" y="965"/>
      <point x="796" y="827"/>
      <point x="796" y="618" type="curve" smooth="yes"/>
      <point x="796" y="592"/>
      <point x="807" y="579"/>
    </contour>
  </outline>
</glyph>
<glyph name="q" format="1">
  <advance width="815"/>
  <unicode hex="0071"/>
  <outline>
    <contour>
      <point x="463" y="-544" type="curve" smooth="yes"/>
      <point x="583" y="-544"/>
      <point x="601" y="-380"/>
      <point x="601" y="-256" type="curve" smooth="yes"/>
      <point x="601" y="-157"/>
      <point x="590" y="-47"/>
      <point x="569" y="33" type="curve"/>
      <point x="566" y="24"/>
      <point x="560" y="6"/>
      <point x="552" y="-20" type="curve" smooth="yes"/>
      <point x="524" y="-111" type="line" smooth="yes"/>
      <point x="489" y="-224"/>
      <point x="426" y="-369"/>
      <point x="426" y="-498" type="curve" smooth="yes"/>
      <point x="426" y="-523"/>
      <point x="439" y="-544"/>
    </contour>
    <contour>
      <point x="505" y="768" type="curve" smooth="yes"/>
      <point x="371" y="768"/>
      <point x="281" y="644"/>
      <point x="281" y="512" type="curve" smooth="yes"/>
      <point x="281" y="392"/>
      <point x="327" y="297"/>
      <point x="441" y="288" type="curve"/>
      <point x="499" y="432"/>
      <point x="525" y="578"/>
      <point x="569" y="736" type="curve"/>
      <point x="555" y="750"/>
      <point x="532" y="768"/>
    </contour>
    <contour>
      <point x="674" y="256" type="curve" smooth="yes"/>
      <point x="674" y="224"/>
      <point x="687" y="192"/>
      <point x="729" y="192" type="curve" smooth="yes"/>
      <point x="860" y="192"/>
      <point x="992" y="338"/>
      <point x="1071" y="396" type="curve" smooth="yes"/>
      <point x="1099" y="417"/>
      <point x="1121" y="424"/>
      <point x="1135" y="424" type="curve" smooth="yes"/>
      <point x="1152" y="424"/>
      <point x="1159" y="411"/>
      <point x="1159" y="392" type="curve" smooth="yes"/>
      <point x="1159" y="332"/>
      <point x="1095" y="206"/>
      <point x="1081" y="192" type="curve" smooth="yes"/>
      <point x="993" y="104"/>
      <point x="883" y="28"/>
      <point x="726" y="6" type="curve"/>
      <point x="743" y="-89"/>
      <point x="761" y="-212"/>
      <point x="761" y="-320" type="curve" smooth="yes"/>
      <point x="761" y="-554"/>
      <point x="672" y="-736"/>
      <point x="441" y="-736" type="curve" smooth="yes"/>
      <point x="323" y="-736"/>
      <point x="249" y="-633"/>
      <point x="249" y="-512" type="curve" smooth="yes"/>
      <point x="249" y="-270"/>
      <point x="352" y="-46"/>
      <point x="409" y="160" type="curve"/>
      <point x="394" y="158"/>
      <point x="379" y="156"/>
      <point x="363" y="156" type="curve" smooth="yes"/>
      <point x="173" y="156"/>
      <point x="57" y="321"/>
      <point x="57" y="512" type="curve" smooth="yes"/>
      <point x="57" y="761"/>
      <point x="257" y="960"/>
      <point x="505" y="960" type="curve" smooth="yes"/>
      <point x="680" y="960"/>
      <point x="791" y="869"/>
      <point x="791" y="698" type="curve" smooth="yes"/>
      <point x="791" y="553"/>
      <point x="717" y="408"/>
      <point x="680" y="279" type="curve" smooth="yes"/>
      <point x="676" y="265"/>
      <point x="674" y="257"/>
    </contour>
  </outline>
</glyph>
<glyph name="s" format="1">
  <advance width="763"/>
  <unicode hex="0073"/>
  <outline>
    <contour>
      <point x="241" y="247" type="line"/>
      <point x="292" y="247"/>
      <point x="322" y="151"/>
      <point x="391" y="151" type="curve" smooth="yes"/>
      <point x="442" y="151"/>
      <point x="458" y="214"/>
      <point x="458" y="293" type="curve" smooth="yes"/>
      <point x="458" y="369"/>
      <point x="427" y="460"/>
      <point x="404" y="513" type="curve"/>
    </contour>
    <contour>
      <point x="415" y="-19" type="curve" smooth="yes"/>
      <point x="260" y="-19"/>
      <point x="157" y="41"/>
      <point x="134" y="180" type="curve"/>
      <point x="117" y="176"/>
      <point x="99" y="175"/>
      <point x="80" y="175" type="curve" smooth="yes"/>
      <point x="21" y="175"/>
      <point x="0" y="202"/>
      <point x="0" y="236" type="curve" smooth="yes"/>
      <point x="0" y="278"/>
      <point x="39" y="323"/>
      <point x="61" y="354" type="curve" smooth="yes"/>
      <point x="167" y="503"/>
      <point x="282" y="689"/>
      <point x="385" y="864" type="curve" smooth="yes"/>
      <point x="413" y="913"/>
      <point x="459" y="960"/>
      <point x="536" y="960" type="curve" smooth="yes"/>
      <point x="633" y="960"/>
      <point x="663" y="931"/>
      <point x="663" y="892" type="curve" smooth="yes"/>
      <point x="663" y="848"/>
      <point x="624" y="790"/>
      <point x="600" y="747" type="curve" smooth="yes"/>
      <point x="559" y="673" type="line"/>
      <point x="591" y="608"/>
      <point x="678" y="485"/>
      <point x="678" y="357" type="curve" smooth="yes"/>
      <point x="678" y="310"/>
      <point x="666" y="262"/>
      <point x="635" y="216" type="curve"/>
      <point x="799" y="289"/>
      <point x="900" y="369"/>
      <point x="999" y="448" type="curve" smooth="yes"/>
      <point x="1008" y="454"/>
      <point x="1016" y="457"/>
      <point x="1023" y="457" type="curve" smooth="yes"/>
      <point x="1050" y="457"/>
      <point x="1062" y="415"/>
      <point x="1062" y="366" type="curve" smooth="yes"/>
      <point x="1062" y="309"/>
      <point x="1054" y="285"/>
      <point x="1031" y="264" type="curve" smooth="yes"/>
      <point x="864" y="113"/>
      <point x="619" y="-19"/>
    </contour>
  </outline>
</glyph>
<glyph name="t" format="1">
  <advance width="727"/>
  <unicode hex="0074"/>
  <outline>
    <contour>
      <point x="469" y="1080" type="curve"/>
      <point x="532" y="1184"/>
      <point x="650" y="1343"/>
      <point x="650" y="1490" type="curve" smooth="yes"/>
      <point x="650" y="1532"/>
      <point x="640" y="1568"/>
      <point x="597" y="1568" type="curve" smooth="yes"/>
      <point x="490" y="1568"/>
      <point x="430" y="1178"/>
      <point x="408" y="1080" type="curve"/>
      <point x="429" y="1081"/>
      <point x="448" y="1080"/>
    </contour>
    <contour>
      <point x="135" y="486" type="curve" smooth="yes"/>
      <point x="135" y="626"/>
      <point x="155" y="797"/>
      <point x="189" y="922" type="curve"/>
      <point x="60" y="922"/>
      <point x="-19" y="967"/>
      <point x="-19" y="1019" type="curve" smooth="yes"/>
      <point x="-19" y="1072"/>
      <point x="35" y="1080"/>
      <point x="108" y="1080" type="curve" smooth="yes"/>
      <point x="217" y="1080" type="line"/>
      <point x="265" y="1324"/>
      <point x="347" y="1589"/>
      <point x="491" y="1732" type="curve" smooth="yes"/>
      <point x="532" y="1772"/>
      <point x="574" y="1792"/>
      <point x="619" y="1792" type="curve" smooth="yes"/>
      <point x="753" y="1792"/>
      <point x="810" y="1637"/>
      <point x="810" y="1499" type="curve" smooth="yes"/>
      <point x="810" y="1329"/>
      <point x="708" y="1192"/>
      <point x="633" y="1080" type="curve"/>
      <point x="644" y="1079"/>
      <point x="659" y="1080"/>
      <point x="678" y="1080" type="curve" smooth="yes"/>
      <point x="826" y="1080" type="line" smooth="yes"/>
      <point x="917" y="1080"/>
      <point x="970" y="1075"/>
      <point x="970" y="1001" type="curve" smooth="yes"/>
      <point x="970" y="961"/>
      <point x="943" y="922"/>
      <point x="906" y="922" type="curve" smooth="yes"/>
      <point x="522" y="922" type="line"/>
      <point x="416" y="749"/>
      <point x="376" y="690"/>
      <point x="376" y="487" type="curve" smooth="yes"/>
      <point x="376" y="271"/>
      <point x="466" y="204"/>
      <point x="557" y="204" type="curve" smooth="yes"/>
      <point x="703" y="204"/>
      <point x="823" y="361"/>
      <point x="900" y="440" type="curve" smooth="yes"/>
      <point x="908" y="449"/>
      <point x="918" y="454"/>
      <point x="930" y="454" type="curve" smooth="yes"/>
      <point x="963" y="454"/>
      <point x="1003" y="420"/>
      <point x="1003" y="369" type="curve" smooth="yes"/>
      <point x="1003" y="349"/>
      <point x="997" y="325"/>
      <point x="980" y="301" type="curve" smooth="yes"/>
      <point x="864" y="136"/>
      <point x="721" y="-9"/>
      <point x="538" y="-9" type="curve" smooth="yes"/>
      <point x="259" y="-9"/>
      <point x="135" y="229"/>
    </contour>
  </outline>
</glyph>
<glyph name="bar" format="1">
  <advance width="1248"/>
  <unicode hex="007C"/>
  <outline>
    <contour>
      <point x="584" y="-43" type="curve"/>
      <point x="574" y="-43"/>
      <point x="472" y="64"/>
      <point x="472" y="129" type="curve" smooth="yes"/>
      <point x="472" y="373"/>
      <point x="544" y="636"/>
      <point x="582" y="877" type="curve" smooth="yes"/>
      <point x="625" y="1148"/>
      <point x="672" y="1433"/>
      <point x="715" y="1696" type="curve" smooth="yes"/>
      <point x="729" y="1785"/>
      <point x="792" y="1856"/>
      <point x="892" y="1856" type="curve" smooth="yes"/>
      <point x="952" y="1856"/>
      <point x="987" y="1797"/>
      <point x="987" y="1739" type="curve" smooth="yes"/>
      <point x="987" y="1519"/>
      <point x="924" y="1299"/>
      <point x="891" y="1080" type="curve" smooth="yes"/>
      <point x="843" y="765"/>
      <point x="796" y="441"/>
      <point x="750" y="128" type="curve" smooth="yes"/>
      <point x="738" y="43"/>
      <point x="671" y="-32"/>
      <point x="579" y="-32" type="curve"/>
      <point x="583" y="-38"/>
      <point x="584" y="-41"/>
    </contour>
    <contour>
      <point x="584" y="-43" type="curve"/>
      <point x="584" y="-44"/>
      <point x="585" y="-43"/>
    </contour>
  </outline>
</glyph>
<glyph name="exclamdown" format="1">
  <advance width="1184"/>
  <unicode hex="00A1"/>
  <outline>
    <contour>
      <point x="658" y="1663" type="curve" smooth="yes"/>
      <point x="658" y="1773"/>
      <point x="723" y="1856"/>
      <point x="839" y="1856" type="curve" smooth="yes"/>
      <point x="945" y="1856"/>
      <point x="1003" y="1799"/>
      <point x="1003" y="1692" type="curve" smooth="yes"/>
      <point x="1003" y="1577"/>
      <point x="937" y="1501"/>
      <point x="820" y="1501" type="curve" smooth="yes"/>
      <point x="716" y="1501"/>
      <point x="658" y="1559"/>
    </contour>
    <contour>
      <point x="789" y="1392" type="curve" smooth="yes"/>
      <point x="814" y="1392"/>
      <point x="835" y="1382"/>
      <point x="835" y="1357" type="curve" smooth="yes"/>
      <point x="835" y="1354"/>
      <point x="834" y="1349"/>
      <point x="833" y="1342" type="curve" smooth="yes"/>
      <point x="790" y="901"/>
      <point x="646" y="528"/>
      <point x="541" y="150" type="curve" smooth="yes"/>
      <point x="513" y="51"/>
      <point x="444" y="-2"/>
      <point x="321" y="-2" type="curve"/>
      <point x="324" y="-6"/>
      <point x="326" y="-9"/>
      <point x="326" y="-10" type="curve" smooth="yes"/>
      <point x="326" y="-11"/>
      <point x="326" y="-12"/>
      <point x="325" y="-12" type="curve" smooth="yes"/>
      <point x="315" y="-12"/>
      <point x="246" y="45"/>
      <point x="246" y="93" type="curve" smooth="yes"/>
      <point x="246" y="217"/>
      <point x="286" y="320"/>
      <point x="322" y="424" type="curve" smooth="yes"/>
      <point x="432" y="743"/>
      <point x="569" y="1021"/>
      <point x="705" y="1342" type="curve"/>
      <point x="711" y="1374"/>
      <point x="752" y="1392"/>
    </contour>
  </outline>
</glyph>
<glyph name="sterling" format="1">
  <advance width="1505"/>
  <unicode hex="00A3"/>
  <outline>
    <contour>
      <point x="1264" y="992" type="line" smooth="yes"/>
      <point x="1352" y="992"/>
      <point x="1422" y="958"/>
      <point x="1422" y="868" type="curve" smooth="yes"/>
      <point x="1422" y="787"/>
      <point x="1349" y="768"/>
      <point x="1263" y="768" type="curve" smooth="yes"/>
      <point x="1012" y="768" type="line"/>
      <point x="993" y="593"/>
      <point x="964" y="412"/>
      <point x="939" y="244" type="curve" smooth="yes"/>
      <point x="936" y="226"/>
      <point x="935" y="216"/>
      <point x="936" y="215" type="curve"/>
      <point x="1132" y="215"/>
      <point x="1253" y="272"/>
      <point x="1433" y="272" type="curve" smooth="yes"/>
      <point x="1503" y="272"/>
      <point x="1589" y="240"/>
      <point x="1589" y="170" type="curve" smooth="yes"/>
      <point x="1589" y="3"/>
      <point x="1345" y="17"/>
      <point x="1191" y="-2" type="curve" smooth="yes"/>
      <point x="1086" y="-15"/>
      <point x="957" y="-29"/>
      <point x="842" y="-29" type="curve" smooth="yes"/>
      <point x="717" y="-29"/>
      <point x="634" y="15"/>
      <point x="634" y="135" type="curve" smooth="yes"/>
      <point x="634" y="190"/>
      <point x="652" y="249"/>
      <point x="666" y="292" type="curve"/>
      <point x="682" y="445"/>
      <point x="733" y="610"/>
      <point x="748" y="768" type="curve"/>
      <point x="632" y="768" type="line" smooth="yes"/>
      <point x="565" y="768"/>
      <point x="525" y="816"/>
      <point x="525" y="879" type="curve" smooth="yes"/>
      <point x="525" y="958"/>
      <point x="573" y="992"/>
      <point x="656" y="992" type="curve" smooth="yes"/>
      <point x="768" y="992" type="line"/>
      <point x="768" y="1400"/>
      <point x="944" y="1714"/>
      <point x="1343" y="1714" type="curve" smooth="yes"/>
      <point x="1563" y="1714"/>
      <point x="1712" y="1620"/>
      <point x="1712" y="1398" type="curve" smooth="yes"/>
      <point x="1712" y="1323"/>
      <point x="1678" y="1266"/>
      <point x="1606" y="1266" type="curve" smooth="yes"/>
      <point x="1551" y="1266"/>
      <point x="1502" y="1301"/>
      <point x="1502" y="1356" type="curve" smooth="yes"/>
      <point x="1502" y="1455"/>
      <point x="1442" y="1470"/>
      <point x="1344" y="1470" type="curve" smooth="yes"/>
      <point x="1090" y="1470"/>
      <point x="1024" y="1251"/>
      <point x="1024" y="992" type="curve"/>
    </contour>
  </outline>
</glyph>
<glyph name="currency" format="1">
  <advance width="1472"/>
  <unicode hex="00A4"/>
  <outline>
    <contour>
      <point x="472" y="901" type="curve" smooth="yes"/>
      <point x="472" y="750"/>
      <point x="547" y="645"/>
      <point x="696" y="645" type="curve" smooth="yes"/>
      <point x="920" y="645"/>
      <point x="1016" y="900"/>
      <point x="1016" y="1125" type="curve" smooth="yes"/>
      <point x="1016" y="1250"/>
      <point x="949" y="1348"/>
      <point x="824" y="1348" type="curve" smooth="yes"/>
      <point x="583" y="1348"/>
      <point x="472" y="1145"/>
    </contour>
    <contour>
      <point x="898" y="505" type="curve"/>
      <point x="834" y="473"/>
      <point x="759" y="452"/>
      <point x="666" y="452" type="curve" smooth="yes"/>
      <point x="557" y="452"/>
      <point x="474" y="485"/>
      <point x="410" y="535" type="curve"/>
      <point x="344" y="487"/>
      <point x="271" y="430"/>
      <point x="196" y="395" type="curve" smooth="yes"/>
      <point x="176" y="386"/>
      <point x="159" y="381"/>
      <point x="146" y="381" type="curve" smooth="yes"/>
      <point x="101" y="381"/>
      <point x="64" y="429"/>
      <point x="64" y="474" type="curve" smooth="yes"/>
      <point x="64" y="522"/>
      <point x="104" y="549"/>
      <point x="142" y="576" type="curve" smooth="yes"/>
      <point x="294" y="681" type="line"/>
      <point x="263" y="746"/>
      <point x="248" y="820"/>
      <point x="248" y="901" type="curve" smooth="yes"/>
      <point x="247" y="1083"/>
      <point x="309" y="1236"/>
      <point x="397" y="1343" type="curve"/>
      <point x="302" y="1429" type="line" smooth="yes"/>
      <point x="274" y="1455"/>
      <point x="243" y="1480"/>
      <point x="243" y="1521" type="curve" smooth="yes"/>
      <point x="243" y="1569"/>
      <point x="296" y="1623"/>
      <point x="344" y="1623" type="curve" smooth="yes"/>
      <point x="370" y="1623"/>
      <point x="400" y="1608"/>
      <point x="433" y="1579" type="curve" smooth="yes"/>
      <point x="553" y="1473" type="line"/>
      <point x="627" y="1514"/>
      <point x="718" y="1540"/>
      <point x="830" y="1540" type="curve" smooth="yes"/>
      <point x="939" y="1540"/>
      <point x="1025" y="1510"/>
      <point x="1089" y="1462" type="curve"/>
      <point x="1147" y="1502"/>
      <point x="1232" y="1588"/>
      <point x="1314" y="1588" type="curve" smooth="yes"/>
      <point x="1360" y="1588"/>
      <point x="1397" y="1541"/>
      <point x="1397" y="1495" type="curve" smooth="yes"/>
      <point x="1397" y="1447"/>
      <point x="1357" y="1420"/>
      <point x="1319" y="1394" type="curve" smooth="yes"/>
      <point x="1204" y="1315" type="line"/>
      <point x="1229" y="1258"/>
      <point x="1241" y="1194"/>
      <point x="1241" y="1124" type="curve" smooth="yes"/>
      <point x="1241" y="911"/>
      <point x="1163" y="745"/>
      <point x="1060" y="630" type="curve"/>
      <point x="1159" y="541" type="line" smooth="yes"/>
      <point x="1197" y="506"/>
      <point x="1216" y="476"/>
      <point x="1217" y="451" type="curve"/>
      <point x="1217" y="402"/>
      <point x="1165" y="347"/>
      <point x="1117" y="347" type="curve" smooth="yes"/>
      <point x="1031" y="347"/>
      <point x="948" y="460"/>
    </contour>
  </outline>
</glyph>
<glyph name="copyright" format="1">
  <advance width="1792"/>
  <unicode hex="00A9"/>
  <outline>
    <contour>
      <point x="1113" y="587" type="curve" smooth="yes"/>
      <point x="1151" y="587"/>
      <point x="1172" y="534"/>
      <point x="1172" y="495" type="curve" smooth="yes"/>
      <point x="1172" y="470"/>
      <point x="1162" y="452"/>
      <point x="1146" y="440" type="curve" smooth="yes"/>
      <point x="1068" y="383"/>
      <point x="963" y="323"/>
      <point x="830" y="323" type="curve" smooth="yes"/>
      <point x="605" y="323"/>
      <point x="518" y="482"/>
      <point x="518" y="660" type="curve" smooth="yes"/>
      <point x="518" y="818"/>
      <point x="586" y="989"/>
      <point x="686" y="1076" type="curve" smooth="yes"/>
      <point x="738" y="1121"/>
      <point x="806" y="1158"/>
      <point x="898" y="1158" type="curve" smooth="yes"/>
      <point x="1025" y="1158"/>
      <point x="1126" y="1084"/>
      <point x="1126" y="959" type="curve" smooth="yes"/>
      <point x="1126" y="874"/>
      <point x="1082" y="784"/>
      <point x="998" y="784" type="curve" smooth="yes"/>
      <point x="947" y="784"/>
      <point x="933" y="809"/>
      <point x="933" y="858" type="curve" smooth="yes"/>
      <point x="933" y="881"/>
      <point x="939" y="921"/>
      <point x="939" y="943" type="curve" smooth="yes"/>
      <point x="939" y="965"/>
      <point x="936" y="986"/>
      <point x="916" y="986" type="curve" smooth="yes"/>
      <point x="780" y="986"/>
      <point x="739" y="813"/>
      <point x="739" y="677" type="curve" smooth="yes"/>
      <point x="739" y="578"/>
      <point x="775" y="496"/>
      <point x="876" y="496" type="curve" smooth="yes"/>
      <point x="960" y="496"/>
      <point x="1040" y="548"/>
      <point x="1095" y="582" type="curve"/>
      <point x="1102" y="585"/>
      <point x="1108" y="587"/>
    </contour>
    <contour>
      <point x="292" y="646" type="curve" smooth="yes"/>
      <point x="292" y="342"/>
      <point x="526" y="192"/>
      <point x="838" y="192" type="curve" smooth="yes"/>
      <point x="1205" y="192"/>
      <point x="1441" y="472"/>
      <point x="1441" y="833" type="curve" smooth="yes"/>
      <point x="1441" y="1126"/>
      <point x="1253" y="1278"/>
      <point x="953" y="1278" type="curve" smooth="yes"/>
      <point x="572" y="1278"/>
      <point x="292" y="1020"/>
    </contour>
    <contour>
      <point x="989" y="1440" type="curve" smooth="yes"/>
      <point x="1379" y="1440"/>
      <point x="1626" y="1224"/>
      <point x="1626" y="838" type="curve" smooth="yes"/>
      <point x="1626" y="436"/>
      <point x="1378" y="163"/>
      <point x="1068" y="66" type="curve" smooth="yes"/>
      <point x="996" y="44"/>
      <point x="918" y="32"/>
      <point x="834" y="32" type="curve" smooth="yes"/>
      <point x="417" y="32"/>
      <point x="107" y="251"/>
      <point x="107" y="657" type="curve" smooth="yes"/>
      <point x="107" y="1146"/>
      <point x="498" y="1440"/>
    </contour>
  </outline>
</glyph>
<glyph name="acute" format="1">
  <advance width="609"/>
  <unicode hex="00B4"/>
  <outline>
    <contour>
      <point x="160" y="1088" type="curve" smooth="yes"/>
      <point x="125" y="1088"/>
      <point x="102" y="1119"/>
      <point x="102" y="1155" type="curve" smooth="yes"/>
      <point x="102" y="1254"/>
      <point x="182" y="1369"/>
      <point x="219" y="1452" type="curve" smooth="yes"/>
      <point x="245" y="1512"/>
      <point x="275" y="1576"/>
      <point x="304" y="1646" type="curve" smooth="yes"/>
      <point x="320" y="1684"/>
      <point x="352" y="1710"/>
      <point x="399" y="1710" type="curve" smooth="yes"/>
      <point x="477" y="1710"/>
      <point x="544" y="1652"/>
      <point x="544" y="1574" type="curve" smooth="yes"/>
      <point x="544" y="1490"/>
      <point x="455" y="1410"/>
      <point x="412" y="1354" type="curve" smooth="yes"/>
      <point x="353" y="1277"/>
      <point x="287" y="1199"/>
      <point x="228" y="1125" type="curve" smooth="yes"/>
      <point x="211" y="1105"/>
      <point x="191" y="1088"/>
    </contour>
  </outline>
</glyph>
<glyph name="cedilla" format="1">
  <advance width="1184"/>
  <unicode hex="00B8"/>
  <outline>
    <contour>
      <point x="640" y="96" type="curve" smooth="yes"/>
      <point x="665" y="96"/>
      <point x="686" y="86"/>
      <point x="686" y="61" type="curve" smooth="yes"/>
      <point x="686" y="-99"/>
      <point x="655" y="-222"/>
      <point x="636" y="-360" type="curve" smooth="yes"/>
      <point x="625" y="-442"/>
      <point x="564" y="-511"/>
      <point x="473" y="-511" type="curve" smooth="yes"/>
      <point x="403" y="-511"/>
      <point x="362" y="-464"/>
      <point x="362" y="-392" type="curve" smooth="yes"/>
      <point x="362" y="-272"/>
      <point x="440" y="-175"/>
      <point x="493" y="-91" type="curve" smooth="yes"/>
      <point x="519" y="-50"/>
      <point x="549" y="-5"/>
      <point x="576" y="46" type="curve" smooth="yes"/>
      <point x="587" y="67"/>
      <point x="610" y="96"/>
    </contour>
  </outline>
</glyph>
<glyph name="onequarter" format="1">
  <advance width="1759"/>
  <unicode hex="00BC"/>
  <outline>
    <contour>
      <point x="1568" y="-30" type="curve" smooth="yes"/>
      <point x="1568" y="-38"/>
      <point x="1564" y="-39"/>
      <point x="1554" y="-39" type="curve" smooth="yes"/>
      <point x="1502" y="-39"/>
      <point x="1445" y="-45"/>
      <point x="1394" y="-45" type="curve" smooth="yes"/>
      <point x="1314" y="-45"/>
      <point x="1273" y="-23"/>
      <point x="1273" y="58" type="curve" smooth="yes"/>
      <point x="1273" y="118"/>
      <point x="1290" y="182"/>
      <point x="1305" y="237" type="curve"/>
      <point x="1164" y="237"/>
      <point x="1081" y="165"/>
      <point x="952" y="165" type="curve" smooth="yes"/>
      <point x="929" y="165"/>
      <point x="921" y="182"/>
      <point x="921" y="205" type="curve" smooth="yes"/>
      <point x="921" y="249"/>
      <point x="958" y="289"/>
      <point x="974" y="325" type="curve" smooth="yes"/>
      <point x="1049" y="493"/>
      <point x="1084" y="672"/>
      <point x="1131" y="875" type="curve" smooth="yes"/>
      <point x="1142" y="922"/>
      <point x="1241" y="928"/>
      <point x="1303" y="928" type="curve" smooth="yes"/>
      <point x="1335" y="928"/>
      <point x="1417" y="926"/>
      <point x="1417" y="899" type="curve" smooth="yes"/>
      <point x="1417" y="685"/>
      <point x="1301" y="514"/>
      <point x="1222" y="344" type="curve"/>
      <point x="1262" y="343"/>
      <point x="1288" y="342"/>
      <point x="1324" y="342" type="curve" smooth="yes"/>
      <point x="1336" y="342" type="line"/>
      <point x="1374" y="457"/>
      <point x="1389" y="642"/>
      <point x="1541" y="642" type="curve" smooth="yes"/>
      <point x="1588" y="642"/>
      <point x="1615" y="633"/>
      <point x="1615" y="593" type="curve" smooth="yes"/>
      <point x="1615" y="512"/>
      <point x="1568" y="431"/>
      <point x="1544" y="362" type="curve"/>
      <point x="1593" y="371"/>
      <point x="1642" y="383"/>
      <point x="1690" y="383" type="curve" smooth="yes"/>
      <point x="1708" y="383"/>
      <point x="1712" y="366"/>
      <point x="1712" y="347" type="curve" smooth="yes"/>
      <point x="1712" y="297"/>
      <point x="1700" y="229"/>
      <point x="1657" y="229" type="curve" smooth="yes"/>
      <point x="1606" y="229"/>
      <point x="1555" y="232"/>
      <point x="1503" y="234" type="curve"/>
      <point x="1492" y="193"/>
      <point x="1486" y="158"/>
      <point x="1483" y="127" type="curve"/>
      <point x="1483" y="110" type="line" smooth="yes"/>
      <point x="1483" y="52"/>
      <point x="1568" y="20"/>
    </contour>
    <contour>
      <point x="242" y="800" type="curve" smooth="yes"/>
      <point x="242" y="813"/>
      <point x="245" y="824"/>
      <point x="247" y="837" type="curve"/>
      <point x="246" y="837" type="line"/>
      <point x="285" y="1026"/>
      <point x="325" y="1223"/>
      <point x="365" y="1406" type="curve"/>
      <point x="153" y="1350" type="line"/>
      <point x="152" y="1350" type="line"/>
      <point x="146" y="1349"/>
      <point x="141" y="1347"/>
      <point x="136" y="1347" type="curve" smooth="yes"/>
      <point x="90" y="1347"/>
      <point x="55" y="1394"/>
      <point x="55" y="1440" type="curve" smooth="yes"/>
      <point x="55" y="1515"/>
      <point x="157" y="1522"/>
      <point x="230" y="1540" type="curve" smooth="yes"/>
      <point x="288" y="1554"/>
      <point x="392" y="1600"/>
      <point x="486" y="1600" type="curve" smooth="yes"/>
      <point x="552" y="1600"/>
      <point x="608" y="1563"/>
      <point x="608" y="1497" type="curve" smooth="yes"/>
      <point x="608" y="1395"/>
      <point x="575" y="1299"/>
      <point x="552" y="1175" type="curve" smooth="yes"/>
      <point x="532" y="1068"/>
      <point x="516" y="704"/>
      <point x="361" y="704" type="curve" smooth="yes"/>
      <point x="292" y="704"/>
      <point x="242" y="731"/>
    </contour>
    <contour>
      <point x="488" y="231" type="curve" smooth="yes"/>
      <point x="437" y="231"/>
      <point x="400" y="269"/>
      <point x="400" y="323" type="curve" smooth="yes"/>
      <point x="400" y="394"/>
      <point x="437" y="428"/>
      <point x="468" y="484" type="curve" smooth="yes"/>
      <point x="637" y="788"/>
      <point x="811" y="1113"/>
      <point x="992" y="1408" type="curve" smooth="yes"/>
      <point x="1014" y="1444"/>
      <point x="1067" y="1472"/>
      <point x="1123" y="1472" type="curve" smooth="yes"/>
      <point x="1169" y="1472"/>
      <point x="1202" y="1450"/>
      <point x="1202" y="1402" type="curve" smooth="yes"/>
      <point x="1202" y="1359"/>
      <point x="1184" y="1322"/>
      <point x="1164" y="1288" type="curve" smooth="yes"/>
      <point x="974" y="965"/>
      <point x="792" y="620"/>
      <point x="590" y="294" type="curve" smooth="yes"/>
      <point x="569" y="260"/>
      <point x="535" y="231"/>
    </contour>
  </outline>
</glyph>
<glyph name="Eth" format="1">
  <advance width="1272"/>
  <unicode hex="00D0"/>
  <outline>
    <contour>
      <point x="384" y="258" type="curve" smooth="yes"/>
      <point x="384" y="169"/>
      <point x="391" y="128"/>
      <point x="480" y="128" type="curve" smooth="yes"/>
      <point x="878" y="128"/>
      <point x="1089" y="534"/>
      <point x="1160" y="861" type="curve" smooth="yes"/>
      <point x="1176" y="933"/>
      <point x="1184" y="1002"/>
      <point x="1184" y="1069" type="curve" smooth="yes"/>
      <point x="1184" y="1300"/>
      <point x="1063" y="1504"/>
      <point x="839" y="1504" type="curve" smooth="yes"/>
      <point x="624" y="1504"/>
      <point x="541" y="1169"/>
      <point x="494" y="992" type="curve"/>
      <point x="746" y="992" type="line" smooth="yes"/>
      <point x="793" y="992"/>
      <point x="833" y="973"/>
      <point x="833" y="926" type="curve" smooth="yes"/>
      <point x="833" y="841"/>
      <point x="782" y="800"/>
      <point x="694" y="800" type="curve" smooth="yes"/>
      <point x="450" y="800" type="line"/>
      <point x="417" y="631"/>
      <point x="384" y="445"/>
    </contour>
    <contour>
      <point x="32" y="890" type="curve" smooth="yes"/>
      <point x="32" y="958"/>
      <point x="66" y="992"/>
      <point x="138" y="992" type="curve" smooth="yes"/>
      <point x="219" y="992" type="line"/>
      <point x="284" y="1234"/>
      <point x="374" y="1485"/>
      <point x="528" y="1633" type="curve" smooth="yes"/>
      <point x="604" y="1706"/>
      <point x="677" y="1728"/>
      <point x="811" y="1728" type="curve" smooth="yes"/>
      <point x="1214" y="1728"/>
      <point x="1408" y="1430"/>
      <point x="1408" y="1028" type="curve" smooth="yes"/>
      <point x="1408" y="521"/>
      <point x="1141" y="126"/>
      <point x="771" y="-14" type="curve" smooth="yes"/>
      <point x="691" y="-44"/>
      <point x="605" y="-60"/>
      <point x="512" y="-60" type="curve" smooth="yes"/>
      <point x="376" y="-60"/>
      <point x="255" y="-19"/>
      <point x="162" y="24" type="curve" smooth="yes"/>
      <point x="130" y="39"/>
      <point x="96" y="49"/>
      <point x="96" y="93" type="curve" smooth="yes"/>
      <point x="96" y="348"/>
      <point x="130" y="583"/>
      <point x="174" y="800" type="curve"/>
      <point x="119" y="800" type="line" smooth="yes"/>
      <point x="61" y="800"/>
      <point x="32" y="834"/>
    </contour>
  </outline>
</glyph>
<glyph name="Oslash" format="1">
  <advance width="1719"/>
  <unicode hex="00D8"/>
  <outline>
    <contour>
      <point x="622" y="91" type="curve"/>
      <point x="838" y="855" type="line" smooth="yes"/>
      <point x="914" y="1122"/>
      <point x="992" y="1401"/>
      <point x="1066" y="1663" type="curve"/>
      <point x="695" y="1634"/>
      <point x="502" y="1150"/>
      <point x="435" y="814" type="curve" smooth="yes"/>
      <point x="419" y="733"/>
      <point x="411" y="656"/>
      <point x="411" y="583" type="curve" smooth="yes"/>
      <point x="411" y="356"/>
      <point x="486" y="183"/>
    </contour>
    <contour>
      <point x="1239" y="1626" type="curve"/>
      <point x="1096" y="1099"/>
      <point x="947" y="558"/>
      <point x="799" y="33" type="curve"/>
      <point x="803" y="32"/>
      <point x="808" y="32"/>
      <point x="812" y="32" type="curve" smooth="yes"/>
      <point x="825" y="32" type="line" smooth="yes"/>
      <point x="1275" y="32"/>
      <point x="1435" y="716"/>
      <point x="1435" y="1152" type="curve" smooth="yes"/>
      <point x="1435" y="1367"/>
      <point x="1376" y="1548"/>
    </contour>
    <contour>
      <point x="1289" y="1813" type="curve"/>
      <point x="1549" y="1707"/>
      <point x="1691" y="1438"/>
      <point x="1691" y="1073" type="curve" smooth="yes"/>
      <point x="1691" y="523"/>
      <point x="1444" y="41"/>
      <point x="1064" y="-136" type="curve" smooth="yes"/>
      <point x="983" y="-174"/>
      <point x="896" y="-192"/>
      <point x="801" y="-192" type="curve" smooth="yes"/>
      <point x="778" y="-192"/>
      <point x="756" y="-191"/>
      <point x="735" y="-188" type="curve"/>
      <point x="694" y="-328" type="line"/>
      <point x="676" y="-380"/>
      <point x="654" y="-441"/>
      <point x="591" y="-441" type="curve" smooth="yes"/>
      <point x="532" y="-441"/>
      <point x="521" y="-406"/>
      <point x="521" y="-344" type="curve" smooth="yes"/>
      <point x="521" y="-273"/>
      <point x="537" y="-210"/>
      <point x="557" y="-142" type="curve"/>
      <point x="297" y="-27"/>
      <point x="155" y="258"/>
      <point x="155" y="633" type="curve" smooth="yes"/>
      <point x="155" y="1178"/>
      <point x="396" y="1636"/>
      <point x="780" y="1802" type="curve" smooth="yes"/>
      <point x="863" y="1838"/>
      <point x="955" y="1856"/>
      <point x="1054" y="1856" type="curve" smooth="yes"/>
      <point x="1076" y="1856"/>
      <point x="1098" y="1855"/>
      <point x="1119" y="1853" type="curve"/>
      <point x="1145" y="1945" type="line" smooth="yes"/>
      <point x="1165" y="2016"/>
      <point x="1209" y="2110"/>
      <point x="1297" y="2110" type="curve" smooth="yes"/>
      <point x="1333" y="2110"/>
      <point x="1338" y="2080"/>
      <point x="1338" y="2044" type="curve" smooth="yes"/>
      <point x="1338" y="2029" type="line" smooth="yes"/>
      <point x="1338" y="1959"/>
      <point x="1308" y="1871"/>
    </contour>
  </outline>
</glyph>
<glyph name="ae" format="1">
  <advance width="1269"/>
  <unicode hex="00E6"/>
  <outline>
    <contour>
      <point x="320" y="324" type="curve" smooth="yes"/>
      <point x="320" y="274"/>
      <point x="333" y="210"/>
      <point x="383" y="210" type="curve" smooth="yes"/>
      <point x="487" y="210"/>
      <point x="552" y="390"/>
      <point x="570" y="474" type="curve" smooth="yes"/>
      <point x="631" y="768" type="line"/>
      <point x="444" y="768"/>
      <point x="320" y="508"/>
    </contour>
    <contour>
      <point x="846" y="290" type="curve"/>
      <point x="864" y="231"/>
      <point x="897" y="192"/>
      <point x="971" y="192" type="curve" smooth="yes"/>
      <point x="1159" y="192"/>
      <point x="1311" y="333"/>
      <point x="1408" y="430" type="curve" smooth="yes"/>
      <point x="1418" y="439"/>
      <point x="1430" y="442"/>
      <point x="1442" y="442" type="curve" smooth="yes"/>
      <point x="1486" y="442"/>
      <point x="1534" y="389"/>
      <point x="1534" y="341" type="curve" smooth="yes"/>
      <point x="1534" y="323"/>
      <point x="1525" y="307"/>
      <point x="1510" y="291" type="curve" smooth="yes"/>
      <point x="1382" y="156"/>
      <point x="1206" y="0"/>
      <point x="955" y="0" type="curve" smooth="yes"/>
      <point x="811" y="0"/>
      <point x="706" y="80"/>
      <point x="647" y="210" type="curve"/>
      <point x="602" y="108"/>
      <point x="467" y="0"/>
      <point x="315" y="0" type="curve" smooth="yes"/>
      <point x="160" y="0"/>
      <point x="64" y="132"/>
      <point x="64" y="301" type="curve" smooth="yes"/>
      <point x="64" y="607"/>
      <point x="296" y="958"/>
      <point x="603" y="958" type="curve" smooth="yes"/>
      <point x="672" y="958"/>
      <point x="661" y="909"/>
      <point x="747" y="842" type="curve"/>
      <point x="812" y="915"/>
      <point x="892" y="959"/>
      <point x="987" y="959" type="curve" smooth="yes"/>
      <point x="1141" y="959"/>
      <point x="1250" y="863"/>
      <point x="1250" y="709" type="curve" smooth="yes"/>
      <point x="1250" y="486"/>
      <point x="1026" y="340"/>
    </contour>
    <contour>
      <point x="1072" y="678" type="curve" smooth="yes"/>
      <point x="1072" y="731"/>
      <point x="1047" y="771"/>
      <point x="999" y="771" type="curve" smooth="yes"/>
      <point x="870" y="771"/>
      <point x="823" y="573"/>
      <point x="823" y="437" type="curve"/>
      <point x="903" y="470"/>
      <point x="1072" y="558"/>
    </contour>
  </outline>
</glyph>
<glyph name="dotlessi" format="1">
  <advance width="537"/>
  <unicode hex="0131"/>
  <outline>
    <contour>
      <point x="352" y="290" type="curve" smooth="yes"/>
      <point x="352" y="240"/>
      <point x="357" y="192"/>
      <point x="403" y="192" type="curve" smooth="yes"/>
      <point x="534" y="192"/>
      <point x="658" y="352"/>
      <point x="736" y="416" type="curve"/>
      <point x="736" y="213" type="line"/>
      <point x="636" y="121"/>
      <point x="466" y="0"/>
      <point x="282" y="0" type="curve" smooth="yes"/>
      <point x="151" y="0"/>
      <point x="96" y="71"/>
      <point x="96" y="201" type="curve" smooth="yes"/>
      <point x="96" y="438"/>
      <point x="182" y="661"/>
      <point x="232" y="863" type="curve" smooth="yes"/>
      <point x="248" y="928"/>
      <point x="335" y="960"/>
      <point x="414" y="960" type="curve" smooth="yes"/>
      <point x="462" y="960"/>
      <point x="486" y="945"/>
      <point x="486" y="903" type="curve" smooth="yes"/>
      <point x="486" y="695"/>
      <point x="352" y="514"/>
    </contour>
  </outline>
</glyph>
<glyph name="florin" format="1">
  <advance width="1314"/>
  <unicode hex="0192"/>
  <outline>
    <contour>
      <point x="268" y="960" type="curve" smooth="yes"/>
      <point x="268" y="1046"/>
      <point x="329" y="1062"/>
      <point x="410" y="1062" type="curve" smooth="yes"/>
      <point x="458" y="1062"/>
      <point x="513" y="1056"/>
      <point x="566" y="1056" type="curve"/>
      <point x="618" y="1425"/>
      <point x="705" y="1837"/>
      <point x="1123" y="1837" type="curve" smooth="yes"/>
      <point x="1231" y="1837"/>
      <point x="1377" y="1795"/>
      <point x="1377" y="1686" type="curve" smooth="yes"/>
      <point x="1377" y="1621"/>
      <point x="1333" y="1542"/>
      <point x="1267" y="1542" type="curve" smooth="yes"/>
      <point x="1199" y="1542"/>
      <point x="1162" y="1613"/>
      <point x="1089" y="1613" type="curve" smooth="yes"/>
      <point x="878" y="1613"/>
      <point x="836" y="1256"/>
      <point x="801" y="1056" type="curve"/>
      <point x="1068" y="1056" type="line" smooth="yes"/>
      <point x="1129" y="1056"/>
      <point x="1164" y="1022"/>
      <point x="1164" y="960" type="curve" smooth="yes"/>
      <point x="1164" y="901"/>
      <point x="1124" y="864"/>
      <point x="1068" y="864" type="curve" smooth="yes"/>
      <point x="771" y="864" type="line"/>
      <point x="689" y="486"/>
      <point x="665" y="-128"/>
      <point x="214" y="-128" type="curve" smooth="yes"/>
      <point x="116" y="-128"/>
      <point x="10" y="-78"/>
      <point x="10" y="23" type="curve" smooth="yes"/>
      <point x="10" y="88"/>
      <point x="54" y="167"/>
      <point x="120" y="167" type="curve" smooth="yes"/>
      <point x="163" y="167"/>
      <point x="180" y="96"/>
      <point x="228" y="96" type="curve" smooth="yes"/>
      <point x="428" y="96"/>
      <point x="463" y="411"/>
      <point x="495" y="590" type="curve" smooth="yes"/>
      <point x="509" y="668"/>
      <point x="523" y="760"/>
      <point x="536" y="864" type="curve"/>
      <point x="364" y="864" type="line" smooth="yes"/>
      <point x="297" y="864"/>
      <point x="268" y="894"/>
    </contour>
  </outline>
</glyph>
<glyph name="emdash" format="1">
  <advance width="1120"/>
  <unicode hex="2014"/>
  <outline>
    <contour>
      <point x="157" y="384" type="line" smooth="yes"/>
      <point x="97" y="384"/>
      <point x="63" y="430"/>
      <point x="63" y="492" type="curve" smooth="yes"/>
      <point x="63" y="578"/>
      <point x="101" y="608"/>
      <point x="185" y="608" type="curve" smooth="yes"/>
      <point x="935" y="608" type="line" smooth="yes"/>
      <point x="1006" y="608"/>
      <point x="1056" y="587"/>
      <point x="1056" y="518" type="curve" smooth="yes"/>
      <point x="1056" y="434"/>
      <point x="1016" y="384"/>
      <point x="931" y="384" type="curve" smooth="yes"/>
    </contour>
  </outline>
</glyph>
<glyph name="quoteleft" format="1">
  <advance width="704"/>
  <unicode hex="2018"/>
  <outline>
    <contour>
      <point x="408" y="1855" type="curve" smooth="yes"/>
      <point x="443" y="1855"/>
      <point x="469" y="1820"/>
      <point x="469" y="1772" type="curve" smooth="yes"/>
      <point x="469" y="1767"/>
      <point x="469" y="1762"/>
      <point x="468" y="1757" type="curve" smooth="yes"/>
      <point x="416" y="1312" type="line" smooth="yes"/>
      <point x="406" y="1230"/>
      <point x="352" y="1184"/>
      <point x="288" y="1184" type="curve" smooth="yes"/>
      <point x="221" y="1184"/>
      <point x="170" y="1219"/>
      <point x="170" y="1293" type="curve" smooth="yes"/>
      <point x="170" y="1447"/>
      <point x="259" y="1629"/>
      <point x="306" y="1760" type="curve"/>
      <point x="321" y="1809"/>
      <point x="356" y="1855"/>
    </contour>
  </outline>
</glyph>
<glyph name="quotedblbase" format="1">
  <advance width="1025"/>
  <unicode hex="201E"/>
  <outline>
    <contour>
      <point x="368" y="-191" type="curve" smooth="yes"/>
      <point x="321" y="-191"/>
      <point x="287" y="-158"/>
      <point x="287" y="-109" type="curve" smooth="yes"/>
      <point x="287" y="10"/>
      <point x="347" y="128"/>
      <point x="377" y="237" type="curve" smooth="yes"/>
      <point x="392" y="291"/>
      <point x="445" y="321"/>
      <point x="514" y="321" type="curve" smooth="yes"/>
      <point x="592" y="321"/>
      <point x="671" y="282"/>
      <point x="671" y="205" type="curve" smooth="yes"/>
      <point x="671" y="143"/>
      <point x="631" y="102"/>
      <point x="604" y="60" type="curve" smooth="yes"/>
      <point x="582" y="26"/>
      <point x="580" y="26"/>
      <point x="558" y="-8" type="curve" smooth="yes"/>
      <point x="514" y="-75"/>
      <point x="470" y="-191"/>
    </contour>
    <contour>
      <point x="759" y="-191" type="curve" smooth="yes"/>
      <point x="712" y="-191"/>
      <point x="678" y="-158"/>
      <point x="678" y="-109" type="curve" smooth="yes"/>
      <point x="678" y="10"/>
      <point x="738" y="128"/>
      <point x="768" y="237" type="curve" smooth="yes"/>
      <point x="783" y="291"/>
      <point x="836" y="321"/>
      <point x="905" y="321" type="curve" smooth="yes"/>
      <point x="983" y="321"/>
      <point x="1062" y="282"/>
      <point x="1062" y="205" type="curve" smooth="yes"/>
      <point x="1062" y="143"/>
      <point x="1021" y="102"/>
      <point x="994" y="60" type="curve" smooth="yes"/>
      <point x="950" y="-8" type="line" smooth="yes"/>
      <point x="906" y="-75"/>
      <point x="861" y="-191"/>
    </contour>
  </outline>
</glyph>
<glyph name="daggerdbl" format="1">
  <advance width="1152"/>
  <unicode hex="2021"/>
  <outline>
    <contour>
      <point x="750" y="1525" type="curve" smooth="yes"/>
      <point x="750" y="1415"/>
      <point x="717" y="1323"/>
      <point x="694" y="1216" type="curve"/>
      <point x="939" y="1216" type="line" smooth="yes"/>
      <point x="990" y="1216"/>
      <point x="1024" y="1189"/>
      <point x="1024" y="1137" type="curve" smooth="yes"/>
      <point x="1024" y="1071"/>
      <point x="984" y="1055"/>
      <point x="920" y="1055" type="curve" smooth="yes"/>
      <point x="660" y="1055" type="line"/>
      <point x="640" y="961"/>
      <point x="619" y="862"/>
      <point x="598" y="769" type="curve"/>
      <point x="843" y="769" type="line" smooth="yes"/>
      <point x="894" y="769"/>
      <point x="928" y="742"/>
      <point x="928" y="690" type="curve" smooth="yes"/>
      <point x="928" y="624"/>
      <point x="888" y="608"/>
      <point x="824" y="608" type="curve" smooth="yes"/>
      <point x="562" y="608" type="line"/>
      <point x="527" y="457"/>
      <point x="532" y="255"/>
      <point x="352" y="255" type="curve" smooth="yes"/>
      <point x="295" y="255"/>
      <point x="280" y="312"/>
      <point x="280" y="369" type="curve" smooth="yes"/>
      <point x="280" y="453"/>
      <point x="307" y="524"/>
      <point x="326" y="608" type="curve"/>
      <point x="128" y="608" type="line" smooth="yes"/>
      <point x="66" y="608"/>
      <point x="32" y="623"/>
      <point x="32" y="682" type="curve" smooth="yes"/>
      <point x="32" y="741"/>
      <point x="79" y="769"/>
      <point x="138" y="769" type="curve" smooth="yes"/>
      <point x="364" y="769" type="line"/>
      <point x="433" y="1055" type="line"/>
      <point x="224" y="1055" type="line" smooth="yes"/>
      <point x="162" y="1055"/>
      <point x="128" y="1070"/>
      <point x="128" y="1129" type="curve" smooth="yes"/>
      <point x="128" y="1188"/>
      <point x="175" y="1216"/>
      <point x="234" y="1216" type="curve" smooth="yes"/>
      <point x="470" y="1216" type="line"/>
      <point x="507" y="1370"/>
      <point x="500" y="1606"/>
      <point x="687" y="1606" type="curve" smooth="yes"/>
      <point x="734" y="1606"/>
      <point x="750" y="1572"/>
    </contour>
  </outline>
</glyph>
<glyph name="Ph" format="1">
  <advance width="2254"/>
  <outline>
    <contour>
      <point x="1643" y="1020" type="curve"/>
      <point x="1828" y="1229"/>
      <point x="2114" y="1592"/>
      <point x="2114" y="1695" type="curve" smooth="yes"/>
      <point x="2114" y="1727"/>
      <point x="2098" y="1745"/>
      <point x="2064" y="1745" type="curve" smooth="yes"/>
      <point x="1886" y="1745"/>
      <point x="1738" y="1372"/>
    </contour>
    <contour>
      <point x="100" y="667" type="curve" smooth="yes"/>
      <point x="100" y="1259"/>
      <point x="382" y="1823"/>
      <point x="958" y="1823" type="curve" smooth="yes"/>
      <point x="1333" y="1823"/>
      <point x="1557" y="1702"/>
      <point x="1650" y="1538" type="curve"/>
      <point x="1782" y="1768"/>
      <point x="1945" y="1927"/>
      <point x="2126" y="1927" type="curve" smooth="yes"/>
      <point x="2233" y="1927"/>
      <point x="2293" y="1876"/>
      <point x="2293" y="1778" type="curve" smooth="yes"/>
      <point x="2293" y="1597"/>
      <point x="2086" y="1255"/>
      <point x="1585" y="779" type="curve"/>
      <point x="1549" y="612"/>
      <point x="1530" y="475"/>
      <point x="1530" y="425" type="curve"/>
      <point x="1603" y="619"/>
      <point x="1882" y="978"/>
      <point x="2116" y="978" type="curve" smooth="yes"/>
      <point x="2175" y="978"/>
      <point x="2203" y="931"/>
      <point x="2203" y="868" type="curve" smooth="yes"/>
      <point x="2203" y="673"/>
      <point x="2082" y="503"/>
      <point x="2082" y="301" type="curve" smooth="yes"/>
      <point x="2082" y="269"/>
      <point x="2087" y="236"/>
      <point x="2116" y="236" type="curve" smooth="yes"/>
      <point x="2258" y="236"/>
      <point x="2372" y="394"/>
      <point x="2441" y="478" type="curve"/>
      <point x="2458" y="212" type="line"/>
      <point x="2357" y="134"/>
      <point x="2215" y="0"/>
      <point x="2046" y="0" type="curve" smooth="yes"/>
      <point x="1916" y="0"/>
      <point x="1832" y="100"/>
      <point x="1832" y="226" type="curve" smooth="yes"/>
      <point x="1832" y="363"/>
      <point x="1879" y="598"/>
      <point x="1955" y="674" type="curve"/>
      <point x="1934" y="677" type="line"/>
      <point x="1735" y="548"/>
      <point x="1647" y="250"/>
      <point x="1518" y="44" type="curve"/>
      <point x="1491" y="19"/>
      <point x="1461" y="0"/>
      <point x="1397" y="0" type="curve" smooth="yes"/>
      <point x="1302" y="0"/>
      <point x="1300" y="126"/>
      <point x="1300" y="223" type="curve" smooth="yes"/>
      <point x="1300" y="401"/>
      <point x="1331" y="624"/>
      <point x="1387" y="850" type="curve"/>
      <point x="1287" y="786"/>
      <point x="1165" y="735"/>
      <point x="1023" y="706" type="curve"/>
      <point x="1021" y="650"/>
      <point x="1019" y="599"/>
      <point x="1018" y="552" type="curve" smooth="yes"/>
      <point x="1016" y="500" type="line" smooth="yes"/>
      <point x="1015" y="463"/>
      <point x="1013" y="427"/>
      <point x="1013" y="393" type="curve" smooth="yes"/>
      <point x="1004" y="81"/>
      <point x="853" y="-255"/>
      <point x="536" y="-255" type="curve" smooth="yes"/>
      <point x="172" y="-255"/>
      <point x="100" y="308"/>
    </contour>
    <contour>
      <point x="935" y="1588" type="curve" smooth="yes"/>
      <point x="518" y="1588"/>
      <point x="368" y="1113"/>
      <point x="368" y="693" type="curve" smooth="yes"/>
      <point x="368" y="589" type="line" smooth="yes"/>
      <point x="368" y="347"/>
      <point x="380" y="-21"/>
      <point x="558" y="-21" type="curve" smooth="yes"/>
      <point x="770" y="-21"/>
      <point x="775" y="406"/>
      <point x="775" y="627" type="curve" smooth="yes"/>
      <point x="775" y="694" type="line"/>
      <point x="663" y="735"/>
      <point x="536" y="760"/>
      <point x="536" y="888" type="curve" smooth="yes"/>
      <point x="536" y="931"/>
      <point x="536" y="985"/>
      <point x="579" y="985" type="curve" smooth="yes"/>
      <point x="641" y="985"/>
      <point x="706" y="923"/>
      <point x="765" y="910" type="curve"/>
      <point x="765" y="1114"/>
      <point x="794" y="1370"/>
      <point x="990" y="1370" type="curve" smooth="yes"/>
      <point x="1049" y="1370"/>
      <point x="1098" y="1347"/>
      <point x="1098" y="1287" type="curve" smooth="yes"/>
      <point x="1098" y="1278"/>
      <point x="1097" y="1278"/>
      <point x="1097" y="1271" type="curve"/>
      <point x="1038" y="1000" type="line"/>
      <point x="1029" y="921" type="line"/>
      <point x="1348" y="993"/>
      <point x="1511" y="1153"/>
      <point x="1511" y="1300" type="curve" smooth="yes"/>
      <point x="1511" y="1451"/>
      <point x="1321" y="1588"/>
    </contour>
  </outline>
</glyph>
<glyph name="and" format="1">
  <advance width="2350"/>
  <outline>
    <contour>
      <point x="297" y="-67" type="curve" smooth="yes"/>
      <point x="821" y="98"/>
      <point x="1120" y="188"/>
      <point x="1661" y="275" type="curve" smooth="yes"/>
      <point x="1802" y="307"/>
      <point x="1910" y="316"/>
      <point x="2023" y="316" type="curve" smooth="yes"/>
      <point x="2115" y="316"/>
      <point x="2210" y="310"/>
      <point x="2327" y="305" type="curve" smooth="yes"/>
      <point x="2345" y="304"/>
      <point x="2361" y="277"/>
      <point x="2361" y="259" type="curve" smooth="yes"/>
      <point x="2361" y="252"/>
      <point x="2358" y="246"/>
      <point x="2351" y="245" type="curve" smooth="yes"/>
      <point x="2000" y="164"/>
      <point x="1795" y="180"/>
      <point x="1443" y="100" type="curve" smooth="yes"/>
      <point x="995" y="26"/>
      <point x="754" y="-78"/>
      <point x="306" y="-151" type="curve" smooth="yes"/>
      <point x="305" y="-152" type="line" smooth="yes"/>
      <point x="300" y="-152"/>
      <point x="284" y="-116"/>
      <point x="284" y="-91" type="curve" smooth="yes"/>
      <point x="284" y="-79"/>
      <point x="287" y="-70"/>
    </contour>
    <contour>
      <point x="2387" y="658" type="curve"/>
      <point x="2319" y="591"/>
      <point x="2227" y="483"/>
      <point x="2119" y="483" type="curve" smooth="yes"/>
      <point x="2027" y="483"/>
      <point x="1968" y="541"/>
      <point x="1939" y="598" type="curve"/>
      <point x="1882" y="527"/>
      <point x="1802" y="438"/>
      <point x="1695" y="438" type="curve" smooth="yes"/>
      <point x="1609" y="438"/>
      <point x="1551" y="476"/>
      <point x="1520" y="531" type="curve"/>
      <point x="1472" y="459"/>
      <point x="1405" y="392"/>
      <point x="1322" y="392" type="curve" smooth="yes"/>
      <point x="1238" y="392"/>
      <point x="1203" y="490"/>
      <point x="1203" y="579" type="curve" smooth="yes"/>
      <point x="1203" y="665"/>
      <point x="1201" y="745"/>
      <point x="1200" y="825" type="curve"/>
      <point x="1188" y="823" type="line"/>
      <point x="1013" y="415" type="line" smooth="yes"/>
      <point x="997" y="377"/>
      <point x="981" y="354"/>
      <point x="942" y="354" type="curve" smooth="yes"/>
      <point x="875" y="354"/>
      <point x="850" y="392"/>
      <point x="841" y="441" type="curve"/>
      <point x="788" y="377"/>
      <point x="719" y="322"/>
      <point x="640" y="322" type="curve" smooth="yes"/>
      <point x="553" y="322"/>
      <point x="517" y="371"/>
      <point x="489" y="428" type="curve"/>
      <point x="444" y="361"/>
      <point x="364" y="284"/>
      <point x="269" y="284" type="curve" smooth="yes"/>
      <point x="140" y="284"/>
      <point x="60" y="368"/>
      <point x="60" y="474" type="curve" smooth="yes"/>
      <point x="60" y="714"/>
      <point x="181" y="912"/>
      <point x="311" y="988" type="curve" smooth="yes"/>
      <point x="344" y="1008"/>
      <point x="376" y="1020"/>
      <point x="409" y="1020" type="curve" smooth="yes"/>
      <point x="467" y="1020"/>
      <point x="456" y="976"/>
      <point x="522" y="976" type="curve"/>
      <point x="556" y="979" type="line"/>
      <point x="605" y="979"/>
      <point x="617" y="955"/>
      <point x="617" y="915" type="curve" smooth="yes"/>
      <point x="617" y="792"/>
      <point x="606" y="688"/>
      <point x="606" y="563" type="curve" smooth="yes"/>
      <point x="606" y="528"/>
      <point x="607" y="492"/>
      <point x="646" y="492" type="curve" smooth="yes"/>
      <point x="721" y="492"/>
      <point x="784" y="585"/>
      <point x="823" y="640" type="curve"/>
      <point x="824" y="658"/>
      <point x="824" y="679"/>
      <point x="824" y="701" type="curve" smooth="yes"/>
      <point x="824" y="735" type="line" smooth="yes"/>
      <point x="824" y="883"/>
      <point x="827" y="1077"/>
      <point x="931" y="1077" type="curve" smooth="yes"/>
      <point x="993" y="1077"/>
      <point x="1012" y="1043"/>
      <point x="1012" y="994" type="curve" smooth="yes"/>
      <point x="1012" y="918"/>
      <point x="1007" y="821"/>
      <point x="1005" y="771" type="curve"/>
      <point x="1020" y="773" type="line"/>
      <point x="1061" y="854"/>
      <point x="1101" y="947"/>
      <point x="1144" y="1027" type="curve" smooth="yes"/>
      <point x="1168" y="1080"/>
      <point x="1201" y="1109"/>
      <point x="1259" y="1109" type="curve" smooth="yes"/>
      <point x="1325" y="1109"/>
      <point x="1353" y="1059"/>
      <point x="1353" y="1001" type="curve" smooth="yes"/>
      <point x="1353" y="867"/>
      <point x="1349" y="715"/>
      <point x="1349" y="632" type="curve" smooth="yes"/>
      <point x="1349" y="579"/>
      <point x="1366" y="553"/>
      <point x="1398" y="553" type="curve" smooth="yes"/>
      <point x="1434" y="553"/>
      <point x="1471" y="629"/>
      <point x="1479" y="672" type="curve"/>
      <point x="1483" y="920"/>
      <point x="1631" y="1112"/>
      <point x="1815" y="1133" type="curve"/>
      <point x="1820" y="1398"/>
      <point x="1878" y="1680"/>
      <point x="2010" y="1788" type="curve" smooth="yes"/>
      <point x="2038" y="1815"/>
      <point x="2068" y="1828"/>
      <point x="2099" y="1828" type="curve" smooth="yes"/>
      <point x="2221" y="1828"/>
      <point x="2251" y="1722"/>
      <point x="2251" y="1623" type="curve" smooth="yes"/>
      <point x="2251" y="1329"/>
      <point x="2143" y="1119"/>
      <point x="2079" y="903" type="curve" smooth="yes"/>
      <point x="2070" y="870"/>
      <point x="2070" y="819"/>
      <point x="2070" y="772" type="curve" smooth="yes"/>
      <point x="2070" y="728"/>
      <point x="2078" y="669"/>
      <point x="2134" y="669" type="curve" smooth="yes"/>
      <point x="2220" y="669"/>
      <point x="2296" y="772"/>
      <point x="2347" y="828" type="curve"/>
      <point x="2361" y="843"/>
      <point x="2372" y="849"/>
      <point x="2381" y="849" type="curve" smooth="yes"/>
      <point x="2402" y="849"/>
      <point x="2410" y="813"/>
      <point x="2410" y="772" type="curve" smooth="yes"/>
      <point x="2410" y="725"/>
      <point x="2400" y="670"/>
    </contour>
    <contour>
      <point x="248" y="526" type="curve" smooth="yes"/>
      <point x="248" y="481"/>
      <point x="260" y="433"/>
      <point x="316" y="433" type="curve" smooth="yes"/>
      <point x="383" y="433"/>
      <point x="415" y="583"/>
      <point x="422" y="658" type="curve" smooth="yes"/>
      <point x="444" y="881" type="line"/>
      <point x="326" y="881"/>
      <point x="248" y="673"/>
    </contour>
    <contour>
      <point x="1661" y="666" type="curve" smooth="yes"/>
      <point x="1661" y="619"/>
      <point x="1679" y="585"/>
      <point x="1730" y="585" type="curve" smooth="yes"/>
      <point x="1795" y="585"/>
      <point x="1844" y="658"/>
      <point x="1875" y="705" type="curve"/>
      <point x="1864" y="725"/>
      <point x="1830" y="1022"/>
      <point x="1830" y="1022" type="curve"/>
      <point x="1743" y="967"/>
      <point x="1661" y="827"/>
    </contour>
    <contour>
      <point x="2119" y="1583" type="curve" smooth="yes"/>
      <point x="2119" y="1617"/>
      <point x="2118" y="1652"/>
      <point x="2085" y="1652" type="curve" smooth="yes"/>
      <point x="2012" y="1652"/>
      <point x="2008" y="1161"/>
      <point x="2008" y="1047" type="curve"/>
      <point x="2012" y="1009" type="line"/>
      <point x="2060" y="1168"/>
      <point x="2119" y="1363"/>
    </contour>
  </outline>
</glyph>
<glyph name="c.fina" format="1">
  <advance width="756"/>
  <outline>
    <contour>
      <point x="483" y="-2" type="curve" smooth="yes"/>
      <point x="215" y="-2"/>
      <point x="64" y="162"/>
      <point x="64" y="413" type="curve" smooth="yes"/>
      <point x="64" y="682"/>
      <point x="209" y="960"/>
      <point x="474" y="960" type="curve" smooth="yes"/>
      <point x="621" y="960"/>
      <point x="736" y="874"/>
      <point x="736" y="729" type="curve" smooth="yes"/>
      <point x="736" y="638"/>
      <point x="691" y="544"/>
      <point x="602" y="544" type="curve" smooth="yes"/>
      <point x="540" y="544"/>
      <point x="526" y="578"/>
      <point x="526" y="638" type="curve" smooth="yes"/>
      <point x="526" y="660"/>
      <point x="529" y="690"/>
      <point x="529" y="712" type="curve" smooth="yes"/>
      <point x="529" y="739"/>
      <point x="527" y="768"/>
      <point x="502" y="768" type="curve" smooth="yes"/>
      <point x="351" y="768"/>
      <point x="320" y="566"/>
      <point x="320" y="414" type="curve" smooth="yes"/>
      <point x="320" y="279"/>
      <point x="376" y="188"/>
      <point x="527" y="188" type="curve" smooth="yes"/>
      <point x="720" y="188"/>
      <point x="900" y="348"/>
      <point x="1005" y="447" type="curve" smooth="yes"/>
      <point x="1025" y="466"/>
      <point x="1038" y="477"/>
      <point x="1051" y="477" type="curve" smooth="yes"/>
      <point x="1104" y="477"/>
      <point x="1152" y="423"/>
      <point x="1152" y="386" type="curve" smooth="yes"/>
      <point x="1152" y="360"/>
      <point x="1148" y="333"/>
      <point x="1134" y="317" type="curve" smooth="yes"/>
      <point x="1033" y="209"/>
      <point x="806" y="-2"/>
    </contour>
  </outline>
</glyph>
<glyph name="ch" format="1">
  <advance width="1890"/>
  <outline>
    <contour>
      <point x="748" y="782" type="curve" smooth="yes"/>
      <point x="748" y="703"/>
      <point x="672" y="650"/>
      <point x="631" y="650" type="curve" smooth="yes"/>
      <point x="544" y="650"/>
      <point x="462" y="768"/>
      <point x="462" y="768" type="curve" smooth="yes"/>
      <point x="344" y="768"/>
      <point x="320" y="566"/>
      <point x="320" y="414" type="curve" smooth="yes"/>
      <point x="320" y="296"/>
      <point x="360" y="192"/>
      <point x="480" y="192" type="curve" smooth="yes"/>
      <point x="613" y="192"/>
      <point x="732" y="354"/>
      <point x="795" y="437" type="curve" smooth="yes"/>
      <point x="803" y="447"/>
      <point x="812" y="451"/>
      <point x="820" y="451" type="curve" smooth="yes"/>
      <point x="850" y="451"/>
      <point x="870" y="390"/>
      <point x="870" y="350" type="curve" smooth="yes"/>
      <point x="870" y="338"/>
      <point x="868" y="327"/>
      <point x="864" y="321" type="curve" smooth="yes"/>
      <point x="774" y="178"/>
      <point x="655" y="0"/>
      <point x="437" y="0" type="curve" smooth="yes"/>
      <point x="199" y="0"/>
      <point x="64" y="177"/>
      <point x="64" y="413" type="curve" smooth="yes"/>
      <point x="64" y="631"/>
      <point x="160" y="855"/>
      <point x="337" y="932" type="curve"/>
      <point x="262" y="1015"/>
      <point x="188" y="1100"/>
      <point x="188" y="1173" type="curve" smooth="yes"/>
      <point x="188" y="1378"/>
      <point x="495" y="1485"/>
      <point x="603" y="1485" type="curve" smooth="yes"/>
      <point x="733" y="1485"/>
      <point x="906" y="1465"/>
      <point x="1063" y="1420" type="curve"/>
      <point x="1095" y="1526"/>
      <point x="1136" y="1623"/>
      <point x="1186" y="1706" type="curve" smooth="yes"/>
      <point x="1244" y="1803"/>
      <point x="1330" y="1928"/>
      <point x="1455" y="1928" type="curve" smooth="yes"/>
      <point x="1601" y="1928"/>
      <point x="1673" y="1809"/>
      <point x="1673" y="1696" type="curve" smooth="yes"/>
      <point x="1673" y="1508"/>
      <point x="1505" y="1268"/>
      <point x="1228" y="1219" type="curve"/>
      <point x="1188" y="1059"/>
      <point x="1160" y="885"/>
      <point x="1158" y="710" type="curve" smooth="yes"/>
      <point x="1154" y="396" type="line"/>
      <point x="1295" y="622" type="line"/>
      <point x="1380" y="734"/>
      <point x="1483" y="865"/>
      <point x="1602" y="942" type="curve" smooth="yes"/>
      <point x="1638" y="966"/>
      <point x="1673" y="978"/>
      <point x="1705" y="978" type="curve" smooth="yes"/>
      <point x="1764" y="978"/>
      <point x="1792" y="931"/>
      <point x="1792" y="868" type="curve" smooth="yes"/>
      <point x="1792" y="673"/>
      <point x="1671" y="503"/>
      <point x="1671" y="301" type="curve" smooth="yes"/>
      <point x="1671" y="269"/>
      <point x="1676" y="236"/>
      <point x="1705" y="236" type="curve" smooth="yes"/>
      <point x="1831" y="236"/>
      <point x="1934" y="367"/>
      <point x="2000" y="438" type="curve" smooth="yes"/>
      <point x="2014" y="453"/>
      <point x="2026" y="458"/>
      <point x="2035" y="458" type="curve" smooth="yes"/>
      <point x="2056" y="458"/>
      <point x="2064" y="427"/>
      <point x="2064" y="384" type="curve" smooth="yes"/>
      <point x="2064" y="319"/>
      <point x="2054" y="222"/>
      <point x="2047" y="212" type="curve"/>
      <point x="1946" y="134"/>
      <point x="1804" y="0"/>
      <point x="1635" y="0" type="curve" smooth="yes"/>
      <point x="1505" y="0"/>
      <point x="1421" y="100"/>
      <point x="1421" y="226" type="curve" smooth="yes"/>
      <point x="1421" y="384"/>
      <point x="1480" y="534"/>
      <point x="1531" y="648" type="curve" smooth="yes"/>
      <point x="1538" y="663"/>
      <point x="1542" y="672"/>
      <point x="1544" y="674" type="curve"/>
      <point x="1523" y="677" type="line"/>
      <point x="1425" y="614"/>
      <point x="1337" y="462"/>
      <point x="1268" y="354" type="curve" smooth="yes"/>
      <point x="1207" y="258"/>
      <point x="1167" y="141"/>
      <point x="1106" y="44" type="curve" smooth="yes"/>
      <point x="1090" y="19"/>
      <point x="1074" y="0"/>
      <point x="1036" y="0" type="curve" smooth="yes"/>
      <point x="941" y="0"/>
      <point x="939" y="126"/>
      <point x="939" y="223" type="curve" smooth="yes"/>
      <point x="939" y="562"/>
      <point x="953" y="915"/>
      <point x="1013" y="1217" type="curve"/>
      <point x="865" y="1236"/>
      <point x="730" y="1285"/>
      <point x="593" y="1285" type="curve" smooth="yes"/>
      <point x="542" y="1285"/>
      <point x="374" y="1248"/>
      <point x="374" y="1126" type="curve" smooth="yes"/>
      <point x="374" y="1080"/>
      <point x="402" y="1034"/>
      <point x="510" y="958" type="curve"/>
      <point x="627" y="946"/>
      <point x="748" y="877"/>
    </contour>
    <contour>
      <point x="1289" y="1430" type="curve"/>
      <point x="1381" y="1505"/>
      <point x="1462" y="1651"/>
      <point x="1462" y="1707" type="curve" smooth="yes"/>
      <point x="1462" y="1721"/>
      <point x="1457" y="1729"/>
      <point x="1446" y="1729" type="curve" smooth="yes"/>
      <point x="1375" y="1729"/>
      <point x="1324" y="1546"/>
    </contour>
  </outline>
</glyph>
<glyph name="f.fina" format="1">
  <advance width="887"/>
  <outline>
    <contour>
      <point x="491" y="657" type="curve"/>
      <point x="702" y="658"/>
      <point x="835" y="681"/>
      <point x="1024" y="681" type="curve" smooth="yes"/>
      <point x="1047" y="681"/>
      <point x="1060" y="651"/>
      <point x="1060" y="612" type="curve" smooth="yes"/>
      <point x="1060" y="557"/>
      <point x="980" y="529"/>
      <point x="874" y="514" type="curve"/>
      <point x="763" y="501"/>
      <point x="629" y="499"/>
      <point x="514" y="497" type="curve"/>
      <point x="570" y="356"/>
      <point x="633" y="182"/>
      <point x="633" y="-29" type="curve" smooth="yes"/>
      <point x="633" y="-267"/>
      <point x="530" y="-604"/>
      <point x="270" y="-604" type="curve" smooth="yes"/>
      <point x="62" y="-604"/>
      <point x="34" y="-276"/>
      <point x="34" y="-38" type="curve" smooth="yes"/>
      <point x="34" y="521"/>
      <point x="226" y="1856"/>
      <point x="782" y="1856" type="curve" smooth="yes"/>
      <point x="907" y="1856"/>
      <point x="982" y="1762"/>
      <point x="982" y="1624" type="curve" smooth="yes"/>
      <point x="982" y="1271"/>
      <point x="691" y="894"/>
    </contour>
    <contour>
      <point x="302" y="-379" type="curve" smooth="yes"/>
      <point x="421" y="-379"/>
      <point x="422" y="-173"/>
      <point x="422" y="-62" type="curve" smooth="yes"/>
      <point x="422" y="-57" type="line" smooth="yes"/>
      <point x="422" y="187"/>
      <point x="358" y="384"/>
      <point x="286" y="522" type="curve"/>
      <point x="277" y="330"/>
      <point x="259" y="144"/>
      <point x="259" y="-47" type="curve" smooth="yes"/>
      <point x="259" y="-187"/>
      <point x="263" y="-379"/>
    </contour>
    <contour>
      <point x="795" y="1529" type="curve" smooth="yes"/>
      <point x="795" y="1583"/>
      <point x="786" y="1631"/>
      <point x="745" y="1631" type="curve" smooth="yes"/>
      <point x="516" y="1631"/>
      <point x="356" y="775"/>
      <point x="330" y="686" type="curve"/>
      <point x="486" y="879"/>
      <point x="795" y="1266"/>
    </contour>
  </outline>
</glyph>
<glyph name="g.fina" format="1">
  <advance width="880"/>
  <outline>
    <contour>
      <point x="126" y="-646" type="curve" smooth="yes"/>
      <point x="309" y="-646"/>
      <point x="384" y="-380"/>
      <point x="414" y="-246" type="curve"/>
      <point x="303" y="-308"/>
      <point x="86" y="-459"/>
      <point x="86" y="-609" type="curve" smooth="yes"/>
      <point x="86" y="-634"/>
      <point x="99" y="-646"/>
    </contour>
    <contour>
      <point x="274" y="324" type="curve" smooth="yes"/>
      <point x="274" y="260"/>
      <point x="288" y="192"/>
      <point x="352" y="192" type="curve" smooth="yes"/>
      <point x="460" y="192"/>
      <point x="505" y="380"/>
      <point x="524" y="474" type="curve" smooth="yes"/>
      <point x="585" y="768" type="line"/>
      <point x="398" y="768"/>
      <point x="274" y="508"/>
    </contour>
    <contour>
      <point x="669" y="14" type="curve"/>
      <point x="754" y="26"/>
      <point x="836" y="51"/>
      <point x="975" y="51" type="curve" smooth="yes"/>
      <point x="1023" y="51"/>
      <point x="1104" y="-39"/>
      <point x="1104" y="-105" type="curve" smooth="yes"/>
      <point x="1104" y="-142"/>
      <point x="1078" y="-172"/>
      <point x="1008" y="-175" type="curve" smooth="yes"/>
      <point x="862" y="-181"/>
      <point x="751" y="-190"/>
      <point x="637" y="-208" type="curve"/>
      <point x="579" y="-497"/>
      <point x="472" y="-838"/>
      <point x="114" y="-838" type="curve" smooth="yes"/>
      <point x="-22" y="-838"/>
      <point x="-110" y="-780"/>
      <point x="-110" y="-639" type="curve" smooth="yes"/>
      <point x="-110" y="-331"/>
      <point x="236" y="-155"/>
      <point x="448" y="-38" type="curve"/>
      <point x="495" y="105" type="line"/>
      <point x="439" y="55"/>
      <point x="361" y="-2"/>
      <point x="269" y="-2" type="curve" smooth="yes"/>
      <point x="115" y="-2"/>
      <point x="18" y="123"/>
      <point x="18" y="281" type="curve" smooth="yes"/>
      <point x="18" y="583"/>
      <point x="211" y="834"/>
      <point x="422" y="928" type="curve" smooth="yes"/>
      <point x="466" y="948"/>
      <point x="511" y="958"/>
      <point x="557" y="958" type="curve" smooth="yes"/>
      <point x="630" y="958"/>
      <point x="617" y="882"/>
      <point x="701" y="882" type="curve" smooth="yes"/>
      <point x="716" y="882"/>
      <point x="731" y="883"/>
      <point x="746" y="883" type="curve" smooth="yes"/>
      <point x="803" y="883"/>
      <point x="818" y="849"/>
      <point x="818" y="790" type="curve" smooth="yes"/>
      <point x="818" y="515"/>
      <point x="731" y="272"/>
    </contour>
  </outline>
</glyph>
<glyph name="i_t" format="1">
  <advance width="1217"/>
  <outline>
    <contour>
      <point x="423" y="1119" type="curve" smooth="yes"/>
      <point x="303" y="1119"/>
      <point x="231" y="1170"/>
      <point x="231" y="1271" type="curve" smooth="yes"/>
      <point x="231" y="1375"/>
      <point x="326" y="1438"/>
      <point x="447" y="1438" type="curve" smooth="yes"/>
      <point x="528" y="1438"/>
      <point x="587" y="1396"/>
      <point x="587" y="1298" type="curve" smooth="yes"/>
      <point x="587" y="1185"/>
      <point x="521" y="1119"/>
    </contour>
    <contour>
      <point x="1305" y="1074" type="curve" smooth="yes"/>
      <point x="1439" y="1074"/>
      <point x="1493" y="1081"/>
      <point x="1493" y="975" type="curve" smooth="yes"/>
      <point x="1493" y="951"/>
      <point x="1466" y="927"/>
      <point x="1429" y="927" type="curve" smooth="yes"/>
      <point x="1045" y="927" type="line"/>
      <point x="1010" y="868"/>
      <point x="968" y="802"/>
      <point x="932" y="748" type="curve"/>
      <point x="925" y="640"/>
      <point x="919" y="533"/>
      <point x="919" y="420" type="curve" smooth="yes"/>
      <point x="919" y="304"/>
      <point x="954" y="224"/>
      <point x="1066" y="224" type="curve" smooth="yes"/>
      <point x="1234" y="224"/>
      <point x="1408" y="386"/>
      <point x="1493" y="480" type="curve"/>
      <point x="1493" y="224" type="line"/>
      <point x="1409" y="120"/>
      <point x="1193" y="0"/>
      <point x="1002" y="0" type="curve" smooth="yes"/>
      <point x="853" y="0"/>
      <point x="767" y="94"/>
      <point x="718" y="223" type="curve"/>
      <point x="617" y="124"/>
      <point x="452" y="0"/>
      <point x="274" y="0" type="curve" smooth="yes"/>
      <point x="143" y="0"/>
      <point x="88" y="71"/>
      <point x="88" y="201" type="curve" smooth="yes"/>
      <point x="88" y="438"/>
      <point x="174" y="661"/>
      <point x="224" y="863" type="curve" smooth="yes"/>
      <point x="240" y="928"/>
      <point x="327" y="960"/>
      <point x="406" y="960" type="curve" smooth="yes"/>
      <point x="454" y="960"/>
      <point x="478" y="940"/>
      <point x="478" y="883" type="curve" smooth="yes"/>
      <point x="478" y="806"/>
      <point x="344" y="507"/>
      <point x="344" y="290" type="curve" smooth="yes"/>
      <point x="344" y="240"/>
      <point x="349" y="192"/>
      <point x="395" y="192" type="curve" smooth="yes"/>
      <point x="504" y="192"/>
      <point x="608" y="275"/>
      <point x="679" y="349" type="curve"/>
      <point x="677" y="377"/>
      <point x="677" y="407"/>
      <point x="677" y="439" type="curve" smooth="yes"/>
      <point x="677" y="591"/>
      <point x="693" y="774"/>
      <point x="712" y="928" type="curve"/>
      <point x="621" y="928" type="line"/>
      <point x="575" y="935"/>
      <point x="557" y="963"/>
      <point x="557" y="1027" type="curve" smooth="yes"/>
      <point x="557" y="1070"/>
      <point x="592" y="1079"/>
      <point x="632" y="1079" type="curve" smooth="yes"/>
      <point x="660" y="1079"/>
      <point x="690" y="1075"/>
      <point x="714" y="1075" type="curve" smooth="yes"/>
      <point x="724" y="1075"/>
      <point x="733" y="1076"/>
      <point x="740" y="1078" type="curve"/>
      <point x="788" y="1323"/>
      <point x="870" y="1589"/>
      <point x="1014" y="1732" type="curve" smooth="yes"/>
      <point x="1055" y="1772"/>
      <point x="1097" y="1792"/>
      <point x="1142" y="1792" type="curve" smooth="yes"/>
      <point x="1276" y="1792"/>
      <point x="1333" y="1637"/>
      <point x="1333" y="1499" type="curve" smooth="yes"/>
      <point x="1333" y="1326"/>
      <point x="1231" y="1189"/>
      <point x="1156" y="1075" type="curve"/>
      <point x="1167" y="1074"/>
      <point x="1182" y="1073"/>
      <point x="1201" y="1073" type="curve" smooth="yes"/>
      <point x="1230" y="1073"/>
      <point x="1268" y="1074"/>
    </contour>
    <contour>
      <point x="992" y="1073" type="curve"/>
      <point x="1054" y="1179"/>
      <point x="1173" y="1341"/>
      <point x="1173" y="1490" type="curve" smooth="yes"/>
      <point x="1173" y="1532"/>
      <point x="1163" y="1568"/>
      <point x="1120" y="1568" type="curve" smooth="yes"/>
      <point x="1013" y="1568"/>
      <point x="953" y="1178"/>
      <point x="931" y="1080" type="curve"/>
      <point x="952" y="1077"/>
      <point x="971" y="1076"/>
    </contour>
  </outline>
</glyph>
<glyph name="l.fina" format="1">
  <advance width="844"/>
  <outline>
    <contour>
      <point x="683" y="1593" type="curve" smooth="yes"/>
      <point x="683" y="1620"/>
      <point x="673" y="1641"/>
      <point x="652" y="1641" type="curve" smooth="yes"/>
      <point x="426" y="1641"/>
      <point x="342" y="975"/>
      <point x="342" y="740" type="curve"/>
      <point x="464" y="955"/>
      <point x="587" y="1198"/>
      <point x="658" y="1460" type="curve" smooth="yes"/>
      <point x="671" y="1508"/>
      <point x="683" y="1552"/>
    </contour>
    <contour>
      <point x="352" y="461" type="curve" smooth="yes"/>
      <point x="352" y="353"/>
      <point x="373" y="208"/>
      <point x="506" y="208" type="curve" smooth="yes"/>
      <point x="636" y="208"/>
      <point x="799" y="349"/>
      <point x="896" y="417" type="curve" smooth="yes"/>
      <point x="914" y="430"/>
      <point x="932" y="434"/>
      <point x="946" y="434" type="curve" smooth="yes"/>
      <point x="971" y="434"/>
      <point x="989" y="383"/>
      <point x="989" y="334" type="curve" smooth="yes"/>
      <point x="989" y="325"/>
      <point x="988" y="317"/>
      <point x="987" y="309" type="curve"/>
      <point x="920" y="158"/>
      <point x="710" y="-11"/>
      <point x="461" y="-11" type="curve" smooth="yes"/>
      <point x="179" y="-11"/>
      <point x="94" y="262"/>
      <point x="94" y="519" type="curve" smooth="yes"/>
      <point x="94" y="998"/>
      <point x="209" y="1476"/>
      <point x="424" y="1748" type="curve" smooth="yes"/>
      <point x="494" y="1837"/>
      <point x="587" y="1920"/>
      <point x="727" y="1920" type="curve" smooth="yes"/>
      <point x="842" y="1920"/>
      <point x="871" y="1810"/>
      <point x="871" y="1694" type="curve" smooth="yes"/>
      <point x="871" y="1215"/>
      <point x="590" y="841"/>
      <point x="370" y="565" type="curve" smooth="yes"/>
      <point x="355" y="546"/>
      <point x="352" y="498"/>
    </contour>
  </outline>
</glyph>
<glyph name="l_k" format="1">
  <advance width="1785"/>
  <outline>
    <contour>
      <point x="1350" y="1682" type="curve" smooth="yes"/>
      <point x="1238" y="1682"/>
      <point x="1192" y="1487"/>
      <point x="1164" y="1397" type="curve" smooth="yes"/>
      <point x="1097" y="1186"/>
      <point x="1071" y="936"/>
      <point x="1052" y="685" type="curve"/>
      <point x="1146" y="966"/>
      <point x="1252" y="1251"/>
      <point x="1342" y="1523" type="curve" smooth="yes"/>
      <point x="1355" y="1562"/>
      <point x="1371" y="1607"/>
      <point x="1371" y="1650" type="curve" smooth="yes"/>
      <point x="1371" y="1671"/>
      <point x="1364" y="1682"/>
    </contour>
    <contour>
      <point x="330" y="461" type="curve" smooth="yes"/>
      <point x="330" y="397"/>
      <point x="340" y="244"/>
      <point x="396" y="244" type="curve" smooth="yes"/>
      <point x="545" y="244"/>
      <point x="720" y="384"/>
      <point x="828" y="486" type="curve"/>
      <point x="846" y="949"/>
      <point x="919" y="1402"/>
      <point x="1096" y="1698" type="curve" smooth="yes"/>
      <point x="1156" y="1799"/>
      <point x="1247" y="1907"/>
      <point x="1400" y="1907" type="curve" smooth="yes"/>
      <point x="1533" y="1907"/>
      <point x="1572" y="1817"/>
      <point x="1572" y="1685" type="curve" smooth="yes"/>
      <point x="1572" y="1320"/>
      <point x="1386" y="996"/>
      <point x="1249" y="752" type="curve"/>
      <point x="1136" y="572" type="line"/>
      <point x="1154" y="559" type="line"/>
      <point x="1260" y="686"/>
      <point x="1339" y="845"/>
      <point x="1475" y="930" type="curve" smooth="yes"/>
      <point x="1509" y="951"/>
      <point x="1548" y="962"/>
      <point x="1591" y="962" type="curve" smooth="yes"/>
      <point x="1701" y="962"/>
      <point x="1763" y="889"/>
      <point x="1763" y="776" type="curve" smooth="yes"/>
      <point x="1763" y="590"/>
      <point x="1575" y="447"/>
      <point x="1504" y="320" type="curve" smooth="yes"/>
      <point x="1490" y="296"/>
      <point x="1483" y="276"/>
      <point x="1483" y="260" type="curve" smooth="yes"/>
      <point x="1483" y="211"/>
      <point x="1506" y="193"/>
      <point x="1555" y="193" type="curve" smooth="yes"/>
      <point x="1703" y="193"/>
      <point x="1835" y="393"/>
      <point x="1909" y="456" type="curve"/>
      <point x="1899" y="231" type="line"/>
      <point x="1793" y="121"/>
      <point x="1690" y="-1"/>
      <point x="1472" y="-1" type="curve" smooth="yes"/>
      <point x="1351" y="-1"/>
      <point x="1254" y="86"/>
      <point x="1254" y="205" type="curve" smooth="yes"/>
      <point x="1254" y="390"/>
      <point x="1395" y="509"/>
      <point x="1468" y="638" type="curve" smooth="yes"/>
      <point x="1475" y="650"/>
      <point x="1479" y="662"/>
      <point x="1479" y="671" type="curve" smooth="yes"/>
      <point x="1479" y="689"/>
      <point x="1466" y="694"/>
      <point x="1444" y="694" type="curve" smooth="yes"/>
      <point x="1404" y="694"/>
      <point x="1377" y="626"/>
      <point x="1347" y="587" type="curve" smooth="yes"/>
      <point x="1270" y="486" type="line" smooth="yes"/>
      <point x="1179" y="367"/>
      <point x="1094" y="-8"/>
      <point x="913" y="-8" type="curve" smooth="yes"/>
      <point x="842" y="-8"/>
      <point x="825" y="108"/>
      <point x="823" y="208" type="curve"/>
      <point x="678" y="88"/>
      <point x="524" y="0"/>
      <point x="329" y="0" type="curve" smooth="yes"/>
      <point x="139" y="0"/>
      <point x="72" y="320"/>
      <point x="72" y="519" type="curve" smooth="yes"/>
      <point x="72" y="998"/>
      <point x="187" y="1476"/>
      <point x="402" y="1748" type="curve" smooth="yes"/>
      <point x="472" y="1837"/>
      <point x="565" y="1920"/>
      <point x="705" y="1920" type="curve" smooth="yes"/>
      <point x="820" y="1920"/>
      <point x="849" y="1810"/>
      <point x="849" y="1694" type="curve" smooth="yes"/>
      <point x="849" y="1341"/>
      <point x="682" y="1047"/>
      <point x="534" y="821" type="curve" smooth="yes"/>
      <point x="474" y="729"/>
      <point x="411" y="644"/>
      <point x="348" y="565" type="curve" smooth="yes"/>
      <point x="333" y="546"/>
      <point x="330" y="498"/>
    </contour>
    <contour>
      <point x="661" y="1593" type="curve" smooth="yes"/>
      <point x="661" y="1620"/>
      <point x="651" y="1641"/>
      <point x="630" y="1641" type="curve" smooth="yes"/>
      <point x="404" y="1641"/>
      <point x="320" y="975"/>
      <point x="320" y="740" type="curve"/>
      <point x="442" y="955"/>
      <point x="565" y="1198"/>
      <point x="636" y="1460" type="curve" smooth="yes"/>
      <point x="649" y="1508"/>
      <point x="661" y="1552"/>
    </contour>
  </outline>
</glyph>
<glyph name="l_t" format="1">
  <advance width="1380"/>
  <outline>
    <contour>
      <point x="330" y="461" type="curve" smooth="yes"/>
      <point x="330" y="391"/>
      <point x="340" y="224"/>
      <point x="396" y="224" type="curve" smooth="yes"/>
      <point x="553" y="224"/>
      <point x="699" y="503"/>
      <point x="805" y="682" type="curve"/>
      <point x="815" y="744"/>
      <point x="837" y="878"/>
      <point x="843" y="922" type="curve"/>
      <point x="751" y="922"/>
      <point x="695" y="967"/>
      <point x="695" y="1019" type="curve" smooth="yes"/>
      <point x="695" y="1072"/>
      <point x="749" y="1080"/>
      <point x="822" y="1080" type="curve" smooth="yes"/>
      <point x="871" y="1080" type="line"/>
      <point x="919" y="1324"/>
      <point x="1001" y="1589"/>
      <point x="1145" y="1732" type="curve" smooth="yes"/>
      <point x="1186" y="1772"/>
      <point x="1228" y="1792"/>
      <point x="1273" y="1792" type="curve" smooth="yes"/>
      <point x="1407" y="1792"/>
      <point x="1464" y="1637"/>
      <point x="1464" y="1499" type="curve" smooth="yes"/>
      <point x="1464" y="1329"/>
      <point x="1362" y="1192"/>
      <point x="1287" y="1080" type="curve"/>
      <point x="1298" y="1079"/>
      <point x="1313" y="1080"/>
      <point x="1332" y="1080" type="curve" smooth="yes"/>
      <point x="1360" y="1080" type="line" smooth="yes"/>
      <point x="1451" y="1080"/>
      <point x="1504" y="1075"/>
      <point x="1504" y="1001" type="curve" smooth="yes"/>
      <point x="1504" y="961"/>
      <point x="1477" y="922"/>
      <point x="1440" y="922" type="curve" smooth="yes"/>
      <point x="1176" y="922" type="line"/>
      <point x="1095" y="753"/>
      <point x="1036" y="663"/>
      <point x="1036" y="531" type="curve" smooth="yes"/>
      <point x="1036" y="311"/>
      <point x="1101" y="204"/>
      <point x="1211" y="204" type="curve" smooth="yes"/>
      <point x="1357" y="204"/>
      <point x="1477" y="381"/>
      <point x="1554" y="470" type="curve" smooth="yes"/>
      <point x="1562" y="479"/>
      <point x="1572" y="484"/>
      <point x="1584" y="484" type="curve" smooth="yes"/>
      <point x="1617" y="484"/>
      <point x="1657" y="450"/>
      <point x="1657" y="399" type="curve" smooth="yes"/>
      <point x="1657" y="379"/>
      <point x="1651" y="355"/>
      <point x="1634" y="331" type="curve" smooth="yes"/>
      <point x="1518" y="150"/>
      <point x="1375" y="-9"/>
      <point x="1192" y="-9" type="curve" smooth="yes"/>
      <point x="946" y="-9"/>
      <point x="853" y="176"/>
      <point x="820" y="396" type="curve"/>
      <point x="687" y="196"/>
      <point x="517" y="0"/>
      <point x="329" y="0" type="curve" smooth="yes"/>
      <point x="139" y="0"/>
      <point x="72" y="320"/>
      <point x="72" y="519" type="curve" smooth="yes"/>
      <point x="72" y="998"/>
      <point x="187" y="1476"/>
      <point x="402" y="1748" type="curve" smooth="yes"/>
      <point x="472" y="1837"/>
      <point x="565" y="1920"/>
      <point x="705" y="1920" type="curve" smooth="yes"/>
      <point x="820" y="1920"/>
      <point x="849" y="1810"/>
      <point x="849" y="1694" type="curve" smooth="yes"/>
      <point x="849" y="1341"/>
      <point x="682" y="1047"/>
      <point x="534" y="821" type="curve" smooth="yes"/>
      <point x="474" y="729"/>
      <point x="411" y="644"/>
      <point x="348" y="565" type="curve" smooth="yes"/>
      <point x="333" y="546"/>
      <point x="330" y="498"/>
    </contour>
    <contour>
      <point x="661" y="1593" type="curve" smooth="yes"/>
      <point x="661" y="1620"/>
      <point x="651" y="1641"/>
      <point x="630" y="1641" type="curve" smooth="yes"/>
      <point x="404" y="1641"/>
      <point x="320" y="975"/>
      <point x="320" y="740" type="curve"/>
      <point x="442" y="955"/>
      <point x="565" y="1198"/>
      <point x="636" y="1460" type="curve" smooth="yes"/>
      <point x="649" y="1508"/>
      <point x="661" y="1552"/>
    </contour>
    <contour>
      <point x="1062" y="1080" type="curve"/>
      <point x="1083" y="1081"/>
      <point x="1102" y="1080"/>
      <point x="1123" y="1080" type="curve"/>
      <point x="1182" y="1178"/>
      <point x="1247" y="1294"/>
      <point x="1287" y="1408" type="curve" smooth="yes"/>
      <point x="1298" y="1441"/>
      <point x="1304" y="1469"/>
      <point x="1304" y="1490" type="curve" smooth="yes"/>
      <point x="1304" y="1532"/>
      <point x="1294" y="1568"/>
      <point x="1251" y="1568" type="curve" smooth="yes"/>
      <point x="1144" y="1568"/>
      <point x="1084" y="1178"/>
    </contour>
  </outline>
</glyph>
<glyph name="m.fina" format="1">
  <advance width="1336"/>
  <outline>
    <contour>
      <point x="1276" y="192" type="curve" smooth="yes"/>
      <point x="1365" y="192"/>
      <point x="1447" y="271"/>
      <point x="1537" y="311" type="curve" smooth="yes"/>
      <point x="1539" y="312"/>
      <point x="1540" y="312"/>
      <point x="1542" y="312" type="curve" smooth="yes"/>
      <point x="1566" y="312"/>
      <point x="1591" y="246"/>
      <point x="1591" y="199" type="curve" smooth="yes"/>
      <point x="1591" y="84"/>
      <point x="1312" y="-9"/>
      <point x="1208" y="-9" type="curve" smooth="yes"/>
      <point x="1034" y="-9"/>
      <point x="981" y="139"/>
      <point x="981" y="287" type="curve" smooth="yes"/>
      <point x="981" y="392"/>
      <point x="989" y="491"/>
      <point x="1010" y="588" type="curve"/>
      <point x="995" y="588" type="line"/>
      <point x="792" y="71" type="line" smooth="yes"/>
      <point x="771" y="19"/>
      <point x="729" y="0"/>
      <point x="660" y="0" type="curve" smooth="yes"/>
      <point x="574" y="0"/>
      <point x="562" y="101"/>
      <point x="562" y="187" type="curve" smooth="yes"/>
      <point x="562" y="327"/>
      <point x="593" y="452"/>
      <point x="616" y="585" type="curve"/>
      <point x="601" y="585" type="line"/>
      <point x="490" y="446"/>
      <point x="436" y="252"/>
      <point x="346" y="70" type="curve" smooth="yes"/>
      <point x="324" y="26"/>
      <point x="297" y="0"/>
      <point x="241" y="0" type="curve" smooth="yes"/>
      <point x="132" y="0"/>
      <point x="114" y="100"/>
      <point x="114" y="209" type="curve" smooth="yes"/>
      <point x="114" y="439"/>
      <point x="159" y="678"/>
      <point x="218" y="862" type="curve" smooth="yes"/>
      <point x="236" y="916"/>
      <point x="282" y="964"/>
      <point x="346" y="964" type="curve" smooth="yes"/>
      <point x="400" y="964"/>
      <point x="443" y="926"/>
      <point x="443" y="868" type="curve" smooth="yes"/>
      <point x="443" y="747"/>
      <point x="379" y="594"/>
      <point x="363" y="518" type="curve"/>
      <point x="374" y="506" type="line"/>
      <point x="443" y="657"/>
      <point x="539" y="834"/>
      <point x="660" y="933" type="curve" smooth="yes"/>
      <point x="682" y="951"/>
      <point x="707" y="960"/>
      <point x="737" y="960" type="curve" smooth="yes"/>
      <point x="794" y="960"/>
      <point x="839" y="924"/>
      <point x="839" y="866" type="curve" smooth="yes"/>
      <point x="839" y="812"/>
      <point x="784" y="518"/>
      <point x="784" y="518" type="curve"/>
      <point x="795" y="506" type="line"/>
      <point x="865" y="668"/>
      <point x="953" y="825"/>
      <point x="1057" y="932" type="curve" smooth="yes"/>
      <point x="1075" y="951"/>
      <point x="1100" y="960"/>
      <point x="1128" y="960" type="curve" smooth="yes"/>
      <point x="1189" y="960"/>
      <point x="1240" y="927"/>
      <point x="1240" y="866" type="curve" smooth="yes"/>
      <point x="1240" y="778"/>
      <point x="1194" y="422"/>
      <point x="1194" y="311" type="curve" smooth="yes"/>
      <point x="1194" y="247"/>
      <point x="1202" y="192"/>
    </contour>
  </outline>
</glyph>
<glyph name="o_o" format="1">
  <advance width="1689"/>
  <outline>
    <contour>
      <point x="1157" y="396" type="curve" smooth="yes"/>
      <point x="1157" y="287"/>
      <point x="1193" y="192"/>
      <point x="1302" y="192" type="curve" smooth="yes"/>
      <point x="1420" y="192"/>
      <point x="1477" y="425"/>
      <point x="1477" y="551" type="curve" smooth="yes"/>
      <point x="1477" y="650"/>
      <point x="1456" y="768"/>
      <point x="1360" y="768" type="curve" smooth="yes"/>
      <point x="1225" y="768"/>
      <point x="1157" y="538"/>
    </contour>
    <contour>
      <point x="1978" y="354" type="curve" smooth="yes"/>
      <point x="1978" y="313"/>
      <point x="1954" y="298"/>
      <point x="1914" y="298" type="curve" smooth="yes"/>
      <point x="1880" y="298"/>
      <point x="1846" y="315"/>
      <point x="1834" y="355" type="curve" smooth="yes"/>
      <point x="1770" y="576"/>
      <point x="1666" y="699"/>
      <point x="1611" y="749" type="curve"/>
      <point x="1644" y="683"/>
      <point x="1669" y="595"/>
      <point x="1669" y="503" type="curve" smooth="yes"/>
      <point x="1669" y="246"/>
      <point x="1517" y="0"/>
      <point x="1263" y="0" type="curve" smooth="yes"/>
      <point x="1041" y="0"/>
      <point x="944" y="217"/>
      <point x="943" y="462" type="curve"/>
      <point x="902" y="426"/>
      <point x="857" y="405"/>
      <point x="808" y="405" type="curve" smooth="yes"/>
      <point x="797" y="405"/>
      <point x="790" y="407"/>
      <point x="785" y="410" type="curve"/>
      <point x="745" y="236"/>
      <point x="663" y="0"/>
      <point x="407" y="0" type="curve" smooth="yes"/>
      <point x="176" y="0"/>
      <point x="77" y="206"/>
      <point x="77" y="437" type="curve" smooth="yes"/>
      <point x="77" y="739"/>
      <point x="253" y="960"/>
      <point x="555" y="960" type="curve" smooth="yes"/>
      <point x="738" y="960"/>
      <point x="836" y="808"/>
      <point x="836" y="618" type="curve" smooth="yes"/>
      <point x="836" y="607"/>
      <point x="841" y="602"/>
      <point x="851" y="602" type="curve" smooth="yes"/>
      <point x="906" y="602"/>
      <point x="945" y="636"/>
      <point x="980" y="686" type="curve"/>
      <point x="1051" y="853"/>
      <point x="1201" y="960"/>
      <point x="1411" y="960" type="curve" smooth="yes"/>
      <point x="1662" y="960"/>
      <point x="1828" y="783"/>
      <point x="1923" y="546" type="curve"/>
      <point x="1935" y="511"/>
      <point x="1978" y="415"/>
    </contour>
    <contour>
      <point x="271" y="446" type="curve" smooth="yes"/>
      <point x="271" y="313"/>
      <point x="314" y="192"/>
      <point x="446" y="192" type="curve" smooth="yes"/>
      <point x="553" y="192"/>
      <point x="618" y="340"/>
      <point x="618" y="440" type="curve"/>
      <point x="553" y="481"/>
      <point x="459" y="538"/>
      <point x="459" y="641" type="curve" smooth="yes"/>
      <point x="459" y="686"/>
      <point x="488" y="722"/>
      <point x="510" y="746" type="curve" smooth="yes"/>
      <point x="516" y="753"/>
      <point x="519" y="758"/>
      <point x="519" y="762" type="curve" smooth="yes"/>
      <point x="519" y="766"/>
      <point x="514" y="768"/>
      <point x="504" y="768" type="curve" smooth="yes"/>
      <point x="364" y="768"/>
      <point x="271" y="588"/>
    </contour>
  </outline>
</glyph>
<glyph name="o_s" format="1">
  <advance width="1561"/>
  <outline>
    <contour>
      <point x="261" y="446" type="curve" smooth="yes"/>
      <point x="261" y="313"/>
      <point x="304" y="192"/>
      <point x="436" y="192" type="curve" smooth="yes"/>
      <point x="545" y="192"/>
      <point x="611" y="352"/>
      <point x="611" y="461" type="curve"/>
      <point x="545" y="498"/>
      <point x="449" y="549"/>
      <point x="449" y="641" type="curve" smooth="yes"/>
      <point x="449" y="686"/>
      <point x="478" y="722"/>
      <point x="500" y="746" type="curve" smooth="yes"/>
      <point x="506" y="753"/>
      <point x="509" y="758"/>
      <point x="509" y="762" type="curve" smooth="yes"/>
      <point x="509" y="766"/>
      <point x="504" y="768"/>
      <point x="494" y="768" type="curve" smooth="yes"/>
      <point x="354" y="768"/>
      <point x="261" y="588"/>
    </contour>
    <contour>
      <point x="1129" y="605" type="curve"/>
      <point x="1082" y="523"/>
      <point x="960" y="407"/>
      <point x="788" y="407" type="curve" smooth="yes"/>
      <point x="777" y="407"/>
      <point x="770" y="409"/>
      <point x="765" y="412" type="curve"/>
      <point x="726" y="237"/>
      <point x="646" y="0"/>
      <point x="397" y="0" type="curve" smooth="yes"/>
      <point x="166" y="0"/>
      <point x="67" y="206"/>
      <point x="67" y="437" type="curve" smooth="yes"/>
      <point x="67" y="739"/>
      <point x="243" y="960"/>
      <point x="545" y="960" type="curve" smooth="yes"/>
      <point x="728" y="960"/>
      <point x="826" y="808"/>
      <point x="826" y="618" type="curve" smooth="yes"/>
      <point x="826" y="607"/>
      <point x="831" y="602"/>
      <point x="841" y="602" type="curve" smooth="yes"/>
      <point x="986" y="602"/>
      <point x="1070" y="762"/>
      <point x="1143" y="864" type="curve" smooth="yes"/>
      <point x="1176" y="910"/>
      <point x="1217" y="960"/>
      <point x="1294" y="960" type="curve" smooth="yes"/>
      <point x="1391" y="960"/>
      <point x="1423" y="925"/>
      <point x="1423" y="878" type="curve" smooth="yes"/>
      <point x="1423" y="822"/>
      <point x="1377" y="750"/>
      <point x="1341" y="706" type="curve" smooth="yes"/>
      <point x="1329" y="691"/>
      <point x="1321" y="679"/>
      <point x="1320" y="672" type="curve"/>
      <point x="1329" y="541"/>
      <point x="1417" y="447"/>
      <point x="1417" y="316" type="curve" smooth="yes"/>
      <point x="1417" y="288"/>
      <point x="1413" y="258"/>
      <point x="1403" y="226" type="curve"/>
      <point x="1497" y="251"/>
      <point x="1586" y="309"/>
      <point x="1668" y="374" type="curve" smooth="yes"/>
      <point x="1705" y="403"/>
      <point x="1728" y="416"/>
      <point x="1743" y="416" type="curve" smooth="yes"/>
      <point x="1778" y="416"/>
      <point x="1767" y="343"/>
      <point x="1779" y="224" type="curve"/>
      <point x="1632" y="101"/>
      <point x="1392" y="-9"/>
      <point x="1131" y="-9" type="curve" smooth="yes"/>
      <point x="971" y="-9"/>
      <point x="867" y="54"/>
      <point x="842" y="190" type="curve"/>
      <point x="870" y="243"/>
      <point x="899" y="256"/>
      <point x="930" y="256" type="curve" smooth="yes"/>
      <point x="981" y="256"/>
      <point x="1011" y="160"/>
      <point x="1080" y="160" type="curve" smooth="yes"/>
      <point x="1177" y="160"/>
      <point x="1207" y="220"/>
      <point x="1207" y="292" type="curve" smooth="yes"/>
      <point x="1207" y="400"/>
      <point x="1162" y="530"/>
    </contour>
  </outline>
</glyph>
<glyph name="p.fina" format="1">
  <advance width="846"/>
  <outline>
    <contour>
      <point x="-24" y="-441" type="curve" smooth="yes"/>
      <point x="-24" y="-484"/>
      <point x="0" y="-549"/>
      <point x="44" y="-549" type="curve" smooth="yes"/>
      <point x="111" y="-549"/>
      <point x="114" y="-313"/>
      <point x="114" y="-173" type="curve" smooth="yes"/>
      <point x="114" y="-90" type="line"/>
      <point x="27" y="-211"/>
      <point x="-24" y="-322"/>
    </contour>
    <contour>
      <point x="324" y="278" type="curve"/>
      <point x="567" y="290"/>
      <point x="673" y="460"/>
      <point x="673" y="636" type="curve" smooth="yes"/>
      <point x="673" y="710"/>
      <point x="630" y="774"/>
      <point x="529" y="774" type="curve" smooth="yes"/>
      <point x="333" y="774"/>
      <point x="324" y="457"/>
    </contour>
    <contour>
      <point x="870" y="621" type="curve" smooth="yes"/>
      <point x="870" y="320"/>
      <point x="731" y="114"/>
      <point x="346" y="114" type="curve" smooth="yes"/>
      <point x="342" y="114" type="line"/>
      <point x="348" y="25" type="line"/>
      <point x="348" y="-286"/>
      <point x="282" y="-581"/>
      <point x="119" y="-721" type="curve" smooth="yes"/>
      <point x="75" y="-759"/>
      <point x="29" y="-778"/>
      <point x="-18" y="-778" type="curve" smooth="yes"/>
      <point x="-162" y="-778"/>
      <point x="-219" y="-644"/>
      <point x="-219" y="-498" type="curve" smooth="yes"/>
      <point x="-219" y="-235"/>
      <point x="-59" y="-72"/>
      <point x="108" y="56" type="curve"/>
      <point x="105" y="139"/>
      <point x="104" y="219"/>
      <point x="104" y="297" type="curve" smooth="yes"/>
      <point x="104" y="686"/>
      <point x="217" y="960"/>
      <point x="517" y="960" type="curve" smooth="yes"/>
      <point x="750" y="960"/>
      <point x="870" y="837"/>
    </contour>
  </outline>
</glyph>
<glyph name="p_t" format="1">
  <advance width="1505"/>
  <outline>
    <contour>
      <point x="1170" y="757" type="curve"/>
      <point x="1169" y="570" type="line"/>
      <point x="1169" y="359"/>
      <point x="1220" y="204"/>
      <point x="1360" y="204" type="curve" smooth="yes"/>
      <point x="1523" y="204"/>
      <point x="1657" y="388"/>
      <point x="1743" y="480" type="curve" smooth="yes"/>
      <point x="1751" y="489"/>
      <point x="1761" y="494"/>
      <point x="1773" y="494" type="curve" smooth="yes"/>
      <point x="1806" y="494"/>
      <point x="1846" y="460"/>
      <point x="1846" y="409" type="curve" smooth="yes"/>
      <point x="1846" y="389"/>
      <point x="1840" y="365"/>
      <point x="1823" y="341" type="curve" smooth="yes"/>
      <point x="1696" y="155"/>
      <point x="1541" y="-9"/>
      <point x="1341" y="-9" type="curve" smooth="yes"/>
      <point x="1061" y="-9"/>
      <point x="974" y="221"/>
      <point x="951" y="474" type="curve"/>
      <point x="794" y="248"/>
      <point x="557" y="135"/>
      <point x="337" y="97" type="curve"/>
      <point x="337" y="25" type="line" smooth="yes"/>
      <point x="337" y="-286"/>
      <point x="275" y="-582"/>
      <point x="119" y="-721" type="curve" smooth="yes"/>
      <point x="76" y="-760"/>
      <point x="29" y="-778"/>
      <point x="-18" y="-778" type="curve" smooth="yes"/>
      <point x="-184" y="-778"/>
      <point x="-215" y="-634"/>
      <point x="-215" y="-499" type="curve"/>
      <point x="-215" y="-199"/>
      <point x="-33" y="4"/>
      <point x="104" y="194" type="curve"/>
      <point x="104" y="461"/>
      <point x="166" y="960"/>
      <point x="497" y="960" type="curve" smooth="yes"/>
      <point x="729" y="960"/>
      <point x="840" y="821"/>
      <point x="840" y="684" type="curve" smooth="yes"/>
      <point x="840" y="593"/>
      <point x="799" y="506"/>
      <point x="733" y="422" type="curve"/>
      <point x="852" y="522"/>
      <point x="885" y="634"/>
      <point x="941" y="746" type="curve"/>
      <point x="945" y="806"/>
      <point x="953" y="868"/>
      <point x="962" y="922" type="curve"/>
      <point x="856" y="922"/>
      <point x="791" y="967"/>
      <point x="791" y="1019" type="curve" smooth="yes"/>
      <point x="791" y="1072"/>
      <point x="845" y="1080"/>
      <point x="918" y="1080" type="curve" smooth="yes"/>
      <point x="990" y="1080" type="line"/>
      <point x="1038" y="1324"/>
      <point x="1120" y="1589"/>
      <point x="1264" y="1732" type="curve" smooth="yes"/>
      <point x="1305" y="1772"/>
      <point x="1347" y="1792"/>
      <point x="1392" y="1792" type="curve" smooth="yes"/>
      <point x="1526" y="1792"/>
      <point x="1583" y="1637"/>
      <point x="1583" y="1499" type="curve" smooth="yes"/>
      <point x="1583" y="1329"/>
      <point x="1481" y="1192"/>
      <point x="1406" y="1080" type="curve"/>
      <point x="1417" y="1079"/>
      <point x="1432" y="1080"/>
      <point x="1451" y="1080" type="curve" smooth="yes"/>
      <point x="1599" y="1080" type="line" smooth="yes"/>
      <point x="1690" y="1080"/>
      <point x="1743" y="1075"/>
      <point x="1743" y="1001" type="curve" smooth="yes"/>
      <point x="1743" y="961"/>
      <point x="1716" y="922"/>
      <point x="1679" y="922" type="curve" smooth="yes"/>
      <point x="1295" y="922" type="line"/>
      <point x="1261" y="879"/>
      <point x="1217" y="819"/>
    </contour>
    <contour>
      <point x="115" y="20" type="curve"/>
      <point x="46" y="-102"/>
      <point x="-24" y="-295"/>
      <point x="-24" y="-471" type="curve" smooth="yes"/>
      <point x="-24" y="-499"/>
      <point x="-21" y="-550"/>
      <point x="29" y="-550" type="curve" smooth="yes"/>
      <point x="112" y="-550"/>
      <point x="114" y="-341"/>
      <point x="114" y="-193" type="curve" smooth="yes"/>
      <point x="114" y="-173" type="line" smooth="yes"/>
      <point x="114" y="-110"/>
      <point x="114" y="-37"/>
    </contour>
    <contour>
      <point x="336" y="279" type="curve"/>
      <point x="494" y="346"/>
      <point x="641" y="471"/>
      <point x="652" y="656" type="curve" smooth="yes"/>
      <point x="652" y="660"/>
      <point x="653" y="663"/>
      <point x="653" y="666" type="curve" smooth="yes"/>
      <point x="653" y="724"/>
      <point x="610" y="774"/>
      <point x="509" y="774" type="curve" smooth="yes"/>
      <point x="343" y="774"/>
      <point x="336" y="458"/>
    </contour>
    <contour>
      <point x="1181" y="1080" type="curve"/>
      <point x="1202" y="1081"/>
      <point x="1221" y="1080"/>
      <point x="1242" y="1080" type="curve"/>
      <point x="1301" y="1178"/>
      <point x="1366" y="1294"/>
      <point x="1406" y="1408" type="curve" smooth="yes"/>
      <point x="1417" y="1441"/>
      <point x="1423" y="1469"/>
      <point x="1423" y="1490" type="curve" smooth="yes"/>
      <point x="1423" y="1532"/>
      <point x="1413" y="1568"/>
      <point x="1370" y="1568" type="curve" smooth="yes"/>
      <point x="1263" y="1568"/>
      <point x="1203" y="1178"/>
    </contour>
  </outline>
</glyph>
<glyph name="r_s" format="1">
  <advance width="1641"/>
  <outline>
    <contour>
      <point x="108" y="209" type="curve" smooth="yes"/>
      <point x="108" y="404"/>
      <point x="136" y="960"/>
      <point x="322" y="960" type="curve" smooth="yes"/>
      <point x="392" y="960"/>
      <point x="394" y="939"/>
      <point x="394" y="869" type="curve" smooth="yes"/>
      <point x="394" y="780" type="line" smooth="yes"/>
      <point x="394" y="745"/>
      <point x="395" y="710"/>
      <point x="396" y="676" type="curve"/>
      <point x="407" y="676" type="line"/>
      <point x="460" y="783"/>
      <point x="526" y="960"/>
      <point x="682" y="960" type="curve" smooth="yes"/>
      <point x="739" y="960"/>
      <point x="780" y="923"/>
      <point x="780" y="866" type="curve" smooth="yes"/>
      <point x="780" y="816"/>
      <point x="749" y="695"/>
      <point x="749" y="604" type="curve" smooth="yes"/>
      <point x="749" y="523"/>
      <point x="786" y="495"/>
      <point x="835" y="495" type="curve" smooth="yes"/>
      <point x="1029" y="495"/>
      <point x="1108" y="745"/>
      <point x="1174" y="864" type="curve" smooth="yes"/>
      <point x="1201" y="913"/>
      <point x="1248" y="960"/>
      <point x="1325" y="960" type="curve" smooth="yes"/>
      <point x="1422" y="960"/>
      <point x="1454" y="925"/>
      <point x="1454" y="878" type="curve" smooth="yes"/>
      <point x="1454" y="822"/>
      <point x="1408" y="750"/>
      <point x="1372" y="706" type="curve" smooth="yes"/>
      <point x="1360" y="691"/>
      <point x="1352" y="679"/>
      <point x="1351" y="672" type="curve"/>
      <point x="1361" y="655"/>
      <point x="1400" y="615"/>
      <point x="1441" y="560" type="curve"/>
      <point x="1526" y="598"/>
      <point x="1613" y="621"/>
      <point x="1691" y="621" type="curve" smooth="yes"/>
      <point x="1768" y="621"/>
      <point x="1823" y="545"/>
      <point x="1900" y="474" type="curve"/>
      <point x="1910" y="468"/>
      <point x="1914" y="458"/>
      <point x="1914" y="446" type="curve" smooth="yes"/>
      <point x="1914" y="415"/>
      <point x="1888" y="372"/>
      <point x="1873" y="372" type="curve" smooth="yes"/>
      <point x="1791" y="372"/>
      <point x="1740" y="412"/>
      <point x="1669" y="412" type="curve" smooth="yes"/>
      <point x="1628" y="412"/>
      <point x="1582" y="411"/>
      <point x="1533" y="405" type="curve"/>
      <point x="1550" y="364"/>
      <point x="1560" y="322"/>
      <point x="1560" y="279" type="curve" smooth="yes"/>
      <point x="1560" y="114"/>
      <point x="1453" y="-9"/>
      <point x="1212" y="-9" type="curve" smooth="yes"/>
      <point x="1144" y="-9"/>
      <point x="1058" y="28"/>
      <point x="1058" y="120" type="curve" smooth="yes"/>
      <point x="1058" y="243"/>
      <point x="1153" y="370"/>
      <point x="1280" y="465" type="curve"/>
      <point x="1255" y="494"/>
      <point x="1228" y="521"/>
      <point x="1204" y="542" type="curve"/>
      <point x="1156" y="470" type="line" smooth="yes"/>
      <point x="1089" y="369"/>
      <point x="922" y="288"/>
      <point x="798" y="288" type="curve" smooth="yes"/>
      <point x="601" y="288"/>
      <point x="565" y="460"/>
      <point x="543" y="634" type="curve"/>
      <point x="527" y="634" type="line"/>
      <point x="348" y="135" type="line" smooth="yes"/>
      <point x="327" y="77"/>
      <point x="308" y="0"/>
      <point x="235" y="0" type="curve" smooth="yes"/>
      <point x="126" y="0"/>
      <point x="108" y="100"/>
    </contour>
    <contour>
      <point x="1190" y="163" type="curve" smooth="yes"/>
      <point x="1190" y="154"/>
      <point x="1213" y="151"/>
      <point x="1221" y="151" type="curve" smooth="yes"/>
      <point x="1280" y="151"/>
      <point x="1368" y="225"/>
      <point x="1368" y="282" type="curve" smooth="yes"/>
      <point x="1368" y="305"/>
      <point x="1362" y="330"/>
      <point x="1351" y="355" type="curve"/>
      <point x="1298" y="328"/>
      <point x="1190" y="252"/>
    </contour>
  </outline>
</glyph>
<glyph name="t_t" format="1">
  <advance width="1443"/>
  <outline>
    <contour>
      <point x="428" y="937" type="curve"/>
      <point x="508" y="1107"/>
      <point x="596" y="1312"/>
      <point x="596" y="1490" type="curve" smooth="yes"/>
      <point x="596" y="1532"/>
      <point x="586" y="1568"/>
      <point x="543" y="1568" type="curve" smooth="yes"/>
      <point x="438" y="1568"/>
      <point x="382" y="1173"/>
      <point x="358" y="934" type="curve"/>
      <point x="381" y="935"/>
      <point x="404" y="936"/>
    </contour>
    <contour>
      <point x="1118" y="965" type="line"/>
      <point x="1201" y="1121"/>
      <point x="1296" y="1316"/>
      <point x="1296" y="1490" type="curve" smooth="yes"/>
      <point x="1296" y="1532"/>
      <point x="1286" y="1568"/>
      <point x="1243" y="1568" type="curve" smooth="yes"/>
      <point x="1133" y="1568"/>
      <point x="1077" y="1197"/>
      <point x="1054" y="965" type="curve"/>
    </contour>
    <contour>
      <point x="1140" y="762" type="curve"/>
      <point x="1105" y="714"/>
      <point x="1072" y="672"/>
      <point x="1046" y="638" type="curve"/>
      <point x="1042" y="420" type="line"/>
      <point x="1042" y="304"/>
      <point x="1077" y="224"/>
      <point x="1189" y="224" type="curve" smooth="yes"/>
      <point x="1357" y="224"/>
      <point x="1531" y="386"/>
      <point x="1616" y="480" type="curve"/>
      <point x="1616" y="224" type="line"/>
      <point x="1491" y="130"/>
      <point x="1321" y="0"/>
      <point x="1125" y="0" type="curve" smooth="yes"/>
      <point x="927" y="0"/>
      <point x="871" y="193"/>
      <point x="848" y="350" type="curve"/>
      <point x="773" y="224"/>
      <point x="630" y="0"/>
      <point x="425" y="0" type="curve" smooth="yes"/>
      <point x="157" y="0"/>
      <point x="116" y="380"/>
      <point x="116" y="665" type="curve" smooth="yes"/>
      <point x="116" y="704"/>
      <point x="117" y="744"/>
      <point x="119" y="784" type="curve"/>
      <point x="25" y="802"/>
      <point x="-65" y="834"/>
      <point x="-65" y="884" type="curve" smooth="yes"/>
      <point x="-65" y="916"/>
      <point x="-27" y="946"/>
      <point x="40" y="946" type="curve" smooth="yes"/>
      <point x="73" y="946"/>
      <point x="105" y="944"/>
      <point x="137" y="941" type="curve"/>
      <point x="163" y="1088" type="line"/>
      <point x="209" y="1316"/>
      <point x="316" y="1792"/>
      <point x="565" y="1792" type="curve" smooth="yes"/>
      <point x="699" y="1792"/>
      <point x="756" y="1637"/>
      <point x="756" y="1499" type="curve" smooth="yes"/>
      <point x="756" y="1297"/>
      <point x="679" y="1110"/>
      <point x="592" y="945" type="curve"/>
      <point x="673" y="950"/>
      <point x="755" y="954"/>
      <point x="837" y="958" type="curve"/>
      <point x="881" y="1295"/>
      <point x="993" y="1627"/>
      <point x="1183" y="1764" type="curve" smooth="yes"/>
      <point x="1210" y="1783"/>
      <point x="1238" y="1792"/>
      <point x="1265" y="1792" type="curve" smooth="yes"/>
      <point x="1399" y="1792"/>
      <point x="1456" y="1637"/>
      <point x="1456" y="1499" type="curve" smooth="yes"/>
      <point x="1456" y="1315"/>
      <point x="1371" y="1123"/>
      <point x="1274" y="961" type="curve"/>
      <point x="1369" y="958"/>
      <point x="1463" y="954"/>
      <point x="1463" y="946" type="curve"/>
      <point x="1571" y="924"/>
      <point x="1467" y="721"/>
      <point x="1438" y="751" type="curve"/>
      <point x="1360" y="753"/>
      <point x="1239" y="759"/>
    </contour>
    <contour>
      <point x="820" y="764" type="curve"/>
      <point x="704" y="764"/>
      <point x="590" y="765"/>
      <point x="491" y="766" type="curve"/>
      <point x="411" y="629"/>
      <point x="343" y="515"/>
      <point x="343" y="430" type="curve" smooth="yes"/>
      <point x="343" y="335"/>
      <point x="361" y="223"/>
      <point x="472" y="223" type="curve" smooth="yes"/>
      <point x="644" y="223"/>
      <point x="759" y="505"/>
      <point x="816" y="631" type="curve"/>
      <point x="816" y="675"/>
      <point x="818" y="719"/>
    </contour>
  </outline>
</glyph>
<glyph name="w.fina" format="1">
  <advance width="1753"/>
  <outline>
    <contour>
      <point x="1494" y="367" type="curve" smooth="yes"/>
      <point x="1494" y="234"/>
      <point x="1320" y="145"/>
      <point x="1216" y="145" type="curve" smooth="yes"/>
      <point x="1060" y="145"/>
      <point x="986" y="225"/>
      <point x="953" y="303" type="curve"/>
      <point x="901" y="197"/>
      <point x="837" y="87"/>
      <point x="737" y="27" type="curve" smooth="yes"/>
      <point x="709" y="10"/>
      <point x="684" y="0"/>
      <point x="657" y="0" type="curve" smooth="yes"/>
      <point x="598" y="0"/>
      <point x="591" y="239"/>
      <point x="591" y="390" type="curve" smooth="yes"/>
      <point x="591" y="432"/>
      <point x="592" y="467"/>
      <point x="592" y="489" type="curve"/>
      <point x="563" y="494" type="line"/>
      <point x="515" y="315"/>
      <point x="441" y="130"/>
      <point x="317" y="36" type="curve" smooth="yes"/>
      <point x="285" y="12"/>
      <point x="254" y="0"/>
      <point x="223" y="0" type="curve" smooth="yes"/>
      <point x="81" y="0"/>
      <point x="72" y="263"/>
      <point x="72" y="455" type="curve" smooth="yes"/>
      <point x="72" y="512" type="line" smooth="yes"/>
      <point x="72" y="685"/>
      <point x="87" y="961"/>
      <point x="258" y="961" type="curve"/>
      <point x="282" y="959" type="line"/>
      <point x="329" y="959"/>
      <point x="373" y="942"/>
      <point x="373" y="902" type="curve" smooth="yes"/>
      <point x="373" y="895" type="line"/>
      <point x="303" y="354" type="line"/>
      <point x="316" y="355" type="line"/>
      <point x="384" y="513"/>
      <point x="433" y="668"/>
      <point x="506" y="810" type="curve" smooth="yes"/>
      <point x="548" y="892"/>
      <point x="599" y="959"/>
      <point x="718" y="959" type="curve" smooth="yes"/>
      <point x="765" y="959"/>
      <point x="810" y="942"/>
      <point x="810" y="903" type="curve" smooth="yes"/>
      <point x="810" y="900"/>
      <point x="809" y="898"/>
      <point x="809" y="895" type="curve" smooth="yes"/>
      <point x="727" y="354" type="line"/>
      <point x="741" y="355" type="line"/>
      <point x="980" y="889" type="line" smooth="yes"/>
      <point x="998" y="931"/>
      <point x="1062" y="960"/>
      <point x="1127" y="960" type="curve" smooth="yes"/>
      <point x="1186" y="960"/>
      <point x="1246" y="934"/>
      <point x="1246" y="876" type="curve" smooth="yes"/>
      <point x="1246" y="763"/>
      <point x="1175" y="661"/>
      <point x="1139" y="582" type="curve" smooth="yes"/>
      <point x="1128" y="558"/>
      <point x="1093" y="484"/>
      <point x="1093" y="420" type="curve" smooth="yes"/>
      <point x="1093" y="365"/>
      <point x="1119" y="318"/>
      <point x="1209" y="318" type="curve" smooth="yes"/>
      <point x="1295" y="318"/>
      <point x="1368" y="385"/>
      <point x="1436" y="435" type="curve" smooth="yes"/>
      <point x="1440" y="438"/>
      <point x="1443" y="439"/>
      <point x="1447" y="439" type="curve" smooth="yes"/>
      <point x="1469" y="439"/>
      <point x="1494" y="401"/>
    </contour>
  </outline>
</glyph>
<glyph name="y.fina" format="1">
  <advance width="1175"/>
  <outline>
    <contour>
      <point x="172" y="-736" type="curve" smooth="yes"/>
      <point x="368" y="-736"/>
      <point x="448" y="-417"/>
      <point x="480" y="-256" type="curve"/>
      <point x="348" y="-344"/>
      <point x="212" y="-489"/>
      <point x="147" y="-641" type="curve" smooth="yes"/>
      <point x="137" y="-664"/>
      <point x="132" y="-684"/>
      <point x="132" y="-699" type="curve" smooth="yes"/>
      <point x="132" y="-724"/>
      <point x="145" y="-736"/>
    </contour>
    <contour>
      <point x="320" y="324" type="curve" smooth="yes"/>
      <point x="320" y="260"/>
      <point x="334" y="192"/>
      <point x="398" y="192" type="curve" smooth="yes"/>
      <point x="506" y="192"/>
      <point x="548" y="381"/>
      <point x="570" y="474" type="curve" smooth="yes"/>
      <point x="640" y="768" type="line" smooth="yes"/>
      <point x="658" y="846"/>
      <point x="733" y="909"/>
      <point x="826" y="909" type="curve" smooth="yes"/>
      <point x="866" y="909"/>
      <point x="899" y="893"/>
      <point x="899" y="853" type="curve" smooth="yes"/>
      <point x="899" y="718"/>
      <point x="842" y="553"/>
      <point x="819" y="412" type="curve" smooth="yes"/>
      <point x="801" y="300"/>
      <point x="782" y="181"/>
      <point x="764" y="54" type="curve"/>
      <point x="911" y="106"/>
      <point x="1097" y="139"/>
      <point x="1232" y="167" type="curve" smooth="yes"/>
      <point x="1235" y="168"/>
      <point x="1239" y="168"/>
      <point x="1242" y="168" type="curve" smooth="yes"/>
      <point x="1341" y="168"/>
      <point x="1417" y="101"/>
      <point x="1417" y="43" type="curve" smooth="yes"/>
      <point x="1417" y="2"/>
      <point x="1399" y="-33"/>
      <point x="1354" y="-44" type="curve"/>
      <point x="1219" y="-60"/>
      <point x="917" y="-107"/>
      <point x="736" y="-148" type="curve"/>
      <point x="679" y="-462"/>
      <point x="584" y="-790"/>
      <point x="317" y="-898" type="curve" smooth="yes"/>
      <point x="270" y="-918"/>
      <point x="217" y="-928"/>
      <point x="160" y="-928" type="curve" smooth="yes"/>
      <point x="24" y="-928"/>
      <point x="-64" y="-870"/>
      <point x="-64" y="-729" type="curve" smooth="yes"/>
      <point x="-64" y="-437"/>
      <point x="283" y="-142"/>
      <point x="504" y="-18" type="curve"/>
      <point x="541" y="105" type="line"/>
      <point x="485" y="55"/>
      <point x="407" y="-2"/>
      <point x="315" y="-2" type="curve" smooth="yes"/>
      <point x="161" y="-2"/>
      <point x="64" y="123"/>
      <point x="64" y="281" type="curve" smooth="yes"/>
      <point x="64" y="513"/>
      <point x="116" y="677"/>
      <point x="192" y="832" type="curve" smooth="yes"/>
      <point x="217" y="881"/>
      <point x="275" y="924"/>
      <point x="342" y="924" type="curve" smooth="yes"/>
      <point x="389" y="924"/>
      <point x="427" y="900"/>
      <point x="427" y="852" type="curve" smooth="yes"/>
      <point x="427" y="793"/>
      <point x="397" y="751"/>
      <point x="380" y="692" type="curve" smooth="yes"/>
      <point x="350" y="584"/>
      <point x="320" y="454"/>
    </contour>
  </outline>
</glyph>
